STARTFONT 2.3
FONT -FontForge-Open Sans-Bold-R-Normal-Sans--16-160-72-72-P-99-ISO10646-1
SIZE 16 72 72  4
FONTBOUNDINGBOX 31 22 -10 -5
COMMENT "Generated by fontforge, http://fontforge.sourceforge.net"
COMMENT "Digitized data copyright (c) 2010-2011, Google Corporation."
STARTPROPERTIES 41
FOUNDRY "FontForge"
FAMILY_NAME "Open Sans"
WEIGHT_NAME "Bold"
SLANT "R"
SETWIDTH_NAME "Normal"
ADD_STYLE_NAME "Sans"
PIXEL_SIZE 16
POINT_SIZE 160
RESOLUTION_X 72
RESOLUTION_Y 72
SPACING "P"
AVERAGE_WIDTH 99
CHARSET_REGISTRY "ISO10646"
CHARSET_ENCODING "1"
FONTNAME_REGISTRY ""
CHARSET_COLLECTIONS "ISO8859-2 ISO8859-5 ISO8859-7 ISO8859-9 ISO8859-4 ISO10646-1"
BITS_PER_PIXEL 4
FONT_NAME "OpenSans-Bold"
FACE_NAME "Open Sans Bold"
COPYRIGHT "Digitized data copyright (c) 2010-2011, Google Corporation."
FONT_VERSION "1.10"
FONT_ASCENT 13
FONT_DESCENT 3
UNDERLINE_POSITION -2
UNDERLINE_THICKNESS 1
X_HEIGHT 8
CAP_HEIGHT 11
RAW_ASCENT 799
RAW_DESCENT 200
NORM_SPACE 4
RELATIVE_WEIGHT 70
RELATIVE_SETWIDTH 50
SUPERSCRIPT_X 0
SUPERSCRIPT_Y 7
SUPERSCRIPT_SIZE 10
SUBSCRIPT_X 0
SUBSCRIPT_Y 2
SUBSCRIPT_SIZE 10
FIGURE_WIDTH 9
AVG_LOWERCASE_WIDTH 100
AVG_UPPERCASE_WIDTH 113
ENDPROPERTIES
CHARS 938
STARTCHAR space
ENCODING 32
SWIDTH 259 0
DWIDTH 4 0
BBX 1 1 0 0
BITMAP
00
ENDCHAR
STARTCHAR exclam
ENCODING 33
SWIDTH 286 0
DWIDTH 5 0
BBX 4 12 0 0
BITMAP
0FF9
0FF9
0EF8
0DF7
0CF7
0CF6
0BF5
0AF4
0000
0692
1FF9
0BE5
ENDCHAR
STARTCHAR quotedbl
ENCODING 34
SWIDTH 472 0
DWIDTH 8 0
BBX 6 4 1 8
BITMAP
EF39F7
DF28F6
BF07F5
AE06F4
ENDCHAR
STARTCHAR numbersign
ENCODING 35
SWIDTH 645 0
DWIDTH 10 0
BBX 10 12 0 0
BITMAP
0005F61F90
0008F34F60
000BF07F30
1FFFFFFFFF
1AAFDAFEA9
004F70FA00
006F43F800
AFFFFFFFF7
69EE9DFA94
00EB0BF000
02F90EC000
04F61F9000
ENDCHAR
STARTCHAR dollar
ENCODING 36
SWIDTH 570 0
DWIDTH 9 0
BBX 9 14 0 -1
BITMAP
0000E20000
018DFEC820
0CFFFFFF10
4FF4E23600
3FF6E20000
0CFFF60000
01BFFFD300
0004FFFF20
0000E5EF70
3720E3EF60
4FFEFFFE10
29CEFDA200
0000E20000
0000E20000
ENDCHAR
STARTCHAR percent
ENCODING 37
SWIDTH 900 0
DWIDTH 14 0
BBX 14 12 0 0
BITMAP
06DE91000CE100
2FECF8006F8000
6F82FC00DE1000
7F71FD06F70000
6F82FC1ED00000
2FECF87F66DE91
05DEA2ED2FECF8
000008F56F82FC
00001EC07F71FD
00009F406F82FC
0002FB002FECF8
000AF30005DEA1
ENDCHAR
STARTCHAR ampersand
ENCODING 38
SWIDTH 750 0
DWIDTH 12 0
BBX 12 12 0 0
BITMAP
003BEEA20000
01EFEEFC0000
05FE13FF2000
05FE03FF1000
01EF9DF80000
008FFF900000
06FFFF502FF5
1FFB7FF68FE0
5FF306FFFF70
4FF911AFFD00
0CFFFFFFFF70
018DEEB67FF7
ENDCHAR
STARTCHAR quotesingle
ENCODING 39
SWIDTH 266 0
DWIDTH 4 0
BBX 3 4 1 8
BITMAP
EF30
DF20
BF00
AE00
ENDCHAR
STARTCHAR parenleft
ENCODING 40
SWIDTH 338 0
DWIDTH 5 0
BBX 5 15 0 -3
BITMAP
005FA0
01DF20
06FA00
0BF500
0FF100
3FD000
4FC000
5FB000
4FC000
3FD000
1FF100
0CF500
06FA00
01EF20
005FA0
ENDCHAR
STARTCHAR parenright
ENCODING 41
SWIDTH 338 0
DWIDTH 5 0
BBX 5 15 0 -3
BITMAP
4FB000
0AF500
04FC00
00DF30
00AF60
007F90
006FB0
005FB0
006FB0
007FA0
00AF70
00DF30
04FD00
0AF600
3FB000
ENDCHAR
STARTCHAR asterisk
ENCODING 42
SWIDTH 544 0
DWIDTH 9 0
BBX 9 7 0 6
BITMAP
0009F50000
0007F30000
4EAAF8BE10
6EFFFFFE20
004FFD1000
02EE6FB000
02A70B8100
ENDCHAR
STARTCHAR plus
ENCODING 43
SWIDTH 570 0
DWIDTH 9 0
BBX 9 9 0 2
BITMAP
0000100000
0004F60000
0004F60000
0004F60000
5FFFFFFF70
3BBCFDBB50
0004F60000
0004F60000
0003B50000
ENDCHAR
STARTCHAR comma
ENCODING 44
SWIDTH 290 0
DWIDTH 5 0
BBX 4 4 0 -2
BITMAP
0CF7
0FF3
3FC0
6F60
ENDCHAR
STARTCHAR hyphen
ENCODING 45
SWIDTH 321 0
DWIDTH 5 0
BBX 5 2 0 3
BITMAP
8FFFA0
7EEEA0
ENDCHAR
STARTCHAR period
ENCODING 46
SWIDTH 285 0
DWIDTH 5 0
BBX 4 3 0 0
BITMAP
0692
1FF9
0BE5
ENDCHAR
STARTCHAR slash
ENCODING 47
SWIDTH 413 0
DWIDTH 7 0
BBX 7 12 0 0
BITMAP
0000CF50
0002FE10
0008FA00
000DF400
003FE000
009F9000
00EF3000
04FD0000
0AF80000
1EF20000
5FC00000
BF700000
ENDCHAR
STARTCHAR zero
ENCODING 48
SWIDTH 570 0
DWIDTH 9 0
BBX 9 12 0 0
BITMAP
006DFD7000
06FFFFF700
0EFA18FE10
3FF301FF50
5FF100EF70
6FF000DF80
6FF000DF80
5FF100EF70
3FF301FF50
0DF918FF10
06FFFFF800
006DFD8000
ENDCHAR
STARTCHAR one
ENCODING 49
SWIDTH 570 0
DWIDTH 9 0
BBX 6 12 1 0
BITMAP
002DF9
04EFF9
6FFEF9
AE5BF9
130CF9
000CF9
000CF9
000CF9
000CF9
000CF9
000CF9
000CF9
ENDCHAR
STARTCHAR two
ENCODING 50
SWIDTH 570 0
DWIDTH 9 0
BBX 9 12 0 0
BITMAP
029DFE9100
2EFFFFFC00
0AB417FF30
000002FF40
000005FF10
00001DFA00
0000BFD100
000AFD2000
009FD20000
09FE200000
5FFFFFFF90
5FFFFFFF90
ENDCHAR
STARTCHAR three
ENCODING 51
SWIDTH 570 0
DWIDTH 9 0
BBX 9 12 0 0
BITMAP
06BEFD8100
2FFFFFFC00
066108FF20
000004FF10
00002AF900
009FFE7000
008DEFE700
000006FF40
000001FF70
351008FF50
6FFEFFFC00
3ADEFD8100
ENDCHAR
STARTCHAR four
ENCODING 52
SWIDTH 570 0
DWIDTH 9 0
BBX 9 12 0 0
BITMAP
00001EF800
0000AFF800
0004FFF800
000DDCF800
007F5CF800
02EC0DF800
0AF40DF800
4FA00DF800
BFFFFFFFD0
9DDDDFFEC0
00000DF800
00000DF800
ENDCHAR
STARTCHAR five
ENCODING 53
SWIDTH 570 0
DWIDTH 9 0
BBX 9 12 0 0
BITMAP
09FFFFFA00
0AFFFFFA00
0BF8111000
0CF6000000
0DFEFD9100
0EFFFFFB00
012019FF30
000001FF60
000002FF50
38201AFF20
3FFFFFF800
19DFEC6000
ENDCHAR
STARTCHAR six
ENCODING 54
SWIDTH 570 0
DWIDTH 9 0
BBX 9 12 0 0
BITMAP
0006CEFC00
00BFFFEC00
08FD400000
0EF3000000
3FD5DFC400
5FEFEFFE10
6FF702EF70
6FF000BF90
4FF200CF90
0EFA04FF50
06FFFFFC00
005CEE9100
ENDCHAR
STARTCHAR seven
ENCODING 55
SWIDTH 570 0
DWIDTH 9 0
BBX 9 12 0 0
BITMAP
8FFFFFFF90
8FFFFFFF90
000003FF30
000009FC00
00001EF600
00006FE100
0000DF9000
0004FF2000
000BFB0000
002FF50000
009FE00000
01EF800000
ENDCHAR
STARTCHAR eight
ENCODING 56
SWIDTH 570 0
DWIDTH 9 0
BBX 9 12 0 0
BITMAP
018DFD9100
0AFFCEFC00
1FF503FF20
0EF503FF20
08FE8DF900
00AFFF9000
05FFDFF600
2FF606FF30
6FD000BF80
5FE201DF70
1EFECEFE20
029DFD9200
ENDCHAR
STARTCHAR nine
ENCODING 57
SWIDTH 570 0
DWIDTH 9 0
BBX 9 12 0 0
BITMAP
018DFC6000
0BFFFFF800
3FF607FF10
6FE000EF60
7FE000DF80
5FF405FF80
0DFFEFEF70
02BEE7BF50
000001FF20
00003CFA00
0AEEFFC100
0AFEC71000
ENDCHAR
STARTCHAR colon
ENCODING 58
SWIDTH 285 0
DWIDTH 5 0
BBX 4 9 0 0
BITMAP
0BE5
1FF9
0692
0000
0000
0000
0692
1FF9
0BE5
ENDCHAR
STARTCHAR semicolon
ENCODING 59
SWIDTH 290 0
DWIDTH 5 0
BBX 4 11 0 -2
BITMAP
0BE5
1FF9
0692
0000
0000
0000
0000
0CF7
0FF3
3FC0
6F60
ENDCHAR
STARTCHAR less
ENCODING 60
SWIDTH 570 0
DWIDTH 9 0
BBX 9 9 0 1
BITMAP
0000000650
000006DF70
0006DFE710
06DFD60000
5FFA000000
18EFE82000
0006CFFA30
000004BF70
0000000230
ENDCHAR
STARTCHAR equal
ENCODING 61
SWIDTH 570 0
DWIDTH 9 0
BBX 9 5 0 3
BITMAP
5FFFFFFF70
3BBBBBBB50
0000000000
3BBBBBBB50
5FFFFFFF70
ENDCHAR
STARTCHAR greater
ENCODING 62
SWIDTH 570 0
DWIDTH 9 0
BBX 9 9 0 1
BITMAP
4710000000
5FE7100000
06DFE71000
0005CFE710
000008FF70
0017DFE820
29FFD71000
5FB5000000
2300000000
ENDCHAR
STARTCHAR question
ENCODING 63
SWIDTH 477 0
DWIDTH 8 0
BBX 8 12 0 0
BITMAP
39DED910
AFFEFFC0
37103FF2
00002FF3
0002CFB0
002EFB10
00AFA000
00DF4000
00000000
00692000
01FF9000
00BE5000
ENDCHAR
STARTCHAR at
ENCODING 64
SWIDTH 896 0
DWIDTH 14 0
BBX 14 13 0 -1
BITMAP
00004ADFEB5000
001AFE989DFB10
00AF8000008F90
05F807DFEB3BF2
0BE18FC7BF45F6
1FA1FD008F43F8
2F93F9009F33F8
2F92FA00CF36F5
1FB0CF89FFADD0
0BF22BED58EC30
04FC2000001000
006FFA88ADC000
00029DEEDA5000
ENDCHAR
STARTCHAR A
ENCODING 65
SWIDTH 689 0
DWIDTH 11 0
BBX 11 12 0 0
BITMAP
0002FFF30000
0007FFF80000
000CF9FD0000
002FF2EF3000
007FC0BF8000
00CF706FD000
02FF302FF300
07FFFFFFF800
0CFFFFFFFD00
2FF50004FF30
7FF10000EF80
DFB00000BFD0
ENDCHAR
STARTCHAR B
ENCODING 66
SWIDTH 671 0
DWIDTH 11 0
BBX 9 12 1 0
BITMAP
8FFFFDA300
8FFFFFFF30
8FD005FF80
8FD000EF90
8FD005FF50
8FFFFFF800
8FFEEFFD20
8FD002DFB0
8FD000AFD0
8FD003EFC0
8FFFFFFF50
8FFFFEB400
ENDCHAR
STARTCHAR C
ENCODING 67
SWIDTH 637 0
DWIDTH 10 0
BBX 9 12 1 0
BITMAP
004AEED930
07FFFFFF50
3FFB214910
AFE1000000
EF90000000
FF70000000
FF70000000
EF90000000
BFE0000000
5FFA312620
0AFFFFFF30
006CEED910
ENDCHAR
STARTCHAR D
ENCODING 68
SWIDTH 740 0
DWIDTH 12 0
BBX 10 12 1 0
BITMAP
8FFFED9200
8FFFFFFE40
8FD014DFE2
8FD0002FF8
8FD0000CFC
8FD0000AFD
8FD0000AFD
8FD0000CFB
8FD0003FF7
8FD015EFE1
8FFFFFFE40
8FFFEC8100
ENDCHAR
STARTCHAR E
ENCODING 69
SWIDTH 560 0
DWIDTH 9 0
BBX 7 12 1 0
BITMAP
8FFFFFF0
8FFFFFF0
8FD00000
8FD00000
8FD00000
8FFFFFB0
8FFFFFB0
8FD00000
8FD00000
8FD00000
8FFFFFF0
8FFFFFF0
ENDCHAR
STARTCHAR F
ENCODING 70
SWIDTH 548 0
DWIDTH 9 0
BBX 7 12 1 0
BITMAP
8FFFFFF0
8FFFFFF0
8FC00000
8FC00000
8FC00000
8FFFFFB0
8FFFFFA0
8FC00000
8FC00000
8FC00000
8FC00000
8FC00000
ENDCHAR
STARTCHAR G
ENCODING 71
SWIDTH 724 0
DWIDTH 12 0
BBX 10 12 1 0
BITMAP
0029DFEC81
06FFFFFFE1
3FFD511450
AFF2000000
EFA0000000
FF703FFFF5
FF703FFFF5
EF90001FF5
BFE1001FF5
5FFB213FF5
09FFFFFFF5
005BEFEC82
ENDCHAR
STARTCHAR H
ENCODING 72
SWIDTH 765 0
DWIDTH 12 0
BBX 10 12 1 0
BITMAP
8FD00009FC
8FD00009FC
8FD00009FC
8FD00009FC
8FD00009FC
8FFFFFFFFC
8FFFFFFFFC
8FD00009FC
8FD00009FC
8FD00009FC
8FD00009FC
8FD00009FC
ENDCHAR
STARTCHAR I
ENCODING 73
SWIDTH 331 0
DWIDTH 5 0
BBX 3 12 1 0
BITMAP
8FD0
8FD0
8FD0
8FD0
8FD0
8FD0
8FD0
8FD0
8FD0
8FD0
8FD0
8FD0
ENDCHAR
STARTCHAR J
ENCODING 74
SWIDTH 331 0
DWIDTH 5 0
BBX 6 15 -2 -3
BITMAP
0008FD
0008FD
0008FD
0008FD
0008FD
0008FD
0008FD
0008FD
0008FD
0008FD
0008FD
0009FC
013EF9
3FFFF3
2EFC50
ENDCHAR
STARTCHAR K
ENCODING 75
SWIDTH 664 0
DWIDTH 11 0
BBX 10 12 1 0
BITMAP
8FD0007FF3
8FD004FF70
8FD01EFB00
8FD0BFD100
8FD7FF3000
8FEFFC0000
8FFFFF5000
8FE3BFD100
8FD03FF800
8FD009FF20
8FD001EFB0
8FD0006FF5
ENDCHAR
STARTCHAR L
ENCODING 76
SWIDTH 564 0
DWIDTH 9 0
BBX 8 12 1 0
BITMAP
8FD00000
8FD00000
8FD00000
8FD00000
8FD00000
8FD00000
8FD00000
8FD00000
8FD00000
8FD00000
8FFFFFF8
8FFFFFF8
ENDCHAR
STARTCHAR M
ENCODING 77
SWIDTH 942 0
DWIDTH 15 0
BBX 13 12 1 0
BITMAP
8FFD00000CFFA0
8FFF30002FFFA0
8FEF70006FEFA0
8FBFB000BFAFA0
8F8EF101FD8FA0
8F99F506F89FA0
8F95FA0AF39FA0
8F91FE1ED09FA0
8F90BF8F909FA0
8F907FFF409FA0
8F902FFE009FA0
8F900DFA009FA0
ENDCHAR
STARTCHAR N
ENCODING 78
SWIDTH 812 0
DWIDTH 13 0
BBX 11 12 1 0
BITMAP
8FFC00009F90
8FFF50009F90
8FFFD0009F90
8FAFF6009F90
8F89FE109F90
8F91EF809F90
8F908FF29F90
8F901EFA8F90
8F9006FFBF90
8F9000DFFF90
8F90005FFF90
8F90000CFF90
ENDCHAR
STARTCHAR O
ENCODING 79
SWIDTH 795 0
DWIDTH 13 0
BBX 11 12 1 0
BITMAP
005BEFEA3000
09FFFFFFF500
5FFB314DFE10
BFE10004FF70
EFA00000EFA0
FF800000CFC0
FF800000CFC0
EFA00000EFA0
BFE10004FF70
4FFB314DFE10
08FFFFFFF500
005BEFEA3000
ENDCHAR
STARTCHAR P
ENCODING 80
SWIDTH 627 0
DWIDTH 10 0
BBX 9 12 1 0
BITMAP
8FFFEC7000
8FFFFFFA00
8FD01AFF20
8FD003FF40
8FD003FF40
8FD02BFF10
8FFFFFF800
8FFFEC6000
8FD0000000
8FD0000000
8FD0000000
8FD0000000
ENDCHAR
STARTCHAR Q
ENCODING 81
SWIDTH 795 0
DWIDTH 13 0
BBX 11 15 1 -3
BITMAP
005BEFEA3000
09FFFFFFF500
5FFB314DFE10
BFE10004FF70
EFA00000EFA0
FF800000CFC0
FF800000CFB0
EFA00000EFA0
BFE10004FF60
4FFB314DFE10
08FFFFFFF500
005BEFFF4000
000002EFC000
0000006FF900
0000000BFF50
ENDCHAR
STARTCHAR R
ENCODING 82
SWIDTH 660 0
DWIDTH 11 0
BBX 10 12 1 0
BITMAP
8FFFED8100
8FFFFFFC00
8FD018FF30
8FD002FF40
8FD019FF20
8FFFFFF600
8FFFFF7000
8FD08FD000
8FD01EF700
8FD007FE20
8FD001DFA0
8FD0006FF4
ENDCHAR
STARTCHAR S
ENCODING 83
SWIDTH 550 0
DWIDTH 9 0
BBX 9 12 0 0
BITMAP
007CEEB600
09FFFFFC00
1FF8126500
1FF5000000
0DFE600000
04FFFD4000
003BFFF600
00004DFE00
000004FF20
394118FF10
4FFFFFF900
19DEEC6000
ENDCHAR
STARTCHAR T
ENCODING 84
SWIDTH 579 0
DWIDTH 9 0
BBX 9 12 0 0
BITMAP
AFFFFFFFE0
AFFFFFFFE0
0009FD0000
0009FD0000
0009FD0000
0009FD0000
0009FD0000
0009FD0000
0009FD0000
0009FD0000
0009FD0000
0009FD0000
ENDCHAR
STARTCHAR U
ENCODING 85
SWIDTH 755 0
DWIDTH 12 0
BBX 10 12 1 0
BITMAP
AFC0000AFB
AFC0000AFB
AFC0000AFB
AFC0000AFB
AFC0000AFB
AFC0000AFB
AFC0000AFB
AFC0000BFB
8FE0000DFA
4FF9217FF5
0AFFFFFFB0
007CFEC700
ENDCHAR
STARTCHAR V
ENCODING 86
SWIDTH 649 0
DWIDTH 10 0
BBX 11 12 0 0
BITMAP
DF900003FF40
8FD00007FE00
3FF3000CF900
0DF7001FF400
08FC006FE000
03FF10AF9000
00DF60EF4000
009FA4FE0000
004FE8FA0000
000EFDF50000
0009FFE10000
0004FFA00000
ENDCHAR
STARTCHAR W
ENCODING 87
SWIDTH 966 0
DWIDTH 15 0
BBX 16 12 0 0
BITMAP
DF80008FF1001FF5
AFB000CFF4004FF2
6FE001FFF8007FD0
2FF204FCFB00AF90
0EF608F7EF00DF60
0AF90BF4BF42FF20
06FC0FF08F75FD00
03FF4FB04FB8FA00
00EF9F801FDBF600
00AFEF400CFEF300
007FFF1008FFE000
003FFC0005FFA000
ENDCHAR
STARTCHAR X
ENCODING 88
SWIDTH 666 0
DWIDTH 11 0
BBX 11 12 0 0
BITMAP
7FF30007FF20
0CFB001EF700
03FF509FD000
009FD3FF4000
001EFEFA0000
0006FFE20000
0009FFF30000
004FFCFC0000
00CF92FF7000
07FE108FE200
2EF7001EFB00
AFD00006FF50
ENDCHAR
STARTCHAR Y
ENCODING 89
SWIDTH 624 0
DWIDTH 10 0
BBX 10 12 0 0
BITMAP
BFD0000DFB
3FF5005FF3
0BFC00CFA0
03FF55FF20
00AFCCF900
002FFFF200
0009FF9000
0003FF3000
0003FF3000
0003FF3000
0003FF3000
0003FF3000
ENDCHAR
STARTCHAR Z
ENCODING 90
SWIDTH 579 0
DWIDTH 9 0
BBX 9 12 0 0
BITMAP
7FFFFFFFB0
7FFFFFFFA0
000007FF20
00002FF700
0000BFC000
0006FF3000
002EF80000
00BFD00000
05FF400000
1EF9000000
8FFFFFFFD0
9FFFFFFFD0
ENDCHAR
STARTCHAR bracketleft
ENCODING 91
SWIDTH 331 0
DWIDTH 5 0
BBX 4 15 1 -3
BITMAP
DFFE
DFA9
DF20
DF20
DF20
DF20
DF20
DF20
DF20
DF20
DF20
DF20
DF20
DFA9
DFFE
ENDCHAR
STARTCHAR backslash
ENCODING 92
SWIDTH 413 0
DWIDTH 7 0
BBX 7 12 0 0
BITMAP
BF700000
6FC00000
1EF20000
0AF80000
05FD0000
00EF3000
009F9000
004FE000
000DF400
0008F900
0003FE10
0000CF50
ENDCHAR
STARTCHAR bracketright
ENCODING 93
SWIDTH 331 0
DWIDTH 5 0
BBX 5 15 0 -3
BITMAP
9FFF30
6AEF30
00DF30
00DF30
00DF30
00DF30
00DF30
00DF30
00DF30
00DF30
00DF30
00DF30
00DF30
6AEF30
9FFF30
ENDCHAR
STARTCHAR asciicircum
ENCODING 94
SWIDTH 532 0
DWIDTH 9 0
BBX 9 8 0 4
BITMAP
000BD00000
002FF50000
009FDC0000
01EA6F5000
07F41EC000
0DD008F400
4F7001FB00
BF20009F40
ENDCHAR
STARTCHAR underscore
ENCODING 95
SWIDTH 411 0
DWIDTH 7 0
BBX 7 2 0 -3
BITMAP
11111110
FFFFFF90
ENDCHAR
STARTCHAR grave
ENCODING 96
SWIDTH 606 0
DWIDTH 10 0
BBX 6 3 2 10
BITMAP
2EF900
03EF40
002DD1
ENDCHAR
STARTCHAR a
ENCODING 97
SWIDTH 604 0
DWIDTH 10 0
BBX 9 9 0 0
BITMAP
029DEEB300
03FECEFE10
004001EF50
018CEFFF70
0DFE86EF70
3FF400EF70
4FF305FF70
1EFECFEF70
04DFD65F70
ENDCHAR
STARTCHAR b
ENCODING 98
SWIDTH 632 0
DWIDTH 10 0
BBX 9 13 1 0
BITMAP
BFA0000000
BFA0000000
BFA0000000
BF90000000
BF98EEA100
BFEFEFFA00
BFE309FF20
BFB002FF40
BFA001FF60
BFB002FF40
BFF309FF20
BFFFFFFA00
BF49EEA100
ENDCHAR
STARTCHAR c
ENCODING 99
SWIDTH 514 0
DWIDTH 8 0
BBX 8 9 0 0
BITMAP
005CEEC5
06FFFFF6
0EFB1041
3FF40000
4FF30000
3FF40000
1EFB1034
08FFFFF7
007DFEB3
ENDCHAR
STARTCHAR d
ENCODING 100
SWIDTH 632 0
DWIDTH 10 0
BBX 9 13 0 0
BITMAP
0000008FD0
0000008FD0
0000008FD0
0000007FD0
008EEA7FD0
08FFFFEFD0
0EFB12DFD0
2FF4007FD0
4FF2005FD0
3FF4007FD0
1EFA01CFD0
08FFFFEFD0
009EE93FD0
ENDCHAR
STARTCHAR e
ENCODING 101
SWIDTH 590 0
DWIDTH 9 0
BBX 9 9 0 0
BITMAP
005CFEA200
06FFCDFD10
0EF901DF70
3FF4008FA0
4FFFFFFFB0
3FFA999970
0EF8000110
05FFECDF40
004BEFEA20
ENDCHAR
STARTCHAR f
ENCODING 102
SWIDTH 387 0
DWIDTH 6 0
BBX 7 13 0 0
BITMAP
004CEE90
01EFFF80
04FF3000
05FF0000
5EFFFF10
8DFFCC10
05FF0000
05FF0000
05FF0000
05FF0000
05FF0000
05FF0000
05FF0000
ENDCHAR
STARTCHAR g
ENCODING 103
SWIDTH 564 0
DWIDTH 9 0
BBX 9 13 0 -4
BITMAP
02ADFFFFD0
0DFB8EFC40
3FF107FC00
3FF107FC00
0DFB8EF600
03FFEC6000
0CF2000000
0BFFEEC800
19FFFFFF70
BF70019FB0
EF30009F90
AFE99CFE20
18DFFD9200
ENDCHAR
STARTCHAR h
ENCODING 104
SWIDTH 657 0
DWIDTH 11 0
BBX 9 13 1 0
BITMAP
BFA0000000
BFA0000000
BFA0000000
BF90000000
BF98EEB300
BFEFEFFD00
BFF406FF30
BFC001FF50
BFA001FF50
BFA001FF50
BFA001FF50
BFA001FF50
BFA001FF50
ENDCHAR
STARTCHAR i
ENCODING 105
SWIDTH 305 0
DWIDTH 5 0
BBX 3 13 1 0
BITMAP
9F70
BFA0
1510
0000
BFA0
BFA0
BFA0
BFA0
BFA0
BFA0
BFA0
BFA0
BFA0
ENDCHAR
STARTCHAR j
ENCODING 106
SWIDTH 305 0
DWIDTH 5 0
BBX 5 17 -1 -4
BITMAP
009F70
00BFA0
001510
000000
00BFA0
00BFA0
00BFA0
00BFA0
00BFA0
00BFA0
00BFA0
00BFA0
00BFA0
00BFA0
01EF80
FFFF40
EFD600
ENDCHAR
STARTCHAR k
ENCODING 107
SWIDTH 620 0
DWIDTH 10 0
BBX 9 13 1 0
BITMAP
BFA0000000
BFA0000000
BFA0000000
BFA0000000
BFA006FF40
BFA05FF600
BF93FF7000
BFAEF90000
BFFFFA0000
BFF8FF6000
BFA08FE200
BFA00CFC00
BFA003FF80
ENDCHAR
STARTCHAR l
ENCODING 108
SWIDTH 305 0
DWIDTH 5 0
BBX 3 13 1 0
BITMAP
BFA0
BFA0
BFA0
BFA0
BFA0
BFA0
BFA0
BFA0
BFA0
BFA0
BFA0
BFA0
BFA0
ENDCHAR
STARTCHAR m
ENCODING 109
SWIDTH 981 0
DWIDTH 16 0
BBX 14 9 1 0
BITMAP
BF49EEB25CFD50
BFEFEFFDFFFFF2
BFF30AFF903FF6
BFC005FF300EF8
BFA005FF100DF8
BFA005FF100DF8
BFA005FF100DF8
BFA005FF100DF8
BFA005FF100DF8
ENDCHAR
STARTCHAR n
ENCODING 110
SWIDTH 657 0
DWIDTH 11 0
BBX 9 9 1 0
BITMAP
BF39EEB300
BFEFEFFD00
BFF406FF30
BFC001FF50
BFA001FF50
BFA001FF50
BFA001FF50
BFA001FF50
BFA001FF50
ENDCHAR
STARTCHAR o
ENCODING 111
SWIDTH 619 0
DWIDTH 10 0
BBX 10 9 0 0
BITMAP
005CEEB300
06FFFFFF40
0EFB11CFC0
3FF4005FF1
4FF3004FF2
3FF4005FF1
0DFB11CFD0
05FFFFFF40
004BEEB400
ENDCHAR
STARTCHAR p
ENCODING 112
SWIDTH 632 0
DWIDTH 10 0
BBX 9 13 1 -4
BITMAP
BF58EEA100
BFEFEFFA00
BFE308FF20
BFB002FF40
BFA001FF60
BFB002FF50
BFF308FF20
BFFFFFFA00
BF99EE9100
BFA0000000
BFA0000000
BFA0000000
BFA0000000
ENDCHAR
STARTCHAR q
ENCODING 113
SWIDTH 632 0
DWIDTH 10 0
BBX 9 13 0 -4
BITMAP
008EEA4FD0
08FFFFEFD0
0EFB11DFD0
2FF4007FD0
4FF3005FD0
3FF4006FD0
1EFA01CFD0
08FFEFEFD0
009EE98FD0
0000007FD0
0000008FD0
0000008FD0
0000008FD0
ENDCHAR
STARTCHAR r
ENCODING 114
SWIDTH 454 0
DWIDTH 7 0
BBX 6 9 1 0
BITMAP
BF26DD
BFBFFC
BFFB53
BFD000
BFA000
BFA000
BFA000
BFA000
BFA000
ENDCHAR
STARTCHAR s
ENCODING 115
SWIDTH 497 0
DWIDTH 8 0
BBX 8 9 0 0
BITMAP
03BEED91
1EFDCFD0
3FF30130
1EFF9300
04DFFF80
0005CFF3
23001FF4
4FECDFE1
2BEFEB30
ENDCHAR
STARTCHAR t
ENCODING 116
SWIDTH 434 0
DWIDTH 7 0
BBX 7 11 0 0
BITMAP
00AB0000
02FD0000
4DFFFF50
7DFFCC40
07FD0000
07FD0000
07FD0000
07FD0000
06FE1010
03FFFE70
007DFD40
ENDCHAR
STARTCHAR u
ENCODING 117
SWIDTH 657 0
DWIDTH 11 0
BBX 9 9 1 0
BITMAP
CF9002FF40
CF9002FF40
CF9002FF40
CF9002FF40
CF9002FF40
CF9004FF40
AFD10AFF40
6FFFFFEF40
08DFC4AF40
ENDCHAR
STARTCHAR v
ENCODING 118
SWIDTH 568 0
DWIDTH 9 0
BBX 9 9 0 0
BITMAP
CFA0008FE0
7FE000DF80
1FF503FF30
0BFA08FC00
05FE0DF700
00EF6FF100
009FCFB000
003FFF5000
000DFE0000
ENDCHAR
STARTCHAR w
ENCODING 119
SWIDTH 855 0
DWIDTH 14 0
BBX 14 9 0 0
BITMAP
BFA008FF500EF6
6FE00CFF803FF2
2FF21FAFC07FD0
0DF65F6CF1BF90
09FA8F38F4EF40
05FCBE05F8FF10
01FEDB01FDFB00
00CFF800DFF700
007FF500AFF300
ENDCHAR
STARTCHAR x
ENCODING 120
SWIDTH 578 0
DWIDTH 9 0
BBX 9 9 0 0
BITMAP
7FF301EFB0
0CFC08FE20
03FF8FF600
008FFFC000
002FFF6000
00AFFFD100
05FF5EF800
1DFA06FF30
9FE200CFC0
ENDCHAR
STARTCHAR y
ENCODING 121
SWIDTH 568 0
DWIDTH 9 0
BBX 9 13 0 -4
BITMAP
CFC0009FE0
6FF100EF80
1FF604FF30
0AFB08FD00
04FF1DF700
00DF7FF200
007FDFB000
002FFF6000
000BFF1000
000BFA0000
005FF40000
7EFFA00000
6FD8000000
ENDCHAR
STARTCHAR z
ENCODING 122
SWIDTH 487 0
DWIDTH 8 0
BBX 8 9 0 0
BITMAP
5FFFFFF3
4CCCEFF2
0001EF80
000AFC00
006FE200
02EF6000
0CFB0000
7FFDCCC4
8FFFFFF5
ENDCHAR
STARTCHAR braceleft
ENCODING 123
SWIDTH 394 0
DWIDTH 6 0
BBX 6 15 0 -3
BITMAP
001AEA
009FF8
00BF60
00BF50
00BF50
00DF40
5BFE10
BFD300
5BFE10
00DF50
00BF50
00BF50
00BF60
009FF8
001AEA
ENDCHAR
STARTCHAR bar
ENCODING 124
SWIDTH 550 0
DWIDTH 9 0
BBX 3 17 3 -4
BITMAP
7F40
7F40
7F40
7F40
7F40
7F40
7F40
7F40
7F40
7F40
7F40
7F40
7F40
7F40
7F40
7F40
7F40
ENDCHAR
STARTCHAR braceright
ENCODING 125
SWIDTH 394 0
DWIDTH 6 0
BBX 7 15 0 -3
BITMAP
5EC40000
4EFE0000
02FF1000
00FF1000
00FF1000
00FF2000
00AFD700
001BFF10
00BFD700
00FF2000
00FF1000
00FF1000
02FF1000
4EFE0000
5EC40000
ENDCHAR
STARTCHAR asciitilde
ENCODING 126
SWIDTH 570 0
DWIDTH 9 0
BBX 9 3 0 4
BITMAP
09ED710250
4FCEFEBE70
43016CFA10
ENDCHAR
STARTCHAR nonbreakingspace
ENCODING 160
SWIDTH 259 0
DWIDTH 4 0
BBX 1 1 0 0
BITMAP
00
ENDCHAR
STARTCHAR exclamdown
ENCODING 161
SWIDTH 286 0
DWIDTH 5 0
BBX 4 12 0 -3
BITMAP
0BE5
1FF9
0692
0000
0AF4
0BF5
0CF5
0DF6
0EF7
0EF8
0FF8
1FF9
ENDCHAR
STARTCHAR cent
ENCODING 162
SWIDTH 570 0
DWIDTH 9 0
BBX 7 12 1 0
BITMAP
0009C000
02AEFEA0
2EFFEFC0
8FF30230
BFA00000
DF900000
CFA00000
8FF30150
2EFFFFD0
02AEFD80
0009C000
0009C000
ENDCHAR
STARTCHAR sterling
ENCODING 163
SWIDTH 570 0
DWIDTH 9 0
BBX 9 12 0 0
BITMAP
0007DFDA30
007FFFFF30
00CFA01400
00EF600000
00EF600000
5FFFFFF500
4BFFDBB400
00EF600000
01FF500000
08FB100000
5FFFFFFFC0
5FFFFFFFC0
ENDCHAR
STARTCHAR currency
ENCODING 164
SWIDTH 570 0
DWIDTH 9 0
BBX 8 8 1 1
BITMAP
9A6969B1
9FFFFFA0
5F816F70
7F200FA0
5F816F70
8FFFFFA0
AB6979B1
00000010
ENDCHAR
STARTCHAR yen
ENCODING 165
SWIDTH 570 0
DWIDTH 9 0
BBX 9 12 0 0
BITMAP
BFA0008FD0
5FF100EF70
0DF604FE10
07FC0AF900
01FF3FF200
00AFDFB000
003FFF4000
07FFFFF900
036BFC6400
07FFFFF900
036BFC6400
0008FA0000
ENDCHAR
STARTCHAR brokenbar
ENCODING 166
SWIDTH 550 0
DWIDTH 9 0
BBX 3 17 3 -4
BITMAP
7F40
7F40
7F40
7F40
7F40
7F40
7F40
0000
0000
0000
7F40
7F40
7F40
7F40
7F40
7F40
7F40
ENDCHAR
STARTCHAR section
ENCODING 167
SWIDTH 485 0
DWIDTH 8 0
BBX 7 13 0 0
BITMAP
02AEEC70
0CF99C90
0FE10000
0AFD5000
05FFFC20
0ED17FB0
0FC00DE0
0BFA3EC0
01AFFF40
0003BFB0
01000FE0
3EA8AFA0
19DFD910
ENDCHAR
STARTCHAR dieresis
ENCODING 168
SWIDTH 606 0
DWIDTH 10 0
BBX 6 3 2 10
BITMAP
010010
AF38F6
9E37E5
ENDCHAR
STARTCHAR copyright
ENCODING 169
SWIDTH 832 0
DWIDTH 13 0
BBX 13 12 0 0
BITMAP
00018DEDA30000
004EA4238E7000
02E62BEEA4E500
0A90BF98B04E00
0F23FA00000D50
2E05F700000A70
2E05F700000A70
0F23FA00000D50
0A90BF98B04E00
02E61AEEA2E600
004EA4238E7000
00018DEDA30000
ENDCHAR
STARTCHAR ordfeminine
ENCODING 170
SWIDTH 382 0
DWIDTH 6 0
BBX 6 6 0 6
BITMAP
2ADE90
0948F4
059BF6
7F75F7
9F49F7
3DE9B7
ENDCHAR
STARTCHAR guillemotleft
ENCODING 171
SWIDTH 615 0
DWIDTH 10 0
BBX 9 7 0 1
BITMAP
001C701C70
00BFB1CFB0
09FD1AFC10
3FF44FF400
09FD1AFC10
00BFB1BFB0
001C701C70
ENDCHAR
STARTCHAR logicalnot
ENCODING 172
SWIDTH 570 0
DWIDTH 9 0
BBX 9 5 0 2
BITMAP
5FFFFFFF70
3BBBBBCF70
0000004F70
0000004F70
0000004F70
ENDCHAR
STARTCHAR uni00AD
ENCODING 173
SWIDTH 321 0
DWIDTH 5 0
BBX 5 2 0 3
BITMAP
8FFFA0
7EEEA0
ENDCHAR
STARTCHAR registered
ENCODING 174
SWIDTH 832 0
DWIDTH 13 0
BBX 13 12 0 0
BITMAP
00018DEDA30000
004EA4238E7000
02E6BFFC43E500
0A90BF6ED04E00
0F20BF0CF00D50
2E00BF9FB00A70
2E00BFEF200A70
0F20BF5F800D50
0A90BF1DE14E00
02E6BF06FAE600
004EA4238E7000
00018DEDA30000
ENDCHAR
STARTCHAR overscore
ENCODING 175
SWIDTH 500 0
DWIDTH 8 0
BBX 10 2 -1 13
BITMAP
0999999990
1FFFFFFFF1
ENDCHAR
STARTCHAR degree
ENCODING 176
SWIDTH 428 0
DWIDTH 7 0
BBX 7 5 0 7
BITMAP
04CFB200
1EC8ED00
4F406F10
1EC8DD00
04CFC300
ENDCHAR
STARTCHAR plusminus
ENCODING 177
SWIDTH 570 0
DWIDTH 9 0
BBX 9 10 0 0
BITMAP
0004F60000
0004F60000
0004F60000
5FFFFFFF70
3BBCFDBB50
0004F60000
0004F60000
0003B50000
3BBBBBBB50
5FFFFFFF70
ENDCHAR
STARTCHAR twosuperior
ENCODING 178
SWIDTH 378 0
DWIDTH 6 0
BBX 6 7 0 5
BITMAP
2AEE80
4E9DF3
010BF3
005FA0
05FB10
5FF984
8FFFF7
ENDCHAR
STARTCHAR threesuperior
ENCODING 179
SWIDTH 378 0
DWIDTH 6 0
BBX 6 7 0 5
BITMAP
2AEE70
2B6CF2
000AE1
07FF50
024AF3
795AF5
4CFE90
ENDCHAR
STARTCHAR acute
ENCODING 180
SWIDTH 606 0
DWIDTH 10 0
BBX 5 3 2 10
BITMAP
00DFC0
08FC10
3FB100
ENDCHAR
STARTCHAR mu
ENCODING 181
SWIDTH 660 0
DWIDTH 11 0
BBX 9 13 1 -4
BITMAP
BFA001FF50
BFA001FF50
BFA001FF50
BFA001FF50
BFA001FF50
BFA003FF50
BFE10AFF50
BFFFFFEF50
BFCDE69F50
BF90000000
BFA0000000
BFA0000000
BFA0000000
ENDCHAR
STARTCHAR paragraph
ENCODING 182
SWIDTH 654 0
DWIDTH 10 0
BBX 10 14 0 -2
BITMAP
008DFFFFF2
09FFFFC9F2
0EFFFF82F2
1FFFFF82F2
1FFFFF82F2
0EFFFF82F2
09FFFF82F2
019DEE82F2
00000B82F2
00000B82F2
00000B82F2
00000B82F2
00000B82F2
00000B82F2
ENDCHAR
STARTCHAR periodcentered
ENCODING 183
SWIDTH 285 0
DWIDTH 5 0
BBX 4 3 0 4
BITMAP
0BE5
1FF9
0692
ENDCHAR
STARTCHAR cedilla
ENCODING 184
SWIDTH 205 0
DWIDTH 3 0
BBX 5 4 -1 -4
BITMAP
08F200
05EB10
25CF30
4EEA00
ENDCHAR
STARTCHAR onesuperior
ENCODING 185
SWIDTH 378 0
DWIDTH 6 0
BBX 5 7 0 5
BITMAP
008F80
1BFF80
096F80
004F80
004F80
004F80
004F80
ENDCHAR
STARTCHAR ordmasculine
ENCODING 186
SWIDTH 388 0
DWIDTH 6 0
BBX 6 6 0 6
BITMAP
07DE80
3F97F6
7F10DA
7F10DA
3F97F6
06DE90
ENDCHAR
STARTCHAR guillemotright
ENCODING 187
SWIDTH 615 0
DWIDTH 10 0
BBX 10 7 0 1
BITMAP
18B018A000
1CFA1DF900
02EF72EF70
006FF27FF1
02EF72EF60
1CF91DF900
18B018A000
ENDCHAR
STARTCHAR onequarter
ENCODING 188
SWIDTH 880 0
DWIDTH 14 0
BBX 14 12 0 0
BITMAP
02CF30006F7000
4EFF3001ED0000
29AF3007F60000
00AF301ED00000
00AF308F500000
00AF32EC02EF30
00AF39F40BEF30
00002FB08CAF30
0000AF34E3AF30
0003FA0AFFFFF2
000BF30355CF61
004FA00000AF30
ENDCHAR
STARTCHAR onehalf
ENCODING 189
SWIDTH 880 0
DWIDTH 14 0
BBX 14 12 0 0
BITMAP
02CF30006F7000
4EFF3001ED0000
29AF3007F60000
00AF301ED00000
00AF308F500000
00AF32EC3BEE70
00AF39F45E9EF2
00002FB0010CF2
0000AF30006F90
0003FA0006FA00
000BF3006FE983
004FA000AFFFF6
ENDCHAR
STARTCHAR threequarters
ENCODING 190
SWIDTH 880 0
DWIDTH 14 0
BBX 14 12 0 0
BITMAP
19DEA0000DE100
0A7AF6006F7000
0006F401DE1000
03FF9007F60000
0147F71ED00000
4A68F98F50CF60
2BEEB3EC08EF60
000009F44E8F60
00002FC1E67F60
0000AF47FFFFF6
0003FB02559F92
000AF300007F60
ENDCHAR
STARTCHAR questiondown
ENCODING 191
SWIDTH 477 0
DWIDTH 8 0
BBX 8 12 0 -3
BITMAP
0009E700
000DFC00
00049400
00000000
0008F900
001DF600
03DFB000
1EF90000
7FD00000
7FD10381
2EFFFFF7
03BEFD82
ENDCHAR
STARTCHAR Agrave
ENCODING 192
SWIDTH 689 0
DWIDTH 11 0
BBX 11 16 0 0
BITMAP
002EF9000000
0003EF400000
00002DE10000
000000000000
0002FFF30000
0007FFF80000
000CF9FD0000
002FF2EF3000
007FC0BF8000
00CF706FD000
02FF302FF300
07FFFFFFF800
0CFFFFFFFD00
2FF50004FF30
7FF10000EF80
DFB00000BFD0
ENDCHAR
STARTCHAR Aacute
ENCODING 193
SWIDTH 689 0
DWIDTH 11 0
BBX 11 16 0 0
BITMAP
000004FF7000
00001DF70000
00009F600000
000000000000
0002FFF30000
0007FFF80000
000CF9FD0000
002FF2EF3000
007FC0BF8000
00CF706FD000
02FF302FF300
07FFFFFFF800
0CFFFFFFFD00
2FF50004FF30
7FF10000EF80
DFB00000BFD0
ENDCHAR
STARTCHAR Acircumflex
ENCODING 194
SWIDTH 689 0
DWIDTH 11 0
BBX 11 16 0 0
BITMAP
0003FFF40000
001CF7FD1000
00AE404EA000
000000000000
0002FFF30000
0007FFF80000
000CF9FD0000
002FF2EF3000
007FC0BF8000
00CF706FD000
02FF302FF300
07FFFFFFF800
0CFFFFFFFD00
2FF50004FF30
7FF10000EF80
DFB00000BFD0
ENDCHAR
STARTCHAR Atilde
ENCODING 195
SWIDTH 689 0
DWIDTH 11 0
BBX 11 16 0 0
BITMAP
000AE608A000
006EBFBE6000
009906EA1000
000000000000
0002FFF30000
0007FFF80000
000CF9FD0000
002FF2EF3000
007FC0BF8000
00CF706FD000
02FF302FF300
07FFFFFFF800
0CFFFFFFFD00
2FF50004FF30
7FF10000EF80
DFB00000BFD0
ENDCHAR
STARTCHAR Adieresis
ENCODING 196
SWIDTH 689 0
DWIDTH 11 0
BBX 11 15 0 0
BITMAP
001ED0CE2000
001DC0BD1000
000000000000
0002FFF30000
0007FFF80000
000CF9FD0000
002FF2EF3000
007FC0BF8000
00CF706FD000
02FF302FF300
07FFFFFFF800
0CFFFFFFFD00
2FF50004FF30
7FF10000EF80
DFB00000BFD0
ENDCHAR
STARTCHAR Aring
ENCODING 197
SWIDTH 689 0
DWIDTH 11 0
BBX 11 15 0 0
BITMAP
00009D900000
0005E5E60000
0005D2D60000
0003FFF30000
0007FFF80000
000CF9FD0000
002FF2EF3000
007FC0BF8000
00CF706FD000
02FF302FF300
07FFFFFFF800
0CFFFFFFFD00
2FF50004FF30
7FF10000EF80
DFB00000BFD0
ENDCHAR
STARTCHAR AE
ENCODING 198
SWIDTH 952 0
DWIDTH 15 0
BBX 15 12 0 0
BITMAP
00002FFFFFFFFF40
00008FFFFFFFFF40
0000EF58FD000000
0006FD08FD000000
000CF808FD000000
003FF208FFFFFF00
00AFB008FFFFFF00
01FFFFFFFD000000
08FFFFFFFD000000
0EF70008FD000000
5FF10008FFFFFF40
CFA00008FFFFFF40
ENDCHAR
STARTCHAR Ccedilla
ENCODING 199
SWIDTH 637 0
DWIDTH 10 0
BBX 9 16 1 -4
BITMAP
004AEED930
07FFFFFF50
3FFB214910
AFE1000000
EF90000000
FF70000000
FF70000000
EF90000000
BFE0000000
5FFA312620
0AFFFFFF30
006CEED910
0005F50000
0003CC2000
0006AF7000
001EEB2000
ENDCHAR
STARTCHAR Egrave
ENCODING 200
SWIDTH 560 0
DWIDTH 9 0
BBX 7 16 1 0
BITMAP
0AFE1000
00AFA000
0009F500
00000000
8FFFFFF0
8FFFFFF0
8FD00000
8FD00000
8FD00000
8FFFFFB0
8FFFFFB0
8FD00000
8FD00000
8FD00000
8FFFFFF0
8FFFFFF0
ENDCHAR
STARTCHAR Eacute
ENCODING 201
SWIDTH 560 0
DWIDTH 9 0
BBX 7 16 1 0
BITMAP
0003FF80
000CF800
007F7000
00000000
8FFFFFF0
8FFFFFF0
8FD00000
8FD00000
8FD00000
8FFFFFB0
8FFFFFB0
8FD00000
8FD00000
8FD00000
8FFFFFF0
8FFFFFF0
ENDCHAR
STARTCHAR Ecircumflex
ENCODING 202
SWIDTH 560 0
DWIDTH 9 0
BBX 8 16 1 0
BITMAP
01DFF700
0AF8DF30
6F702DD1
00000000
8FFFFFF0
8FFFFFF0
8FD00000
8FD00000
8FD00000
8FFFFFB0
8FFFFFB0
8FD00000
8FD00000
8FD00000
8FFFFFF0
8FFFFFF0
ENDCHAR
STARTCHAR Edieresis
ENCODING 203
SWIDTH 560 0
DWIDTH 9 0
BBX 7 16 1 0
BITMAP
00100100
0BF38F50
0AE27E40
00000000
8FFFFFF0
8FFFFFF0
8FD00000
8FD00000
8FD00000
8FFFFFB0
8FFFFFB0
8FD00000
8FD00000
8FD00000
8FFFFFF0
8FFFFFF0
ENDCHAR
STARTCHAR Igrave
ENCODING 204
SWIDTH 331 0
DWIDTH 5 0
BBX 5 16 -1 0
BITMAP
3EF800
03EF30
003ED0
000000
008FD0
008FD0
008FD0
008FD0
008FD0
008FD0
008FD0
008FD0
008FD0
008FD0
008FD0
008FD0
ENDCHAR
STARTCHAR Iacute
ENCODING 205
SWIDTH 331 0
DWIDTH 5 0
BBX 5 16 1 0
BITMAP
03FF80
0CF800
8F7000
000000
8FD000
8FD000
8FD000
8FD000
8FD000
8FD000
8FD000
8FD000
8FD000
8FD000
8FD000
8FD000
ENDCHAR
STARTCHAR Icircumflex
ENCODING 206
SWIDTH 331 0
DWIDTH 5 0
BBX 7 16 -1 0
BITMAP
02EFF500
0BF7EE20
8F603EC0
00000000
008FD000
008FD000
008FD000
008FD000
008FD000
008FD000
008FD000
008FD000
008FD000
008FD000
008FD000
008FD000
ENDCHAR
STARTCHAR Idieresis
ENCODING 207
SWIDTH 331 0
DWIDTH 5 0
BBX 6 16 0 0
BITMAP
000010
DE1BF3
CD19E2
000000
08FD00
08FD00
08FD00
08FD00
08FD00
08FD00
08FD00
08FD00
08FD00
08FD00
08FD00
08FD00
ENDCHAR
STARTCHAR Eth
ENCODING 208
SWIDTH 740 0
DWIDTH 12 0
BBX 11 12 0 0
BITMAP
08FFFED92000
08FFFFFFE400
08FD004DFE20
08FD0003FF80
08FD0000CFC0
9FFFFB00AFD0
9FFFFB00AFD0
08FD0000CFB0
08FD0003FF70
08FD015EFE10
08FFFFFFE400
08FFFEC81000
ENDCHAR
STARTCHAR Ntilde
ENCODING 209
SWIDTH 812 0
DWIDTH 13 0
BBX 11 16 1 0
BITMAP
000AE608A000
006EBFBE6000
00A806EA0000
000000000000
8FFC00009F90
8FFF50009F90
8FFFD0009F90
8FAFF6009F90
8F89FE109F90
8F91EF809F90
8F908FF29F90
8F901EFA8F90
8F9006FFBF90
8F9000DFFF90
8F90005FFF90
8F90000CFF90
ENDCHAR
STARTCHAR Ograve
ENCODING 210
SWIDTH 795 0
DWIDTH 13 0
BBX 11 16 1 0
BITMAP
003EF7000000
0004EF300000
00003EC00000
000000000000
005BEFEA3000
09FFFFFFF500
5FFB314DFE10
BFE10004FF70
EFA00000EFA0
FF800000CFC0
FF800000CFC0
EFA00000EFA0
BFE10004FF70
4FFB314DFE10
08FFFFFFF500
005BEFEA3000
ENDCHAR
STARTCHAR Oacute
ENCODING 211
SWIDTH 795 0
DWIDTH 13 0
BBX 11 16 1 0
BITMAP
000005FF5000
00001EF60000
0000AF500000
000000000000
005BEFEA3000
09FFFFFFF500
5FFB314DFE10
BFE10004FF70
EFA00000EFA0
FF800000CFC0
FF800000CFC0
EFA00000EFA0
BFE10004FF70
4FFB314DFE10
08FFFFFFF500
005BEFEA3000
ENDCHAR
STARTCHAR Ocircumflex
ENCODING 212
SWIDTH 795 0
DWIDTH 13 0
BBX 11 16 1 0
BITMAP
0005FFE20000
002EE8FC0000
00CE306F8000
000000000000
005BEFEA3000
09FFFFFFF500
5FFB314DFE10
BFE10004FF70
EFA00000EFA0
FF800000CFC0
FF800000CFC0
EFA00000EFA0
BFE10004FF70
4FFB314DFE10
08FFFFFFF500
005BEFEA3000
ENDCHAR
STARTCHAR Otilde
ENCODING 213
SWIDTH 795 0
DWIDTH 13 0
BBX 11 16 1 0
BITMAP
001BD40A8000
008EBFAF4000
00B707E90000
000000000000
005BEFEA3000
09FFFFFFF500
5FFB314DFE10
BFE10004FF70
EFA00000EFA0
FF800000CFC0
FF800000CFC0
EFA00000EFA0
BFE10004FF70
4FFB314DFE10
08FFFFFFF500
005BEFEA3000
ENDCHAR
STARTCHAR Odieresis
ENCODING 214
SWIDTH 795 0
DWIDTH 13 0
BBX 11 16 1 0
BITMAP
000100000000
002FB1ED0000
002EA1DC0000
000000000000
005BEFEA3000
09FFFFFFF500
5FFB314DFE10
BFE10004FF70
EFA00000EFA0
FF800000CFC0
FF800000CFC0
EFA00000EFA0
BFE10004FF70
4FFB314DFE10
08FFFFFFF500
005BEFEA3000
ENDCHAR
STARTCHAR multiply
ENCODING 215
SWIDTH 570 0
DWIDTH 9 0
BBX 7 7 1 2
BITMAP
5B000970
9FB1AFB0
0AFEFB00
00DFE100
09FEFB00
9FB1AFA0
5B000970
ENDCHAR
STARTCHAR Oslash
ENCODING 216
SWIDTH 795 0
DWIDTH 13 0
BBX 11 14 1 -1
BITMAP
000000002100
005BEFD9DB00
09FFFFFFF700
5FFB317FFE10
BFE100DEFF70
EFA008F4DFA0
FF803FA0CFC0
FF80CE10CFC0
EF97F500EFA0
BFEFB004FF70
4FFF414DFE10
0BFFFFFFF500
1ECBEFEA3000
032000000000
ENDCHAR
STARTCHAR Ugrave
ENCODING 217
SWIDTH 755 0
DWIDTH 12 0
BBX 10 16 1 0
BITMAP
00BFD10000
001BF90000
0000AF4000
0000000000
AFC0000AFB
AFC0000AFB
AFC0000AFB
AFC0000AFB
AFC0000AFB
AFC0000AFB
AFC0000AFB
AFC0000BFB
8FE0000DFA
4FF9217FF5
0AFFFFFFB0
007CFEC700
ENDCHAR
STARTCHAR Uacute
ENCODING 218
SWIDTH 755 0
DWIDTH 12 0
BBX 10 16 1 0
BITMAP
00000BFD10
00006FD100
0002EC1000
0000000000
AFC0000AFB
AFC0000AFB
AFC0000AFB
AFC0000AFB
AFC0000AFB
AFC0000AFB
AFC0000AFB
AFC0000BFB
8FE0000DFA
4FF9217FF5
0AFFFFFFB0
007CFEC700
ENDCHAR
STARTCHAR Ucircumflex
ENCODING 219
SWIDTH 755 0
DWIDTH 12 0
BBX 10 16 1 0
BITMAP
000AFFB000
005FBAF700
02EB11AF40
0000000000
AFC0000AFB
AFC0000AFB
AFC0000AFB
AFC0000AFB
AFC0000AFB
AFC0000AFB
AFC0000AFB
AFC0000BFB
8FE0000DFA
4FF9217FF5
0AFFFFFFB0
007CFEC700
ENDCHAR
STARTCHAR Udieresis
ENCODING 220
SWIDTH 755 0
DWIDTH 12 0
BBX 10 16 1 0
BITMAP
0001001000
007F65F900
006E54E800
0000000000
AFC0000AFB
AFC0000AFB
AFC0000AFB
AFC0000AFB
AFC0000AFB
AFC0000AFB
AFC0000AFB
AFC0000BFB
8FE0000DFA
4FF9217FF5
0AFFFFFFB0
007CFEC700
ENDCHAR
STARTCHAR Yacute
ENCODING 221
SWIDTH 624 0
DWIDTH 10 0
BBX 10 16 0 0
BITMAP
00000DFC00
00008FC100
0003FB1000
0000000000
BFD0000DFB
3FF5005FF3
0BFC00CFA0
03FF55FF20
00AFCCF900
002FFFF200
0009FF9000
0003FF3000
0003FF3000
0003FF3000
0003FF3000
0003FF3000
ENDCHAR
STARTCHAR Thorn
ENCODING 222
SWIDTH 627 0
DWIDTH 10 0
BBX 9 12 1 0
BITMAP
8FD0000000
8FD0000000
8FFFFD8000
8FFFFFFA00
8FD01AFF20
8FD003FF40
8FD003FF40
8FD01AFF10
8FFEFFF900
8FFFFC7000
8FD0000000
8FD0000000
ENDCHAR
STARTCHAR germandbls
ENCODING 223
SWIDTH 710 0
DWIDTH 11 0
BBX 10 13 1 0
BITMAP
029DFEB400
2EFFDFFF60
9FE201DFB0
BFA000DF80
BFA01AFD10
BFA09FC100
BFA0CFC100
BFA06FFE40
BFA005EFF4
BFA0002DFA
BFA1200BFB
BFA2FCCFF7
BFA1BEED70
ENDCHAR
STARTCHAR agrave
ENCODING 224
SWIDTH 604 0
DWIDTH 10 0
BBX 9 13 0 0
BITMAP
01CFC00000
001CF70000
0001BF3000
0000000000
029DEEB300
03FECEFE10
004001EF50
018CEFFF70
0DFE86EF70
3FF400EF70
4FF305FF70
1EFECFEF70
04DFD65F70
ENDCHAR
STARTCHAR aacute
ENCODING 225
SWIDTH 604 0
DWIDTH 10 0
BBX 9 13 0 0
BITMAP
00001EFA00
0000AFA000
0005F90000
0000000000
029DEEB300
03FECEFE10
004001EF50
018CEFFF70
0DFE86EF70
3FF400EF70
4FF305FF70
1EFECFEF70
04DFD65F70
ENDCHAR
STARTCHAR acircumflex
ENCODING 226
SWIDTH 604 0
DWIDTH 10 0
BBX 9 13 0 0
BITMAP
001DFF7000
009F8DF300
06F802DD10
0000000000
029DEEB300
03FECEFE10
004001EF50
018CEFFF70
0DFE86EF70
3FF400EF70
4FF305FF70
1EFECFEF70
04DFD65F70
ENDCHAR
STARTCHAR atilde
ENCODING 227
SWIDTH 604 0
DWIDTH 10 0
BBX 9 13 0 0
BITMAP
005EA12F10
01EBEDCD00
03E02CD400
0000000000
029DEEB300
03FECEFE10
004001EF50
018CEFFF70
0DFE86EF70
3FF400EF70
4FF305FF70
1EFECFEF70
04DFD65F70
ENDCHAR
STARTCHAR adieresis
ENCODING 228
SWIDTH 604 0
DWIDTH 10 0
BBX 9 13 0 0
BITMAP
0001001000
009F47F600
008E36E600
0000000000
029DEEB300
03FECEFE10
004001EF50
018CEFFF70
0DFE86EF70
3FF400EF70
4FF305FF70
1EFECFEF70
04DFD65F70
ENDCHAR
STARTCHAR aring
ENCODING 229
SWIDTH 604 0
DWIDTH 10 0
BBX 9 14 0 0
BITMAP
0005ED4000
000E79C000
000E69C000
0006ED4000
0000000000
029DEEB300
03FECEFE10
004001EF50
018CEFFF70
0DFE86EF70
3FF400EF70
4FF305FF70
1EFECFEF70
04DFD65F70
ENDCHAR
STARTCHAR ae
ENCODING 230
SWIDTH 916 0
DWIDTH 15 0
BBX 14 9 0 0
BITMAP
029DED929DFC40
03FECEFFFDCFF3
003002FFC00AFA
029CEFFF7005FD
1DFE87FFFFFFFF
3FF402FFB99999
4FF307FFB00012
1EFECFCDFECDF7
04CFE9119EFEB4
ENDCHAR
STARTCHAR ccedilla
ENCODING 231
SWIDTH 514 0
DWIDTH 8 0
BBX 8 13 0 -4
BITMAP
005CEEC5
06FFFFF6
0EFB1041
3FF40000
4FF30000
3FF40000
1EFB1034
08FFFFF7
007DFEB3
0008F200
0005DB10
0025CF40
003EEA00
ENDCHAR
STARTCHAR egrave
ENCODING 232
SWIDTH 590 0
DWIDTH 9 0
BBX 9 13 0 0
BITMAP
00BFD00000
001BF80000
0001AF3000
0000000000
005CFEA200
06FFCDFD10
0EF901DF70
3FF4008FA0
4FFFFFFFB0
3FFA999970
0EF8000110
05FFECDF40
004BEFEA20
ENDCHAR
STARTCHAR eacute
ENCODING 233
SWIDTH 590 0
DWIDTH 9 0
BBX 9 13 0 0
BITMAP
00001EFB00
00009FB000
0005FA0000
0000000000
005CFEA200
06FFCDFD10
0EF901DF70
3FF4008FA0
4FFFFFFFB0
3FFA999970
0EF8000110
05FFECDF40
004BEFEA20
ENDCHAR
STARTCHAR ecircumflex
ENCODING 234
SWIDTH 590 0
DWIDTH 9 0
BBX 9 13 0 0
BITMAP
000CFF9000
007F9CF500
04FA01CE20
0000000000
005CFEA200
06FFCDFD10
0EF901DF70
3FF4008FA0
4FFFFFFFB0
3FFA999970
0EF8000110
05FFECDF40
004BEFEA20
ENDCHAR
STARTCHAR edieresis
ENCODING 235
SWIDTH 590 0
DWIDTH 9 0
BBX 9 13 0 0
BITMAP
0001001000
008F56F800
007E55E700
0000000000
005CFEA200
06FFCDFD10
0EF901DF70
3FF4008FA0
4FFFFFFFB0
3FFA999970
0EF8000110
05FFECDF40
004BEFEA20
ENDCHAR
STARTCHAR igrave
ENCODING 236
SWIDTH 305 0
DWIDTH 5 0
BBX 5 13 -1 0
BITMAP
7FF300
08FC00
007F80
000000
00BFA0
00BFA0
00BFA0
00BFA0
00BFA0
00BFA0
00BFA0
00BFA0
00BFA0
ENDCHAR
STARTCHAR iacute
ENCODING 237
SWIDTH 305 0
DWIDTH 5 0
BBX 5 13 1 0
BITMAP
05FF50
1EF600
AF5000
000000
BFA000
BFA000
BFA000
BFA000
BFA000
BFA000
BFA000
BFA000
BFA000
ENDCHAR
STARTCHAR icircumflex
ENCODING 238
SWIDTH 305 0
DWIDTH 5 0
BBX 7 13 -1 0
BITMAP
04FFF300
1DE7FC10
BE405F90
00000000
00BFA000
00BFA000
00BFA000
00BFA000
00BFA000
00BFA000
00BFA000
00BFA000
00BFA000
ENDCHAR
STARTCHAR idieresis
ENCODING 239
SWIDTH 305 0
DWIDTH 5 0
BBX 7 13 -1 0
BITMAP
01000000
2EC0DE10
1EB0CD10
00000000
00BFA000
00BFA000
00BFA000
00BFA000
00BFA000
00BFA000
00BFA000
00BFA000
00BFA000
ENDCHAR
STARTCHAR eth
ENCODING 240
SWIDTH 619 0
DWIDTH 10 0
BBX 10 13 0 0
BITMAP
000A705800
001CFEFB00
0008FFF200
002FAAFC00
000201DF60
007DFDCFB0
09FFDDFFF0
1FF8009FF2
4FF3004FF2
4FF3005FF1
1FF900AFC0
07FFDDFF40
006CFEB300
ENDCHAR
STARTCHAR ntilde
ENCODING 241
SWIDTH 657 0
DWIDTH 11 0
BBX 9 13 1 0
BITMAP
02CD30C600
0ADCFAF300
0D509E7000
0000000000
BF39EEB300
BFEFEFFD00
BFF406FF30
BFC001FF50
BFA001FF50
BFA001FF50
BFA001FF50
BFA001FF50
BFA001FF50
ENDCHAR
STARTCHAR ograve
ENCODING 242
SWIDTH 619 0
DWIDTH 10 0
BBX 10 13 0 0
BITMAP
01CFC00000
001CF70000
0001BF3000
0000000000
005CEEB300
06FFFFFF40
0EFB11CFC0
3FF4005FF1
4FF3004FF2
3FF4005FF1
0DFB11CFD0
05FFFFFF40
004BEEB400
ENDCHAR
STARTCHAR oacute
ENCODING 243
SWIDTH 619 0
DWIDTH 10 0
BBX 10 13 0 0
BITMAP
00000CFC10
00007FC100
0003FB1000
0000000000
005CEEB300
06FFFFFF40
0EFB11CFC0
3FF4005FF1
4FF3004FF2
3FF4005FF1
0DFB11CFD0
05FFFFFF40
004BEEB400
ENDCHAR
STARTCHAR ocircumflex
ENCODING 244
SWIDTH 619 0
DWIDTH 10 0
BBX 10 13 0 0
BITMAP
000BFFA000
007FACF500
04FA01BE20
0000000000
005CEEB300
06FFFFFF40
0EFB11CFC0
3FF4005FF1
4FF3004FF2
3FF4005FF1
0DFB11CFD0
05FFFFFF40
004BEEB400
ENDCHAR
STARTCHAR otilde
ENCODING 245
SWIDTH 619 0
DWIDTH 10 0
BBX 10 13 0 0
BITMAP
005EA11F20
00EBEDCD00
03E12BD400
0000000000
005CEEB300
06FFFFFF40
0EFB11CFC0
3FF4005FF1
4FF3004FF2
3FF4005FF1
0DFB11CFD0
05FFFFFF40
004BEEB400
ENDCHAR
STARTCHAR odieresis
ENCODING 246
SWIDTH 619 0
DWIDTH 10 0
BBX 10 13 0 0
BITMAP
0001001000
008F56F700
007E45E600
0000000000
005CEEB300
06FFFFFF40
0EFB11CFC0
3FF4005FF1
4FF3004FF2
3FF4005FF1
0DFB11CFD0
05FFFFFF40
004BEEB400
ENDCHAR
STARTCHAR divide
ENCODING 247
SWIDTH 570 0
DWIDTH 9 0
BBX 9 8 0 2
BITMAP
0005E60000
0007F90000
0001510000
5FFFFFFF70
3BBBBBBB50
0005E60000
0007F90000
0000510000
ENDCHAR
STARTCHAR oslash
ENCODING 248
SWIDTH 619 0
DWIDTH 10 0
BBX 10 11 0 -1
BITMAP
0000000100
005CEEBE40
06FFFFFF50
0EFB18FFC0
3FF43FDFF1
4FF3CD5FF3
3FFCF46FF1
0EFF91CFD0
06FFFFFF40
06FCEEB400
0030000000
ENDCHAR
STARTCHAR ugrave
ENCODING 249
SWIDTH 657 0
DWIDTH 11 0
BBX 9 13 1 0
BITMAP
0BFD000000
01BF800000
001AF30000
0000000000
CF9002FF40
CF9002FF40
CF9002FF40
CF9002FF40
CF9002FF40
CF9004FF40
AFD10AFF40
6FFFFFEF40
08DFC4AF40
ENDCHAR
STARTCHAR uacute
ENCODING 250
SWIDTH 657 0
DWIDTH 11 0
BBX 9 13 1 0
BITMAP
00009FE200
0004FE3000
001DD30000
0000000000
CF9002FF40
CF9002FF40
CF9002FF40
CF9002FF40
CF9002FF40
CF9004FF40
AFD10AFF40
6FFFFFEF40
08DFC4AF40
ENDCHAR
STARTCHAR ucircumflex
ENCODING 251
SWIDTH 657 0
DWIDTH 11 0
BBX 9 13 1 0
BITMAP
007FFD1000
03FD8FA000
1DD208F600
0000000000
CF9002FF40
CF9002FF40
CF9002FF40
CF9002FF40
CF9002FF40
CF9004FF40
AFD10AFF40
6FFFFFEF40
08DFC4AF40
ENDCHAR
STARTCHAR udieresis
ENCODING 252
SWIDTH 657 0
DWIDTH 11 0
BBX 9 13 1 0
BITMAP
0010000000
04F93EB000
04E82DA000
0000000000
CF9002FF40
CF9002FF40
CF9002FF40
CF9002FF40
CF9002FF40
CF9004FF40
AFD10AFF40
6FFFFFEF40
08DFC4AF40
ENDCHAR
STARTCHAR yacute
ENCODING 253
SWIDTH 568 0
DWIDTH 9 0
BBX 9 17 0 -4
BITMAP
00006FF500
0002EF5000
000BE40000
0000000000
CFC0009FE0
6FF100EF80
1FF604FF30
0AFB08FD00
04FF1DF700
00DF7FF200
007FDFB000
002FFF6000
000BFF1000
000BFA0000
005FF40000
7EFFA00000
6FD8000000
ENDCHAR
STARTCHAR thorn
ENCODING 254
SWIDTH 632 0
DWIDTH 10 0
BBX 9 17 1 -4
BITMAP
BFA0000000
BFA0000000
BFA0000000
BFA0000000
BF98EEA100
BFEFEFFA00
BFE308FF20
BFB002FF40
BFA001FF60
BFB002FF40
BFF308FF20
BFFFFFFA00
BFA9EEA100
BFA0000000
BFA0000000
BFA0000000
BFA0000000
ENDCHAR
STARTCHAR ydieresis
ENCODING 255
SWIDTH 568 0
DWIDTH 9 0
BBX 9 17 0 -4
BITMAP
0000001000
00ED0CE200
00DD0AE200
0000000000
CFC0009FE0
6FF100EF80
1FF604FF30
0AFB08FD00
04FF1DF700
00DF7FF200
007FDFB000
002FFF6000
000BFF1000
000BFA0000
005FF40000
7EFFA00000
6FD8000000
ENDCHAR
STARTCHAR Amacron
ENCODING 256
SWIDTH 689 0
DWIDTH 11 0
BBX 11 15 0 0
BITMAP
001AAAAA2000
001FFFFF3000
000000000000
0002FFF30000
0007FFF80000
000CF9FD0000
002FF2EF3000
007FC0BF8000
00CF706FD000
02FF302FF300
07FFFFFFF800
0CFFFFFFFD00
2FF50004FF30
7FF10000EF80
DFB00000BFD0
ENDCHAR
STARTCHAR amacron
ENCODING 257
SWIDTH 604 0
DWIDTH 10 0
BBX 9 12 0 0
BITMAP
007AAAA600
00BFFFF900
0000000000
029DEEB300
03FECEFE10
004001EF50
018CEFFF70
0DFE86EF70
3FF400EF70
4FF305FF70
1EFECFEF70
04DFD65F70
ENDCHAR
STARTCHAR Abreve
ENCODING 258
SWIDTH 689 0
DWIDTH 11 0
BBX 11 16 0 0
BITMAP
007E001E7000
002FDADE2000
0005CEC40000
000000000000
0002FFF30000
0007FFF80000
000CF9FD0000
002FF2EF3000
007FC0BF8000
00CF706FD000
02FF302FF300
07FFFFFFF800
0CFFFFFFFD00
2FF50004FF30
7FF10000EF80
DFB00000BFD0
ENDCHAR
STARTCHAR abreve
ENCODING 259
SWIDTH 604 0
DWIDTH 10 0
BBX 9 13 0 0
BITMAP
01F5008D00
00BEABF800
001AEE8000
0000000000
029DEEB300
03FECEFE10
004001EF50
018CEFFF70
0DFE86EF70
3FF400EF70
4FF305FF70
1EFECFEF70
04DFD65F70
ENDCHAR
STARTCHAR Aogonek
ENCODING 260
SWIDTH 689 0
DWIDTH 11 0
BBX 11 16 0 -4
BITMAP
0002FFF30000
0007FFF80000
000CF9FD0000
002FF2EF3000
007FC0BF8000
00CF706FD000
02FF302FF300
07FFFFFFF800
0CFFFFFFFD00
2FF50004FF30
7FF10000EF80
DFB00000BFD0
00000003E600
0000000CC000
0000000DE720
00000005EE30
ENDCHAR
STARTCHAR aogonek
ENCODING 261
SWIDTH 604 0
DWIDTH 10 0
BBX 9 13 0 -4
BITMAP
029DEEB300
03FECEFE10
004001EF50
018CEFFF70
0DFE86EF70
3FF400EF70
4FF305FF70
1EFECFEF70
04DFD65F70
000000BC00
000006F300
000008F950
000002CE80
ENDCHAR
STARTCHAR Cacute
ENCODING 262
SWIDTH 637 0
DWIDTH 10 0
BBX 9 16 1 0
BITMAP
00000CFC10
00007FC100
0002FC1000
0000000000
004AEED930
07FFFFFF50
3FFB214910
AFE1000000
EF90000000
FF70000000
FF70000000
EF90000000
BFE0000000
5FFA312620
0AFFFFFF30
006CEED910
ENDCHAR
STARTCHAR cacute
ENCODING 263
SWIDTH 514 0
DWIDTH 8 0
BBX 8 13 0 0
BITMAP
00001EFA
0000AFA0
0005F900
00000000
005CEEC5
06FFFFF6
0EFB1041
3FF40000
4FF30000
3FF40000
1EFB1034
08FFFFF7
007DFEB3
ENDCHAR
STARTCHAR Ccircumflex
ENCODING 264
SWIDTH 637 0
DWIDTH 10 0
BBX 9 16 1 0
BITMAP
0008FFD000
004FC9F900
01EC109F50
0000000000
004AEED930
07FFFFFF50
3FFB214910
AFE1000000
EF90000000
FF70000000
FF70000000
EF90000000
BFE0000000
5FFA312620
0AFFFFFF30
006CEED910
ENDCHAR
STARTCHAR ccircumflex
ENCODING 265
SWIDTH 514 0
DWIDTH 8 0
BBX 8 13 0 0
BITMAP
001EFF60
00AF8EE2
07F703DD
00000000
005CEEC5
06FFFFF6
0EFB1041
3FF40000
4FF30000
3FF40000
1EFB1034
08FFFFF7
007DFEB3
ENDCHAR
STARTCHAR Cdot
ENCODING 266
SWIDTH 637 0
DWIDTH 10 0
BBX 9 16 1 0
BITMAP
0000340000
0001FF6000
0000CE3000
0000000000
004AEED930
07FFFFFF50
3FFB214910
AFE1000000
EF90000000
FF70000000
FF70000000
EF90000000
BFE0000000
5FFA312620
0AFFFFFF30
006CEED910
ENDCHAR
STARTCHAR cdot
ENCODING 267
SWIDTH 514 0
DWIDTH 8 0
BBX 8 13 0 0
BITMAP
00004300
0004FF20
0003ED10
00000000
005CEEC5
06FFFFF6
0EFB1041
3FF40000
4FF30000
3FF40000
1EFB1034
08FFFFF7
007DFEB3
ENDCHAR
STARTCHAR Ccaron
ENCODING 268
SWIDTH 637 0
DWIDTH 10 0
BBX 9 16 1 0
BITMAP
01EC208F60
003FD9F900
0008FFD100
0000000000
004AEED930
07FFFFFF50
3FFB214910
AFE1000000
EF90000000
FF70000000
FF70000000
EF90000000
BFE0000000
5FFA312620
0AFFFFFF30
006CEED910
ENDCHAR
STARTCHAR ccaron
ENCODING 269
SWIDTH 514 0
DWIDTH 8 0
BBX 9 13 0 0
BITMAP
05F901CE20
008F9DF400
000DFF8000
0000000000
005CEEC500
06FFFFF600
0EFB104100
3FF4000000
4FF3000000
3FF4000000
1EFB103400
08FFFFF700
007DFEB300
ENDCHAR
STARTCHAR Dcaron
ENCODING 270
SWIDTH 740 0
DWIDTH 12 0
BBX 10 16 1 0
BITMAP
08F603EC00
00BF7EE200
002EFF6000
0000000000
8FFFED9200
8FFFFFFE40
8FD014DFE2
8FD0002FF8
8FD0000CFC
8FD0000AFD
8FD0000AFD
8FD0000CFB
8FD0003FF7
8FD015EFE1
8FFFFFFE40
8FFFEC8100
ENDCHAR
STARTCHAR dcaron
ENCODING 271
SWIDTH 632 0
DWIDTH 10 0
BBX 13 13 0 0
BITMAP
0000008FD0FF20
0000008FD3F900
0000008FD38100
0000007FD00000
008EEA7FD00000
08FFFFEFD00000
0EFB12DFD00000
2FF4007FD00000
4FF2005FD00000
3FF4007FD00000
1EFA01CFD00000
08FFFFEFD00000
009EE93FD00000
ENDCHAR
STARTCHAR Dcroat
ENCODING 272
SWIDTH 740 0
DWIDTH 12 0
BBX 11 12 0 0
BITMAP
08FFFED92000
08FFFFFFE400
08FD004DFE20
08FD0003FF80
08FD0000CFC0
9FFFFB00AFD0
9FFFFB00AFD0
08FD0000CFB0
08FD0003FF70
08FD015EFE10
08FFFFFFE400
08FFFEC81000
ENDCHAR
STARTCHAR dcroat
ENCODING 273
SWIDTH 648 0
DWIDTH 10 0
BBX 11 13 0 0
BITMAP
0000008FD000
0000FFFFFF10
000088CFE810
0000007FD000
01AEE97FD000
0BFFFFEFD000
1FFB01CFD000
3FF6007FD000
4FF5005FD000
3FF6006FD000
1EFC11CFD000
08FFFFDFD000
019EE84FD000
ENDCHAR
STARTCHAR Emacron
ENCODING 274
SWIDTH 560 0
DWIDTH 9 0
BBX 7 15 1 0
BITMAP
08AAAA40
0DFFFF70
00000000
8FFFFFF0
8FFFFFF0
8FD00000
8FD00000
8FD00000
8FFFFFB0
8FFFFFB0
8FD00000
8FD00000
8FD00000
8FFFFFF0
8FFFFFF0
ENDCHAR
STARTCHAR emacron
ENCODING 275
SWIDTH 590 0
DWIDTH 9 0
BBX 9 12 0 0
BITMAP
008AAAA400
00CFFFF700
0000000000
005CFEA200
06FFCDFD10
0EF901DF70
3FF4008FA0
4FFFFFFFB0
3FFA999970
0EF8000110
05FFECDF40
004BEFEA20
ENDCHAR
STARTCHAR Ebreve
ENCODING 276
SWIDTH 560 0
DWIDTH 9 0
BBX 7 16 1 0
BITMAP
4F100CA0
1EDACF40
03CED500
00000000
8FFFFFF0
8FFFFFF0
8FD00000
8FD00000
8FD00000
8FFFFFB0
8FFFFFB0
8FD00000
8FD00000
8FD00000
8FFFFFF0
8FFFFFF0
ENDCHAR
STARTCHAR ebreve
ENCODING 277
SWIDTH 590 0
DWIDTH 9 0
BBX 9 13 0 0
BITMAP
02F4009C00
00CEACF700
002BED7000
0000000000
005CFEA200
06FFCDFD10
0EF901DF70
3FF4008FA0
4FFFFFFFB0
3FFA999970
0EF8000110
05FFECDF40
004BEFEA20
ENDCHAR
STARTCHAR Edotaccent
ENCODING 278
SWIDTH 560 0
DWIDTH 9 0
BBX 7 16 1 0
BITMAP
00043000
006FF100
004EC000
00000000
8FFFFFF0
8FFFFFF0
8FD00000
8FD00000
8FD00000
8FFFFFB0
8FFFFFB0
8FD00000
8FD00000
8FD00000
8FFFFFF0
8FFFFFF0
ENDCHAR
STARTCHAR edotaccent
ENCODING 279
SWIDTH 590 0
DWIDTH 9 0
BBX 9 13 0 0
BITMAP
0000430000
0004FF2000
0002ED1000
0000000000
005CFEA200
06FFCDFD10
0EF901DF70
3FF4008FA0
4FFFFFFFB0
3FFA999970
0EF8000110
05FFECDF40
004BEFEA20
ENDCHAR
STARTCHAR Eogonek
ENCODING 280
SWIDTH 560 0
DWIDTH 9 0
BBX 7 16 1 -4
BITMAP
8FFFFFF0
8FFFFFF0
8FD00000
8FD00000
8FD00000
8FFFFFB0
8FFFFFB0
8FD00000
8FD00000
8FD00000
8FFFFFF0
8FFFFFF0
0000AC10
0005F400
0006F950
0001BE90
ENDCHAR
STARTCHAR eogonek
ENCODING 281
SWIDTH 590 0
DWIDTH 9 0
BBX 9 13 0 -4
BITMAP
005CFEA200
06FFCDFD10
0EF901DF70
3FF4008FA0
4FFFFFFFB0
3FFA999970
0EF8000110
05FFECDF40
004BEFEA20
000008D100
00004F5000
00005FA600
00000BEA00
ENDCHAR
STARTCHAR Ecaron
ENCODING 282
SWIDTH 560 0
DWIDTH 9 0
BBX 8 16 1 0
BITMAP
6F702DD1
0AF8DF30
01DFF700
00000000
8FFFFFF0
8FFFFFF0
8FD00000
8FD00000
8FD00000
8FFFFFB0
8FFFFFB0
8FD00000
8FD00000
8FD00000
8FFFFFF0
8FFFFFF0
ENDCHAR
STARTCHAR ecaron
ENCODING 283
SWIDTH 590 0
DWIDTH 9 0
BBX 9 13 0 0
BITMAP
05F901CE20
008F9CF400
000CFF9000
0000000000
005CFEA200
06FFCDFD10
0EF901DF70
3FF4008FA0
4FFFFFFFB0
3FFA999970
0EF8000110
05FFECDF40
004BEFEA20
ENDCHAR
STARTCHAR Gcircumflex
ENCODING 284
SWIDTH 724 0
DWIDTH 12 0
BBX 10 16 1 0
BITMAP
0006FFE100
002ED8FA00
00DD207F70
0000000000
0029DFEC81
06FFFFFFE1
3FFD511450
AFF2000000
EFA0000000
FF703FFFF5
FF703FFFF5
EF90001FF5
BFE1001FF5
5FFB213FF5
09FFFFFFF5
005BEFEC82
ENDCHAR
STARTCHAR gcircumflex
ENCODING 285
SWIDTH 564 0
DWIDTH 9 0
BBX 9 17 0 -4
BITMAP
002FFF4000
00CF7FD100
09F504EB00
0000000000
02ADFFFFD0
0DFB8EFC40
3FF107FC00
3FF107FC00
0DFB8EF600
03FFEC6000
0CF2000000
0BFFEEC800
19FFFFFF70
BF70019FB0
EF30009F90
AFE99CFE20
18DFFD9200
ENDCHAR
STARTCHAR Gbreve
ENCODING 286
SWIDTH 724 0
DWIDTH 12 0
BBX 10 16 1 0
BITMAP
00AB002F40
005FCAED10
0007DEB200
0000000000
0029DFEC81
06FFFFFFE1
3FFD511450
AFF2000000
EFA0000000
FF703FFFF5
FF703FFFF5
EF90001FF5
BFE1001FF5
5FFB213FF5
09FFFFFFF5
005BEFEC82
ENDCHAR
STARTCHAR gbreve
ENCODING 287
SWIDTH 564 0
DWIDTH 9 0
BBX 9 17 0 -4
BITMAP
05F100D900
01EDADF300
004CEC5000
0000000000
02ADFFFFD0
0DFB8EFC40
3FF107FC00
3FF107FC00
0DFB8EF600
03FFEC6000
0CF2000000
0BFFEEC800
19FFFFFF70
BF70019FB0
EF30009F90
AFE99CFE20
18DFFD9200
ENDCHAR
STARTCHAR Gdot
ENCODING 288
SWIDTH 724 0
DWIDTH 12 0
BBX 10 16 1 0
BITMAP
0000141000
0000CFA000
00009F7000
0000000000
0029DFEC81
06FFFFFFE1
3FFD511450
AFF2000000
EFA0000000
FF703FFFF5
FF703FFFF5
EF90001FF5
BFE1001FF5
5FFB213FF5
09FFFFFFF5
005BEFEC82
ENDCHAR
STARTCHAR gdot
ENCODING 289
SWIDTH 564 0
DWIDTH 9 0
BBX 9 17 0 -4
BITMAP
0001410000
000AFB0000
0008F80000
0000000000
02ADFFFFD0
0DFB8EFC40
3FF107FC00
3FF107FC00
0DFB8EF600
03FFEC6000
0CF2000000
0BFFEEC800
19FFFFFF70
BF70019FB0
EF30009F90
AFE99CFE20
18DFFD9200
ENDCHAR
STARTCHAR Gcommaaccent
ENCODING 290
SWIDTH 724 0
DWIDTH 12 0
BBX 10 16 1 -4
BITMAP
0029DFEC81
06FFFFFFE1
3FFD511450
AFF2000000
EFA0000000
FF703FFFF5
FF703FFFF5
EF90001FF5
BFE1001FF5
5FFB213FF5
09FFFFFFF5
005BEFEC82
0000000000
0000AF7000
0000CE1000
0000F80000
ENDCHAR
STARTCHAR gcommaaccent
ENCODING 291
SWIDTH 564 0
DWIDTH 9 0
BBX 9 17 0 -4
BITMAP
0000AE0000
0002FB0000
0008F90000
0000000000
02ADFFFFD0
0DFB8EFC40
3FF107FC00
3FF107FC00
0DFB8EF600
03FFEC6000
0CF2000000
0BFFEEC800
19FFFFFF70
BF70019FB0
EF30009F90
AFE99CFE20
18DFFD9200
ENDCHAR
STARTCHAR Hcircumflex
ENCODING 292
SWIDTH 765 0
DWIDTH 12 0
BBX 10 16 1 0
BITMAP
0009FFC000
005FCAF800
02EC10AF40
0000000000
8FD00009FC
8FD00009FC
8FD00009FC
8FD00009FC
8FD00009FC
8FFFFFFFFC
8FFFFFFFFC
8FD00009FC
8FD00009FC
8FD00009FC
8FD00009FC
8FD00009FC
ENDCHAR
STARTCHAR hcircumflex
ENCODING 293
SWIDTH 657 0
DWIDTH 11 0
BBX 9 17 1 0
BITMAP
007FFE1000
03ED8FA000
1DD207F700
0000000000
BFA0000000
BFA0000000
BFA0000000
BF90000000
BF98EEB300
BFEFEFFD00
BFF406FF30
BFC001FF50
BFA001FF50
BFA001FF50
BFA001FF50
BFA001FF50
BFA001FF50
ENDCHAR
STARTCHAR Hbar
ENCODING 294
SWIDTH 765 0
DWIDTH 12 0
BBX 13 12 0 0
BITMAP
08FD00009FC000
08FD00009FC000
FFFFFFFFFFFF40
8CFE8888CFE820
08FD00009FC000
08FFFFFFFFC000
08FFFFFFFFC000
08FD00009FC000
08FD00009FC000
08FD00009FC000
08FD00009FC000
08FD00009FC000
ENDCHAR
STARTCHAR hbar
ENCODING 295
SWIDTH 657 0
DWIDTH 11 0
BBX 10 13 0 0
BITMAP
0BFA000000
FFFFFF1000
8DFD881000
0BF9000000
0BF98EEB20
0BFEFEFFD0
0BFF507FF3
0BFC002FF4
0BFA001FF5
0BFA001FF5
0BFA001FF5
0BFA001FF5
0BFA001FF5
ENDCHAR
STARTCHAR Itilde
ENCODING 296
SWIDTH 331 0
DWIDTH 5 0
BBX 7 16 -1 0
BITMAP
09E706C0
4FAFCD80
7B04DB10
00000000
008FD000
008FD000
008FD000
008FD000
008FD000
008FD000
008FD000
008FD000
008FD000
008FD000
008FD000
008FD000
ENDCHAR
STARTCHAR itilde
ENCODING 297
SWIDTH 305 0
DWIDTH 5 0
BBX 7 13 -1 0
BITMAP
1BE50990
7EBFBE50
B706EA00
00000000
00BFA000
00BFA000
00BFA000
00BFA000
00BFA000
00BFA000
00BFA000
00BFA000
00BFA000
ENDCHAR
STARTCHAR Imacron
ENCODING 298
SWIDTH 331 0
DWIDTH 5 0
BBX 6 15 0 0
BITMAP
9AAAA3
FFFFF5
000000
08FD00
08FD00
08FD00
08FD00
08FD00
08FD00
08FD00
08FD00
08FD00
08FD00
08FD00
08FD00
ENDCHAR
STARTCHAR imacron
ENCODING 299
SWIDTH 305 0
DWIDTH 5 0
BBX 7 12 -1 0
BITMAP
2AAAAA10
3FFFFF20
00000000
00BFA000
00BFA000
00BFA000
00BFA000
00BFA000
00BFA000
00BFA000
00BFA000
00BFA000
ENDCHAR
STARTCHAR Ibreve
ENCODING 300
SWIDTH 331 0
DWIDTH 5 0
BBX 7 16 -1 0
BITMAP
5F100C90
1EDACF40
03CED500
00000000
008FD000
008FD000
008FD000
008FD000
008FD000
008FD000
008FD000
008FD000
008FD000
008FD000
008FD000
008FD000
ENDCHAR
STARTCHAR ibreve
ENCODING 301
SWIDTH 305 0
DWIDTH 5 0
BBX 7 13 -1 0
BITMAP
8D001E60
3FCADE10
05DEC300
00000000
00BFA000
00BFA000
00BFA000
00BFA000
00BFA000
00BFA000
00BFA000
00BFA000
00BFA000
ENDCHAR
STARTCHAR Iogonek
ENCODING 302
SWIDTH 331 0
DWIDTH 5 0
BBX 4 16 0 -4
BITMAP
08FD
08FD
08FD
08FD
08FD
08FD
08FD
08FD
08FD
08FD
08FD
08FD
05E4
1E90
1FC7
07EE
ENDCHAR
STARTCHAR iogonek
ENCODING 303
SWIDTH 305 0
DWIDTH 5 0
BBX 4 17 0 -4
BITMAP
09F7
0BFA
0151
0000
0BFA
0BFA
0BFA
0BFA
0BFA
0BFA
0BFA
0BFA
0BFA
1BB0
8F20
9F84
2CE7
ENDCHAR
STARTCHAR Idotaccent
ENCODING 304
SWIDTH 331 0
DWIDTH 5 0
BBX 3 16 1 0
BITMAP
1420
8FD0
6EA0
0000
8FD0
8FD0
8FD0
8FD0
8FD0
8FD0
8FD0
8FD0
8FD0
8FD0
8FD0
8FD0
ENDCHAR
STARTCHAR dotlessi
ENCODING 305
SWIDTH 305 0
DWIDTH 5 0
BBX 3 9 1 0
BITMAP
BFA0
BFA0
BFA0
BFA0
BFA0
BFA0
BFA0
BFA0
BFA0
ENDCHAR
STARTCHAR IJ
ENCODING 306
SWIDTH 720 0
DWIDTH 12 0
BBX 10 15 1 -3
BITMAP
8FD0005FF1
8FD0005FF1
8FD0005FF1
8FD0005FF1
8FD0005FF1
8FD0005FF1
8FD0005FF1
8FD0005FF1
8FD0005FF1
8FD0005FF1
8FD0005FF1
8FD0006FF0
000021BFD0
0000EFFF60
0000DFD700
ENDCHAR
STARTCHAR ij
ENCODING 307
SWIDTH 590 0
DWIDTH 9 0
BBX 8 17 1 -4
BITMAP
9F701DE2
BFA03FF4
15100340
00000000
BFA03FF3
BFA03FF3
BFA03FF3
BFA03FF3
BFA03FF3
BFA03FF3
BFA03FF3
BFA03FF3
BFA03FF3
00003FF3
00006FF2
007EFFD0
006EEB20
ENDCHAR
STARTCHAR Jcircumflex
ENCODING 308
SWIDTH 331 0
DWIDTH 5 0
BBX 8 19 -2 -3
BITMAP
001EFF60
00BF8EE2
07F603DC
00000000
0008FD00
0008FD00
0008FD00
0008FD00
0008FD00
0008FD00
0008FD00
0008FD00
0008FD00
0008FD00
0008FD00
0009FC00
013EF900
3FFFF300
2EFC5000
ENDCHAR
STARTCHAR jcircumflex
ENCODING 309
SWIDTH 305 0
DWIDTH 5 0
BBX 7 17 -1 -4
BITMAP
04FFF200
1DE7FC00
BE306F90
00000000
00BFA000
00BFA000
00BFA000
00BFA000
00BFA000
00BFA000
00BFA000
00BFA000
00BFA000
00BFA000
01EF8000
FFFF4000
EFD60000
ENDCHAR
STARTCHAR Kcommaaccent
ENCODING 310
SWIDTH 664 0
DWIDTH 11 0
BBX 10 16 1 -4
BITMAP
8FD0007FF3
8FD004FF70
8FD01EFB00
8FD0BFD100
8FD7FF3000
8FEFFC0000
8FFFFF5000
8FE3BFD100
8FD03FF800
8FD009FF20
8FD001EFB0
8FD0006FF5
0000000000
0009F70000
000CE10000
000F900000
ENDCHAR
STARTCHAR kcommaaccent
ENCODING 311
SWIDTH 620 0
DWIDTH 10 0
BBX 9 17 1 -4
BITMAP
BFA0000000
BFA0000000
BFA0000000
BFA0000000
BFA006FF40
BFA05FF600
BF93FF7000
BFAEF90000
BFFFFA0000
BFF8FF6000
BFA08FE200
BFA00CFC00
BFA003FF80
0000000000
000EF30000
001FB00000
004F400000
ENDCHAR
STARTCHAR kgreenlandic
ENCODING 312
SWIDTH 620 0
DWIDTH 10 0
BBX 9 9 1 0
BITMAP
BFA004FF50
BFA02EF700
BFA1DF9000
BF9BFB0000
BFEFF90000
BFFBFF5000
BFA08FE200
BFA00CFC00
BFA003FF80
ENDCHAR
STARTCHAR Lacute
ENCODING 313
SWIDTH 564 0
DWIDTH 9 0
BBX 8 16 1 0
BITMAP
006FF500
02EF5000
0BE40000
00000000
8FD00000
8FD00000
8FD00000
8FD00000
8FD00000
8FD00000
8FD00000
8FD00000
8FD00000
8FD00000
8FFFFFF8
8FFFFFF8
ENDCHAR
STARTCHAR lacute
ENCODING 314
SWIDTH 305 0
DWIDTH 5 0
BBX 5 17 1 0
BITMAP
02EF90
0BF900
6F8000
000000
BFA000
BFA000
BFA000
BFA000
BFA000
BFA000
BFA000
BFA000
BFA000
BFA000
BFA000
BFA000
BFA000
ENDCHAR
STARTCHAR Lcommaaccent
ENCODING 315
SWIDTH 564 0
DWIDTH 9 0
BBX 8 16 1 -4
BITMAP
8FD00000
8FD00000
8FD00000
8FD00000
8FD00000
8FD00000
8FD00000
8FD00000
8FD00000
8FD00000
8FFFFFF8
8FFFFFF8
00000000
004FD000
006F6000
009E0000
ENDCHAR
STARTCHAR lcommaaccent
ENCODING 316
SWIDTH 305 0
DWIDTH 5 0
BBX 4 17 0 -4
BITMAP
0BFA
0BFA
0BFA
0BFA
0BFA
0BFA
0BFA
0BFA
0BFA
0BFA
0BFA
0BFA
0BFA
0000
0CF5
0FD0
3F60
ENDCHAR
STARTCHAR Lcaron
ENCODING 317
SWIDTH 564 0
DWIDTH 9 0
BBX 8 12 1 0
BITMAP
8FD00EF3
8FD02FA0
8FD03820
8FD00000
8FD00000
8FD00000
8FD00000
8FD00000
8FD00000
8FD00000
8FFFFFF8
8FFFFFF8
ENDCHAR
STARTCHAR lcaron
ENCODING 318
SWIDTH 305 0
DWIDTH 5 0
BBX 6 13 1 0
BITMAP
BFA4FD
BFA6F6
BFA580
BFA000
BFA000
BFA000
BFA000
BFA000
BFA000
BFA000
BFA000
BFA000
BFA000
ENDCHAR
STARTCHAR Ldot
ENCODING 319
SWIDTH 564 0
DWIDTH 9 0
BBX 8 12 1 0
BITMAP
8FD00000
8FD00000
8FD00000
8FD00000
8FD00430
8FD06FF1
8FD04EC0
8FD00000
8FD00000
8FD00000
8FFFFFF8
8FFFFFF8
ENDCHAR
STARTCHAR ldot
ENCODING 320
SWIDTH 428 0
DWIDTH 7 0
BBX 7 13 1 0
BITMAP
BFA00000
BFA00000
BFA00000
BFA00000
BFA00000
BFA00000
BFA04300
BFA5FF20
BFA3ED10
BFA00000
BFA00000
BFA00000
BFA00000
ENDCHAR
STARTCHAR Lslash
ENCODING 321
SWIDTH 564 0
DWIDTH 9 0
BBX 9 12 0 0
BITMAP
08FD000000
08FD000000
08FD000000
08FD310000
08FFF80000
09FFD40000
8FFE100000
8FFD000000
19FD000000
08FD000000
08FFFFFF80
08FFFFFF80
ENDCHAR
STARTCHAR lslash
ENCODING 322
SWIDTH 330 0
DWIDTH 5 0
BBX 6 13 0 0
BITMAP
08FC00
08FC00
08FC00
08FC00
08FC00
08FE90
0AFFE1
BFFD10
6EFC00
08FC00
08FC00
08FC00
08FC00
ENDCHAR
STARTCHAR Nacute
ENCODING 323
SWIDTH 812 0
DWIDTH 13 0
BBX 11 16 1 0
BITMAP
000005FF5000
00001EF60000
0000AF500000
000000000000
8FFC00009F90
8FFF50009F90
8FFFD0009F90
8FAFF6009F90
8F89FE109F90
8F91EF809F90
8F908FF29F90
8F901EFA8F90
8F9006FFBF90
8F9000DFFF90
8F90005FFF90
8F90000CFF90
ENDCHAR
STARTCHAR nacute
ENCODING 324
SWIDTH 657 0
DWIDTH 11 0
BBX 9 13 1 0
BITMAP
00008FE300
0003FE3000
000DE30000
0000000000
BF39EEB300
BFEFEFFD00
BFF406FF30
BFC001FF50
BFA001FF50
BFA001FF50
BFA001FF50
BFA001FF50
BFA001FF50
ENDCHAR
STARTCHAR Ncommaaccent
ENCODING 325
SWIDTH 812 0
DWIDTH 13 0
BBX 11 16 1 -4
BITMAP
8FFC00009F90
8FFF50009F90
8FFFD0009F90
8FAFF6009F90
8F89FE109F90
8F91EF809F90
8F908FF29F90
8F901EFA8F90
8F9006FFBF90
8F9000DFFF90
8F90005FFF90
8F90000CFF90
000000000000
0000EF300000
0001FB000000
0004F4000000
ENDCHAR
STARTCHAR ncommaaccent
ENCODING 326
SWIDTH 657 0
DWIDTH 11 0
BBX 9 13 1 -4
BITMAP
BF39EEB300
BFEFEFFD00
BFF406FF30
BFC001FF50
BFA001FF50
BFA001FF50
BFA001FF50
BFA001FF50
BFA001FF50
0000000000
000EF30000
001FB00000
004F400000
ENDCHAR
STARTCHAR Ncaron
ENCODING 327
SWIDTH 812 0
DWIDTH 13 0
BBX 11 16 1 0
BITMAP
007F703DD000
000AF8EE3000
0001EFF60000
000000000000
8FFC00009F90
8FFF50009F90
8FFFD0009F90
8FAFF6009F90
8F89FE109F90
8F91EF809F90
8F908FF29F90
8F901EFA8F90
8F9006FFBF90
8F9000DFFF90
8F90005FFF90
8F90000CFF90
ENDCHAR
STARTCHAR ncaron
ENCODING 328
SWIDTH 657 0
DWIDTH 11 0
BBX 9 13 1 0
BITMAP
0BE405FA00
01DE7FD100
004FFF3000
0000000000
BF39EEB300
BFEFEFFD00
BFF406FF30
BFC001FF50
BFA001FF50
BFA001FF50
BFA001FF50
BFA001FF50
BFA001FF50
ENDCHAR
STARTCHAR napostrophe
ENCODING 329
SWIDTH 778 0
DWIDTH 12 0
BBX 12 12 0 0
BITMAP
4FF100000000
6FB000000000
9F5000000000
DE0CF39EEB20
000CFEFEFFD0
000CFF307FF2
000CFB002FF4
000CF9002FF4
000CF9002FF4
000CF9002FF4
000CF9002FF4
000CF9002FF4
ENDCHAR
STARTCHAR Eng
ENCODING 330
SWIDTH 812 0
DWIDTH 13 0
BBX 11 15 1 -3
BITMAP
8FFC00009F90
8FFF80009F90
8FFFF3009F90
8F9EFD009F90
8F86FF809F90
8F90BFF49F90
8F902EFD9F90
8F9006FFEF90
8F9000BFFF90
8F90002EFF90
8F900006FF90
8F900000BF90
00000112BF70
000009FFFF30
000008EEB400
ENDCHAR
STARTCHAR eng
ENCODING 331
SWIDTH 657 0
DWIDTH 11 0
BBX 9 13 1 -4
BITMAP
BF38EEB300
BFEFEFFD00
BFF406FF30
BFC001FF50
BFA001FF50
BFA001FF50
BFA001FF50
BFA001FF50
BFA001FF50
000001FF50
000004FF40
0000EFFE10
0000DEC400
ENDCHAR
STARTCHAR Omacron
ENCODING 332
SWIDTH 795 0
DWIDTH 13 0
BBX 11 15 1 0
BITMAP
002AAAAA0000
004FFFFF1000
000000000000
005BEFEA3000
09FFFFFFF500
5FFB314DFE10
BFE10004FF70
EFA00000EFA0
FF800000CFC0
FF800000CFC0
EFA00000EFA0
BFE10004FF70
4FFB314DFE10
08FFFFFFF500
005BEFEA3000
ENDCHAR
STARTCHAR omacron
ENCODING 333
SWIDTH 619 0
DWIDTH 10 0
BBX 10 12 0 0
BITMAP
007AAAA600
00AFFFF900
0000000000
005CEEB300
06FFFFFF40
0EFB11CFC0
3FF4005FF1
4FF3004FF2
3FF4005FF1
0DFB11CFD0
05FFFFFF40
004BEEB400
ENDCHAR
STARTCHAR Obreve
ENCODING 334
SWIDTH 795 0
DWIDTH 13 0
BBX 11 16 1 0
BITMAP
009C001F5000
004FCAEE1000
0006DEB30000
000000000000
005BEFEA3000
09FFFFFFF500
5FFB314DFE10
BFE10004FF70
EFA00000EFA0
FF800000CFC0
FF800000CFC0
EFA00000EFA0
BFE10004FF70
4FFB314DFE10
08FFFFFFF500
005BEFEA3000
ENDCHAR
STARTCHAR obreve
ENCODING 335
SWIDTH 619 0
DWIDTH 10 0
BBX 10 13 0 0
BITMAP
01F5008D00
00BEABF800
001AEE8000
0000000000
005CEEB300
06FFFFFF40
0EFB11CFC0
3FF4005FF1
4FF3004FF2
3FF4005FF1
0DFB11CFD0
05FFFFFF40
004BEEB400
ENDCHAR
STARTCHAR Ohungarumlaut
ENCODING 336
SWIDTH 795 0
DWIDTH 13 0
BBX 11 16 1 0
BITMAP
0001EF6DF700
0008F86FA000
002F81E90000
000000000000
005BEFEA3000
09FFFFFFF500
5FFB314DFE10
BFE10004FF70
EFA00000EFA0
FF800000CFC0
FF800000CFC0
EFA00000EFA0
BFE10004FF70
4FFB314DFE10
08FFFFFFF500
005BEFEA3000
ENDCHAR
STARTCHAR ohungarumlaut
ENCODING 337
SWIDTH 619 0
DWIDTH 10 0
BBX 10 13 0 0
BITMAP
0008FC7FD1
002ED3EE30
00AD28E300
0000000000
005CEEB300
06FFFFFF40
0EFB11CFC0
3FF4005FF1
4FF3004FF2
3FF4005FF1
0DFB11CFD0
05FFFFFF40
004BEEB400
ENDCHAR
STARTCHAR OE
ENCODING 338
SWIDTH 973 0
DWIDTH 16 0
BBX 14 12 1 0
BITMAP
006CEFFFFFFFF9
0AFFFFFFFFFFF9
5FF9216FF40000
BFD0003FF40000
EF90003FF40000
FF70003FFFFFF5
FF70003FFFFFF5
EF90003FF40000
BFD0003FF40000
5FFA216FF40000
0AFFFFFFFFFFF9
006CEFFFFFFFF9
ENDCHAR
STARTCHAR oe
ENCODING 339
SWIDTH 978 0
DWIDTH 16 0
BBX 15 9 0 0
BITMAP
005CEEB34BEEB300
06FFFFFEFFCDFF30
0EFB11CFFA00AFA0
3FF4005FF4005FE0
4FF3004FFFFFFFF0
3FF4005FFA999990
0DFB11CFF8000120
05FFFFFFFFECDF70
004BEEB43BEFEB30
ENDCHAR
STARTCHAR Racute
ENCODING 340
SWIDTH 660 0
DWIDTH 11 0
BBX 10 16 1 0
BITMAP
0000BFD100
0006FD2000
002EC10000
0000000000
8FFFED8100
8FFFFFFC00
8FD018FF30
8FD002FF40
8FD019FF20
8FFFFFF600
8FFFFF7000
8FD08FD000
8FD01EF700
8FD007FE20
8FD001DFA0
8FD0006FF4
ENDCHAR
STARTCHAR racute
ENCODING 341
SWIDTH 454 0
DWIDTH 7 0
BBX 7 13 1 0
BITMAP
000CFC10
007FC100
03FB1000
00000000
BF26DD00
BFBFFC00
BFFB5300
BFD00000
BFA00000
BFA00000
BFA00000
BFA00000
BFA00000
ENDCHAR
STARTCHAR Rcommaaccent
ENCODING 342
SWIDTH 660 0
DWIDTH 11 0
BBX 10 16 1 -4
BITMAP
8FFFED8100
8FFFFFFC00
8FD018FF30
8FD002FF40
8FD019FF20
8FFFFFF600
8FFFFF7000
8FD08FD000
8FD01EF700
8FD007FE20
8FD001DFA0
8FD0006FF4
0000000000
0007FA0000
0009F30000
000CB00000
ENDCHAR
STARTCHAR rcommaaccent
ENCODING 343
SWIDTH 454 0
DWIDTH 7 0
BBX 7 13 0 -4
BITMAP
0BF26DD0
0BFBFFC0
0BFFB530
0BFD0000
0BFA0000
0BFA0000
0BFA0000
0BFA0000
0BFA0000
00000000
0CF50000
0FD00000
3F600000
ENDCHAR
STARTCHAR Rcaron
ENCODING 344
SWIDTH 660 0
DWIDTH 11 0
BBX 10 16 1 0
BITMAP
1DD208F700
03ED8FA000
007FFE1000
0000000000
8FFFED8100
8FFFFFFC00
8FD018FF30
8FD002FF40
8FD019FF20
8FFFFFF600
8FFFFF7000
8FD08FD000
8FD01EF700
8FD007FE20
8FD001DFA0
8FD0006FF4
ENDCHAR
STARTCHAR rcaron
ENCODING 345
SWIDTH 454 0
DWIDTH 7 0
BBX 8 13 0 0
BITMAP
3EB11AF3
05FBBF70
00AFFB00
00000000
0BF26DD0
0BFBFFC0
0BFFB530
0BFD0000
0BFA0000
0BFA0000
0BFA0000
0BFA0000
0BFA0000
ENDCHAR
STARTCHAR Sacute
ENCODING 346
SWIDTH 550 0
DWIDTH 9 0
BBX 9 16 0 0
BITMAP
00004FF600
0001DF7000
0009F60000
0000000000
007CEEB600
09FFFFFC00
1FF8126500
1FF5000000
0DFE600000
04FFFD4000
003BFFF600
00004DFE00
000004FF20
394118FF10
4FFFFFF900
19DEEC6000
ENDCHAR
STARTCHAR sacute
ENCODING 347
SWIDTH 497 0
DWIDTH 8 0
BBX 8 13 0 0
BITMAP
0000CFC1
0007FC10
002FC100
00000000
03BEED91
1EFDCFD0
3FF30130
1EFF9300
04DFFF80
0005CFF3
23001FF4
4FECDFE1
2BEFEB30
ENDCHAR
STARTCHAR Scircumflex
ENCODING 348
SWIDTH 550 0
DWIDTH 9 0
BBX 9 16 0 0
BITMAP
001EFF6000
00BF8EE200
07F603DC00
0000000000
007CEEB600
09FFFFFC00
1FF8126500
1FF5000000
0DFE600000
04FFFD4000
003BFFF600
00004DFE00
000004FF20
394118FF10
4FFFFFF900
19DEEC6000
ENDCHAR
STARTCHAR scircumflex
ENCODING 349
SWIDTH 497 0
DWIDTH 8 0
BBX 8 13 0 0
BITMAP
009FFC00
04FCAF80
2EC109F4
00000000
03BEED91
1EFDCFD0
3FF30130
1EFF9300
04DFFF80
0005CFF3
23001FF4
4FECDFE1
2BEFEB30
ENDCHAR
STARTCHAR Scedilla
ENCODING 350
SWIDTH 550 0
DWIDTH 9 0
BBX 9 16 0 -4
BITMAP
007CEEB600
09FFFFFC00
1FF8126500
1FF5000000
0DFE600000
04FFFD4000
003BFFF600
00004DFE00
000004FF20
394118FF10
4FFFFFF900
19DEEC6000
000CD00000
0007F80000
0035EF0000
007FE70000
ENDCHAR
STARTCHAR scedilla
ENCODING 351
SWIDTH 497 0
DWIDTH 8 0
BBX 8 13 0 -4
BITMAP
03BEED91
1EFDCFD0
3FF30130
1EFF9300
04DFFF80
0005CFF3
23001FF4
4FECDFE1
2BEFEB30
003F7000
003BD300
0058F900
00DFC300
ENDCHAR
STARTCHAR Scaron
ENCODING 352
SWIDTH 550 0
DWIDTH 9 0
BBX 9 16 0 0
BITMAP
07F603DD00
00BF8EE200
001EFF6000
0000000000
007CEEB600
09FFFFFC00
1FF8126500
1FF5000000
0DFE600000
04FFFD4000
003BFFF600
00004DFE00
000004FF20
394118FF10
4FFFFFF900
19DEEC6000
ENDCHAR
STARTCHAR scaron
ENCODING 353
SWIDTH 497 0
DWIDTH 8 0
BBX 8 13 0 0
BITMAP
1EC208F6
03FD9F90
008FFD10
00000000
03BEED91
1EFDCFD0
3FF30130
1EFF9300
04DFFF80
0005CFF3
23001FF4
4FECDFE1
2BEFEB30
ENDCHAR
STARTCHAR Tcedilla
ENCODING 354
SWIDTH 579 0
DWIDTH 9 0
BBX 9 16 0 -4
BITMAP
AFFFFFFFE0
AFFFFFFFE0
0009FD0000
0009FD0000
0009FD0000
0009FD0000
0009FD0000
0009FD0000
0009FD0000
0009FD0000
0009FD0000
0009FD0000
0005F50000
0003CC2000
0016AF6000
001EEB1000
ENDCHAR
STARTCHAR tcedilla
ENCODING 355
SWIDTH 434 0
DWIDTH 7 0
BBX 7 15 0 -4
BITMAP
00AB0000
02FD0000
4DFFFF50
7DFFCC40
07FD0000
07FD0000
07FD0000
07FD0000
06FE1010
03FFFE70
007DFD40
001E9000
0029E500
0057FB00
00BFD400
ENDCHAR
STARTCHAR Tcaron
ENCODING 356
SWIDTH 579 0
DWIDTH 9 0
BBX 9 16 0 0
BITMAP
08F603EC00
00BF7EE200
002EFF5000
0000000000
AFFFFFFFE0
AFFFFFFFE0
0009FD0000
0009FD0000
0009FD0000
0009FD0000
0009FD0000
0009FD0000
0009FD0000
0009FD0000
0009FD0000
0009FD0000
ENDCHAR
STARTCHAR tcaron
ENCODING 357
SWIDTH 434 0
DWIDTH 7 0
BBX 8 13 0 0
BITMAP
00000BF5
00000ED0
00AB1830
02FD0000
4DFFFF50
7DFFCC40
07FD0000
07FD0000
07FD0000
07FD0000
06FE1010
03FFFE70
007DFD40
ENDCHAR
STARTCHAR Tbar
ENCODING 358
SWIDTH 579 0
DWIDTH 9 0
BBX 9 12 0 0
BITMAP
AFFFFFFFE0
AFFFFFFFE0
0009FD0000
0009FD0000
0009FD0000
08FFFFFC00
08FFFFFC00
0009FD0000
0009FD0000
0009FD0000
0009FD0000
0009FD0000
ENDCHAR
STARTCHAR tbar
ENCODING 359
SWIDTH 434 0
DWIDTH 7 0
BBX 7 11 0 0
BITMAP
00AB0000
02FD0000
4DFFFF50
7DFFCC40
07FD0000
7FFFFF10
4CFE8800
07FD0000
06FF1010
03FFFE70
006DFD40
ENDCHAR
STARTCHAR Utilde
ENCODING 360
SWIDTH 755 0
DWIDTH 12 0
BBX 10 16 1 0
BITMAP
004DC20E30
00CCDEBE10
01F21AE500
0000000000
AFC0000AFB
AFC0000AFB
AFC0000AFB
AFC0000AFB
AFC0000AFB
AFC0000AFB
AFC0000AFB
AFC0000BFB
8FE0000DFA
4FF9217FF5
0AFFFFFFB0
007CFEC700
ENDCHAR
STARTCHAR utilde
ENCODING 361
SWIDTH 657 0
DWIDTH 11 0
BBX 9 13 1 0
BITMAP
02CD30C600
0ADCFAF200
0E409E7000
0000000000
CF9002FF40
CF9002FF40
CF9002FF40
CF9002FF40
CF9002FF40
CF9004FF40
AFD10AFF40
6FFFFFEF40
08DFC4AF40
ENDCHAR
STARTCHAR Umacron
ENCODING 362
SWIDTH 755 0
DWIDTH 12 0
BBX 10 15 1 0
BITMAP
006AAAA700
009FFFFB00
0000000000
AFC0000AFB
AFC0000AFB
AFC0000AFB
AFC0000AFB
AFC0000AFB
AFC0000AFB
AFC0000AFB
AFC0000BFB
8FE0000DFA
4FF9217FF5
0AFFFFFFB0
007CFEC700
ENDCHAR
STARTCHAR umacron
ENCODING 363
SWIDTH 657 0
DWIDTH 11 0
BBX 9 12 1 0
BITMAP
04AAAA9000
06FFFFD000
0000000000
CF9002FF40
CF9002FF40
CF9002FF40
CF9002FF40
CF9002FF40
CF9004FF40
AFD10AFF40
6FFFFFEF40
08DFC4AF40
ENDCHAR
STARTCHAR Ubreve
ENCODING 364
SWIDTH 755 0
DWIDTH 12 0
BBX 10 16 1 0
BITMAP
00E7006F00
009FBBFA00
0019EE9100
0000000000
AFC0000AFB
AFC0000AFB
AFC0000AFB
AFC0000AFB
AFC0000AFB
AFC0000AFB
AFC0000AFB
AFC0000BFB
8FE0000DFA
4FF9217FF5
0AFFFFFFB0
007CFEC700
ENDCHAR
STARTCHAR ubreve
ENCODING 365
SWIDTH 657 0
DWIDTH 11 0
BBX 9 13 1 0
BITMAP
0BA003F300
06FBAEC000
007DEA2000
0000000000
CF9002FF40
CF9002FF40
CF9002FF40
CF9002FF40
CF9002FF40
CF9004FF40
AFD10AFF40
6FFFFFEF40
08DFC4AF40
ENDCHAR
STARTCHAR Uring
ENCODING 366
SWIDTH 755 0
DWIDTH 12 0
BBX 10 17 1 0
BITMAP
0004DE5000
000C87E000
000C87E000
0004DE5000
0000000000
AFC0000AFB
AFC0000AFB
AFC0000AFB
AFC0000AFB
AFC0000AFB
AFC0000AFB
AFC0000AFB
AFC0000BFB
8FE0000DFA
4FF9217FF5
0AFFFFFFB0
007CFEC700
ENDCHAR
STARTCHAR uring
ENCODING 367
SWIDTH 657 0
DWIDTH 11 0
BBX 9 14 1 0
BITMAP
003DE70000
00AA5F1000
00AA5F1000
003DE70000
0000000000
CF9002FF40
CF9002FF40
CF9002FF40
CF9002FF40
CF9002FF40
CF9004FF40
AFD10AFF40
6FFFFFEF40
08DFC4AF40
ENDCHAR
STARTCHAR Uhungarumlaut
ENCODING 368
SWIDTH 755 0
DWIDTH 12 0
BBX 10 16 1 0
BITMAP
0004FE5FF3
000CF4BF60
006E44F500
0000000000
AFC0000AFB
AFC0000AFB
AFC0000AFB
AFC0000AFB
AFC0000AFB
AFC0000AFB
AFC0000AFB
AFC0000BFB
8FE0000DFA
4FF9217FF5
0AFFFFFFB0
007CFEC700
ENDCHAR
STARTCHAR uhungarumlaut
ENCODING 369
SWIDTH 657 0
DWIDTH 11 0
BBX 9 13 1 0
BITMAP
001EF5EF70
009F77F900
02F71E9000
0000000000
CF9002FF40
CF9002FF40
CF9002FF40
CF9002FF40
CF9002FF40
CF9004FF40
AFD10AFF40
6FFFFFEF40
08DFC4AF40
ENDCHAR
STARTCHAR Uogonek
ENCODING 370
SWIDTH 755 0
DWIDTH 12 0
BBX 10 16 1 -4
BITMAP
AFC0000AFB
AFC0000AFB
AFC0000AFB
AFC0000AFB
AFC0000AFB
AFC0000AFB
AFC0000AFB
AFC0000BFB
8FE0000DFA
4FF9217FF5
0AFFFFFFB0
007CFEC700
00008E2000
0003F60000
0004FB6000
0000AEB000
ENDCHAR
STARTCHAR uogonek
ENCODING 371
SWIDTH 657 0
DWIDTH 11 0
BBX 9 13 1 -4
BITMAP
CF9002FF40
CF9002FF40
CF9002FF40
CF9002FF40
CF9002FF40
CF9004FF40
AFD10AFF40
6FFFFFEF40
08DFC4AF40
000003E600
00000DC000
00000EE720
000005EE20
ENDCHAR
STARTCHAR Wcircumflex
ENCODING 372
SWIDTH 966 0
DWIDTH 15 0
BBX 16 16 0 0
BITMAP
000001EFF7000000
00000AF8EE300000
00006F702DD10000
0000000000000000
DF80008FF1001FF5
AFB000CFF4004FF2
6FE001FFF8007FD0
2FF204FCFB00AF90
0EF608F7EF00DF60
0AF90BF4BF42FF20
06FC0FF08F75FD00
03FF4FB04FB8FA00
00EF9F801FDBF600
00AFEF400CFEF300
007FFF1008FFE000
003FFC0005FFA000
ENDCHAR
STARTCHAR wcircumflex
ENCODING 373
SWIDTH 855 0
DWIDTH 14 0
BBX 14 13 0 0
BITMAP
00000DFF800000
00008F9DF40000
0005F902CE2000
00000000000000
BFA008FF500EF6
6FE00CFF803FF2
2FF21FAFC07FD0
0DF65F6CF1BF90
09FA8F38F4EF40
05FCBE05F8FF10
01FEDB01FDFB00
00CFF800DFF700
007FF500AFF300
ENDCHAR
STARTCHAR Ycircumflex
ENCODING 374
SWIDTH 624 0
DWIDTH 10 0
BBX 10 16 0 0
BITMAP
000BFFB000
006FBBF600
03FB11BF30
0000000000
BFD0000DFB
3FF5005FF3
0BFC00CFA0
03FF55FF20
00AFCCF900
002FFFF200
0009FF9000
0003FF3000
0003FF3000
0003FF3000
0003FF3000
0003FF3000
ENDCHAR
STARTCHAR ycircumflex
ENCODING 375
SWIDTH 568 0
DWIDTH 9 0
BBX 9 17 0 -4
BITMAP
002FFF4000
00CF7FD100
09F504EB00
0000000000
CFC0009FE0
6FF100EF80
1FF604FF30
0AFB08FD00
04FF1DF700
00DF7FF200
007FDFB000
002FFF6000
000BFF1000
000BFA0000
005FF40000
7EFFA00000
6FD8000000
ENDCHAR
STARTCHAR Ydieresis
ENCODING 376
SWIDTH 624 0
DWIDTH 10 0
BBX 10 16 0 0
BITMAP
0001001000
008F56F800
007E55E700
0000000000
BFD0000DFB
3FF5005FF3
0BFC00CFA0
03FF55FF20
00AFCCF900
002FFFF200
0009FF9000
0003FF3000
0003FF3000
0003FF3000
0003FF3000
0003FF3000
ENDCHAR
STARTCHAR Zacute
ENCODING 377
SWIDTH 579 0
DWIDTH 9 0
BBX 9 16 0 0
BITMAP
00004FF600
0001DF7000
0009F60000
0000000000
7FFFFFFFB0
7FFFFFFFA0
000007FF20
00002FF700
0000BFC000
0006FF3000
002EF80000
00BFD00000
05FF400000
1EF9000000
8FFFFFFFD0
9FFFFFFFD0
ENDCHAR
STARTCHAR zacute
ENCODING 378
SWIDTH 487 0
DWIDTH 8 0
BBX 8 13 0 0
BITMAP
0000BFD1
0006FD20
002EC100
00000000
5FFFFFF3
4CCCEFF2
0001EF80
000AFC00
006FE200
02EF6000
0CFB0000
7FFDCCC4
8FFFFFF5
ENDCHAR
STARTCHAR Zdotaccent
ENCODING 379
SWIDTH 579 0
DWIDTH 9 0
BBX 9 16 0 0
BITMAP
0001420000
0009FD0000
0006FA0000
0000000000
7FFFFFFFB0
7FFFFFFFA0
000007FF20
00002FF700
0000BFC000
0006FF3000
002EF80000
00BFD00000
05FF400000
1EF9000000
8FFFFFFFD0
9FFFFFFFD0
ENDCHAR
STARTCHAR zdotaccent
ENCODING 380
SWIDTH 487 0
DWIDTH 8 0
BBX 8 13 0 0
BITMAP
00043000
005FF100
003ED100
00000000
5FFFFFF3
4CCCEFF2
0001EF80
000AFC00
006FE200
02EF6000
0CFB0000
7FFDCCC4
8FFFFFF5
ENDCHAR
STARTCHAR Zcaron
ENCODING 381
SWIDTH 579 0
DWIDTH 9 0
BBX 9 16 0 0
BITMAP
07F702DD10
00AF8EE300
001EFF7000
0000000000
7FFFFFFFB0
7FFFFFFFA0
000007FF20
00002FF700
0000BFC000
0006FF3000
002EF80000
00BFD00000
05FF400000
1EF9000000
8FFFFFFFD0
9FFFFFFFD0
ENDCHAR
STARTCHAR zcaron
ENCODING 382
SWIDTH 487 0
DWIDTH 8 0
BBX 8 13 0 0
BITMAP
3EB11AF3
05FBBF70
00AFFB00
00000000
5FFFFFF3
4CCCEFF2
0001EF80
000AFC00
006FE200
02EF6000
0CFB0000
7FFDCCC4
8FFFFFF5
ENDCHAR
STARTCHAR longs
ENCODING 383
SWIDTH 382 0
DWIDTH 6 0
BBX 6 13 1 0
BITMAP
08DFD4
7FFEF2
AFC010
BFA000
BFA000
BFA000
BFA000
BFA000
BFA000
BFA000
BFA000
BFA000
BFA000
ENDCHAR
STARTCHAR florin
ENCODING 402
SWIDTH 570 0
DWIDTH 9 0
BBX 8 15 1 -4
BITMAP
0009EFD3
006FFEE1
008FD010
08EFFF90
0AEFFC70
008FC000
008FC000
008FC000
008FC000
008FC000
008FC000
009FC000
00BFB000
7EFF8000
6EE91000
ENDCHAR
STARTCHAR Ohorn
ENCODING 416
SWIDTH 825 0
DWIDTH 13 0
BBX 13 13 1 0
BITMAP
0000000000CF90
005BEFEA30EF50
08FFFFFFFAFD00
4FFB314DFFD300
BFE10004FF7000
EFA00000EFA000
FF800000CFC000
FF800000CFC000
EFA00000EFA000
BFE10004FF7000
4FFB314DFE1000
08FFFFFFF50000
005BEFEA300000
ENDCHAR
STARTCHAR ohorn
ENCODING 417
SWIDTH 679 0
DWIDTH 11 0
BBX 12 10 0 0
BITMAP
000000000EF8
005CEEB44FF3
06FFFFFFFF60
0EFB11CFE200
3FF4005FF100
4FF3004FF200
3FF4005FF100
0DFB11CFD000
05FFFFFF4000
004BEEB40000
ENDCHAR
STARTCHAR Uhorn
ENCODING 431
SWIDTH 884 0
DWIDTH 14 0
BBX 14 13 1 0
BITMAP
00000000003FF4
AFC0000AFB5FF1
AFC0000AFBBF90
AFC0000AFFFB10
AFC0000AFD3000
AFC0000AFB0000
AFC0000AFB0000
AFC0000AFB0000
AFC0000AFB0000
8FE0000DFA0000
4FF9217FF60000
0AFFFFFFC00000
007CFEC7000000
ENDCHAR
STARTCHAR uhorn
ENCODING 432
SWIDTH 759 0
DWIDTH 12 0
BBX 12 10 1 0
BITMAP
0000000009FC
CF9002FF6EF7
CF9002FFFF90
CF9002FF8200
CF9002FF4000
CF9002FF4000
CF9004FF4000
AFD10AFF4000
6FFFFEEF4000
08DFC4AF4000
ENDCHAR
STARTCHAR uni01F0
ENCODING 496
SWIDTH 305 0
DWIDTH 5 0
BBX 7 17 -1 -4
BITMAP
BE405F90
1DE7FC10
04FFF200
00000000
00BFA000
00BFA000
00BFA000
00BFA000
00BFA000
00BFA000
00BFA000
00BFA000
00BFA000
00BFA000
01EF8000
FFFF4000
EFD60000
ENDCHAR
STARTCHAR Aringacute
ENCODING 506
SWIDTH 689 0
DWIDTH 11 0
BBX 11 16 0 0
BITMAP
000008FC3000
000028500000
0000CFC10000
0005D1D60000
0005D1D60000
0003FFF30000
0008FEF80000
000DF5FD0000
004FD0CF4000
009F706FA000
01EF201FE100
05FFFFFFF600
0BFFFFFFFB00
1FF50004FF20
7FF10000EF70
CFB00000AFD0
ENDCHAR
STARTCHAR aringacute
ENCODING 507
SWIDTH 604 0
DWIDTH 10 0
BBX 9 16 0 0
BITMAP
00007FC300
0001640000
0007FE4000
000E58C000
000E58C000
0007FE4000
0000100000
029DEEB300
03FECEFE10
004001EF50
018CEFFF70
0DFE86EF70
3FF400EF70
4FF305FF70
1EFECFEF70
04DFD65F70
ENDCHAR
STARTCHAR AEacute
ENCODING 508
SWIDTH 952 0
DWIDTH 15 0
BBX 15 16 0 0
BITMAP
0000000009FE2000
000000004FE30000
00000001ED200000
0000000000000000
00002FFFFFFFFF40
00008FFFFFFFFF40
0000EF58FD000000
0006FD08FD000000
000CF808FD000000
003FF208FFFFFF00
00AFB008FFFFFF00
01FFFFFFFD000000
08FFFFFFFD000000
0EF70008FD000000
5FF10008FFFFFF40
CFA00008FFFFFF40
ENDCHAR
STARTCHAR aeacute
ENCODING 509
SWIDTH 916 0
DWIDTH 15 0
BBX 14 13 0 0
BITMAP
00000004FF7000
0000001DF70000
0000009F600000
00000000000000
029DED929DFC40
03FECEFFFDCFF3
003002FFC00AFA
029CEFFF7005FD
1DFE87FFFFFFFF
3FF402FFB99999
4FF307FFB00012
1EFECFCDFECDF7
04CFE9119EFEB4
ENDCHAR
STARTCHAR Oslashacute
ENCODING 510
SWIDTH 795 0
DWIDTH 13 0
BBX 11 17 1 -1
BITMAP
000007FE3000
00002FE40000
0000CE300000
000000002100
005BEFD9DB00
09FFFFFFF700
5FFB317FFE10
BFE100DEFF70
EFA008F4DFA0
FF803FA0CFC0
FF80CE10CFC0
EF97F500EFA0
BFEFB004FF70
4FFF414DFE10
0BFFFFFFF500
1ECBEFEA3000
032000000000
ENDCHAR
STARTCHAR oslashacute
ENCODING 511
SWIDTH 619 0
DWIDTH 10 0
BBX 10 14 0 -1
BITMAP
00001DFB00
00008FB100
0004FA0000
0000000100
005CEEBE40
06FFFFFF50
0EFB18FFC0
3FF43FDFF1
4FF3CD5FF3
3FFCF46FF1
0EFF91CFD0
06FFFFFF40
06FCEEB400
0030000000
ENDCHAR
STARTCHAR Scommaaccent
ENCODING 536
SWIDTH 550 0
DWIDTH 9 0
BBX 9 16 0 -4
BITMAP
007CEEB600
09FFFFFC00
1FF8126500
1FF5000000
0DFE600000
04FFFD4000
003BFFF600
00004DFE00
000004FF20
394118FF10
4FFFFFF900
19DEEC6000
0000000000
000DF30000
001FC00000
004F500000
ENDCHAR
STARTCHAR scommaaccent
ENCODING 537
SWIDTH 497 0
DWIDTH 8 0
BBX 8 13 0 -4
BITMAP
03BEED91
1EFDCFD0
3FF30130
1EFF9300
04DFFF80
0005CFF3
23001FF4
4FECDFE1
2BEFEB30
00000000
004FD000
007F6000
00AD0000
ENDCHAR
STARTCHAR Tcommaaccent
ENCODING 538
SWIDTH 579 0
DWIDTH 9 0
BBX 9 16 0 -4
BITMAP
AFFFFFFFE0
AFFFFFFFE0
0009FD0000
0009FD0000
0009FD0000
0009FD0000
0009FD0000
0009FD0000
0009FD0000
0009FD0000
0009FD0000
0009FD0000
0000000000
0008F90000
000AF20000
000DA00000
ENDCHAR
STARTCHAR tcommaaccent
ENCODING 539
SWIDTH 434 0
DWIDTH 7 0
BBX 7 15 0 -4
BITMAP
00AB0000
02FD0000
4DFFFF50
7DFFCC40
07FD0000
07FD0000
07FD0000
07FD0000
06FE1010
03FFFE70
007DFD40
00000000
004FD000
006F6000
009E1000
ENDCHAR
STARTCHAR dotlessj
ENCODING 567
SWIDTH 305 0
DWIDTH 5 0
BBX 5 13 -1 -4
BITMAP
00BFA0
00BFA0
00BFA0
00BFA0
00BFA0
00BFA0
00BFA0
00BFA0
00BFA0
00BFA0
01EF80
FFFF40
EFD600
ENDCHAR
STARTCHAR uni02BC
ENCODING 700
SWIDTH 216 0
DWIDTH 3 0
BBX 4 4 0 8
BITMAP
2FF2
4FD0
7F80
AF20
ENDCHAR
STARTCHAR circumflex
ENCODING 710
SWIDTH 606 0
DWIDTH 10 0
BBX 8 3 1 10
BITMAP
00DFF800
08F9DF40
5F902CE2
ENDCHAR
STARTCHAR caron
ENCODING 711
SWIDTH 606 0
DWIDTH 10 0
BBX 8 3 1 10
BITMAP
5F901CE2
08F9DF40
00DFF800
ENDCHAR
STARTCHAR macron
ENCODING 713
SWIDTH 606 0
DWIDTH 10 0
BBX 6 2 2 10
BITMAP
8AAAA5
CFFFF8
ENDCHAR
STARTCHAR breve
ENCODING 728
SWIDTH 606 0
DWIDTH 10 0
BBX 7 3 1 10
BITMAP
2F4009C0
0CEACF70
02BED700
ENDCHAR
STARTCHAR dotaccent
ENCODING 729
SWIDTH 305 0
DWIDTH 5 0
BBX 3 3 1 10
BITMAP
1410
BFA0
9F70
ENDCHAR
STARTCHAR ring
ENCODING 730
SWIDTH 577 0
DWIDTH 9 0
BBX 5 4 2 10
BITMAP
0AEB10
4E3D70
4E3D70
0AEB10
ENDCHAR
STARTCHAR ogonek
ENCODING 731
SWIDTH 206 0
DWIDTH 3 0
BBX 4 4 0 -4
BITMAP
3E70
CD00
DE72
5EE3
ENDCHAR
STARTCHAR tilde
ENCODING 732
SWIDTH 606 0
DWIDTH 10 0
BBX 7 3 1 10
BITMAP
06EA13F0
1FBEDCB0
4D02CD30
ENDCHAR
STARTCHAR hungarumlaut
ENCODING 733
SWIDTH 587 0
DWIDTH 9 0
BBX 8 3 1 10
BITMAP
08FD6FE1
1ED3DE30
9D28E300
ENDCHAR
STARTCHAR uni02F3
ENCODING 755
SWIDTH 333 0
DWIDTH 5 0
BBX 5 4 0 -5
BITMAP
09EB10
3F3C80
3F3C80
09EC10
ENDCHAR
STARTCHAR uni0300
ENCODING 768
SWIDTH 0 0
DWIDTH 0 0
BBX 5 3 -8 10
BITMAP
8FF300
08FC00
007F70
ENDCHAR
STARTCHAR uni0301
ENCODING 769
SWIDTH 0 0
DWIDTH 0 0
BBX 6 3 -7 10
BITMAP
00CFC1
07FC10
3FB100
ENDCHAR
STARTCHAR uni0303
ENCODING 771
SWIDTH 0 0
DWIDTH 0 0
BBX 8 3 -9 10
BITMAP
05EB11F2
0EBEDBD0
3F12BD40
ENDCHAR
STARTCHAR hook
ENCODING 777
SWIDTH 0 0
DWIDTH 0 0
BBX 5 4 -7 10
BITMAP
4EEA00
26CF30
03DC10
08E000
ENDCHAR
STARTCHAR uni030F
ENCODING 783
SWIDTH 0 0
DWIDTH 0 0
BBX 7 3 -9 10
BITMAP
CF8AFA00
2DE2DF20
02E82DA0
ENDCHAR
STARTCHAR dotbelow
ENCODING 803
SWIDTH 0 0
DWIDTH 0 0
BBX 4 3 -7 -4
BITMAP
2ED2
3FF3
0430
ENDCHAR
STARTCHAR tonos
ENCODING 900
SWIDTH 577 0
DWIDTH 9 0
BBX 4 3 3 10
BITMAP
0CF5
0ED0
3F50
ENDCHAR
STARTCHAR dieresistonos
ENCODING 901
SWIDTH 577 0
DWIDTH 9 0
BBX 7 3 1 10
BITMAP
000CF300
6F6F9F90
5E532D80
ENDCHAR
STARTCHAR Alphatonos
ENCODING 902
SWIDTH 689 0
DWIDTH 11 0
BBX 12 12 -1 0
BITMAP
0DF42FFF3000
1FB07FFF8000
5F30CF9FD000
0002FF2EF300
0007FC0BF800
000CF706FD00
002FF302FF30
007FFFFFFF80
00CFFFFFFFD0
02FF50004FF3
07FF10000EF8
0DFB00000BFD
ENDCHAR
STARTCHAR anoteleia
ENCODING 903
SWIDTH 285 0
DWIDTH 5 0
BBX 4 3 0 5
BITMAP
0692
1FF9
0BE5
ENDCHAR
STARTCHAR Epsilontonos
ENCODING 904
SWIDTH 629 0
DWIDTH 10 0
BBX 11 12 -1 0
BITMAP
3FD7FFFFFF20
6F67FFFFFF20
AD07FF000000
0007FF000000
0007FF000000
0007FFFFFD00
0007FFFFFD00
0007FF000000
0007FF000000
0007FF000000
0007FFFFFF20
0007FFFFFF20
ENDCHAR
STARTCHAR Etatonos
ENCODING 905
SWIDTH 834 0
DWIDTH 13 0
BBX 13 12 -1 0
BITMAP
3FD7FF00007FE0
6F67FF00007FE0
AD07FF00007FE0
0007FF00007FE0
0007FF00007FE0
0007FFFFFFFFE0
0007FFFFFFFFE0
0007FF00007FE0
0007FF00007FE0
0007FF00007FE0
0007FF00007FE0
0007FF00007FE0
ENDCHAR
STARTCHAR Iotatonos
ENCODING 906
SWIDTH 512 0
DWIDTH 8 0
BBX 7 13 -1 0
BITMAP
3FD00000
6F609FC0
AD009FC0
00009FC0
00009FC0
00009FC0
00009FC0
00009FC0
00009FC0
00009FC0
00009FC0
00009FC0
00009FC0
ENDCHAR
STARTCHAR Omicrontonos
ENCODING 908
SWIDTH 835 0
DWIDTH 13 0
BBX 14 12 -1 0
BITMAP
0EF317CEED8100
2FB1DFFFFFFD20
6F3AFF7227FFA0
001FF900009FF2
004FF400004FF5
006FF200002FF6
006FF200002FF6
004FF400004FF5
001FF900009FF2
000AFF7227FFA0
0001DFFFFFFD10
000018CEED8100
ENDCHAR
STARTCHAR Upsilontonos
ENCODING 910
SWIDTH 764 0
DWIDTH 12 0
BBX 14 12 -1 0
BITMAP
6FB7FF20009FE1
9F31EF9002FF70
DB007FF209FD00
00000DF81FF600
000006FE9FD000
000000DFFF5000
0000005FFC0000
0000000EF70000
0000000EF70000
0000000EF70000
0000000EF70000
0000000EF70000
ENDCHAR
STARTCHAR Omegatonos
ENCODING 911
SWIDTH 786 0
DWIDTH 13 0
BBX 14 12 -1 0
BITMAP
0EF318CEED8100
2FB2DFFFFFFE20
6F3CFF7227FFC0
003FF800008FF3
006FF300003FF6
006FF100001FF6
004FF200002FF4
000EF500006FE0
0006FC0000CF60
00008FA01AF800
00DFFFF23FFFFD
00DFFFF23FFFFD
ENDCHAR
STARTCHAR iotadieresistonos
ENCODING 912
SWIDTH 407 0
DWIDTH 7 0
BBX 8 13 -1 0
BITMAP
000AF400
4F7E9EB0
4E631DA0
00000000
00BFA000
00BFA000
00BFA000
00BFA000
00BFA000
00BFA000
00AFB000
007FFEF3
0019EFC2
ENDCHAR
STARTCHAR Alpha
ENCODING 913
SWIDTH 689 0
DWIDTH 11 0
BBX 11 12 0 0
BITMAP
0002FFF30000
0007FFF80000
000CF9FD0000
002FF2EF3000
007FC0BF8000
00CF706FD000
02FF302FF300
07FFFFFFF800
0CFFFFFFFD00
2FF50004FF30
7FF10000EF80
DFB00000BFD0
ENDCHAR
STARTCHAR Beta
ENCODING 914
SWIDTH 671 0
DWIDTH 11 0
BBX 9 12 1 0
BITMAP
8FFFFDA300
8FFFFFFF30
8FD005FF80
8FD000EF90
8FD005FF50
8FFFFFF800
8FFEEFFD20
8FD002DFB0
8FD000AFD0
8FD003EFC0
8FFFFFFF50
8FFFFEB400
ENDCHAR
STARTCHAR Gamma
ENCODING 915
SWIDTH 561 0
DWIDTH 9 0
BBX 8 12 1 0
BITMAP
8FFFFFFA
8FFFFFFA
8FD00000
8FD00000
8FD00000
8FD00000
8FD00000
8FD00000
8FD00000
8FD00000
8FD00000
8FD00000
ENDCHAR
STARTCHAR uni0394
ENCODING 916
SWIDTH 658 0
DWIDTH 11 0
BBX 11 12 0 0
BITMAP
0004FFC00000
0009FFF20000
000EFCF70000
004FE5FC0000
009F91FF2000
00DF50BF6000
03FE107FB000
08FA002FF100
0DF6000DF600
3FF10008FB00
7FFFFFFFFF10
8FFFFFFFFF10
ENDCHAR
STARTCHAR Epsilon
ENCODING 917
SWIDTH 560 0
DWIDTH 9 0
BBX 7 12 1 0
BITMAP
8FFFFFF0
8FFFFFF0
8FD00000
8FD00000
8FD00000
8FFFFFB0
8FFFFFB0
8FD00000
8FD00000
8FD00000
8FFFFFF0
8FFFFFF0
ENDCHAR
STARTCHAR Zeta
ENCODING 918
SWIDTH 579 0
DWIDTH 9 0
BBX 9 12 0 0
BITMAP
7FFFFFFFB0
7FFFFFFFA0
000007FF20
00002FF700
0000BFC000
0006FF3000
002EF80000
00BFD00000
05FF400000
1EF9000000
8FFFFFFFD0
9FFFFFFFD0
ENDCHAR
STARTCHAR Eta
ENCODING 919
SWIDTH 765 0
DWIDTH 12 0
BBX 10 12 1 0
BITMAP
8FD00009FC
8FD00009FC
8FD00009FC
8FD00009FC
8FD00009FC
8FFFFFFFFC
8FFFFFFFFC
8FD00009FC
8FD00009FC
8FD00009FC
8FD00009FC
8FD00009FC
ENDCHAR
STARTCHAR Theta
ENCODING 920
SWIDTH 795 0
DWIDTH 13 0
BBX 11 12 1 0
BITMAP
005BEFEA3000
09FFFFFFF500
5FFB214DFE10
BFE10003FF70
EF900000DFA0
FF7AFFF6BFC0
FF7AFFF6BFC0
EF900000DFA0
BFE10003FF70
4FFB314DFE10
08FFFFFFF500
005BEFEA3000
ENDCHAR
STARTCHAR Iota
ENCODING 921
SWIDTH 331 0
DWIDTH 5 0
BBX 3 12 1 0
BITMAP
8FD0
8FD0
8FD0
8FD0
8FD0
8FD0
8FD0
8FD0
8FD0
8FD0
8FD0
8FD0
ENDCHAR
STARTCHAR Kappa
ENCODING 922
SWIDTH 664 0
DWIDTH 11 0
BBX 10 12 1 0
BITMAP
8FD0007FF3
8FD004FF70
8FD01EFB00
8FD0BFD100
8FD7FF3000
8FEFFC0000
8FFFFF5000
8FE3BFD100
8FD03FF800
8FD009FF20
8FD001EFB0
8FD0006FF5
ENDCHAR
STARTCHAR Lambda
ENCODING 923
SWIDTH 649 0
DWIDTH 10 0
BBX 11 12 0 0
BITMAP
0004FFA00000
0009FFE10000
000EFCF50000
004FD7FA0000
009FA3FE0000
00DF60EF4000
03FF10AF9000
08FC005FE000
0DF7001FF400
3FF3000CF900
8FD00007FE00
DF900003FF40
ENDCHAR
STARTCHAR Mu
ENCODING 924
SWIDTH 942 0
DWIDTH 15 0
BBX 13 12 1 0
BITMAP
8FFD00000CFFA0
8FFF30002FFFA0
8FEF70006FEFA0
8FBFB000BFAFA0
8F8EF101FD8FA0
8F99F506F89FA0
8F95FA0AF39FA0
8F91FE1ED09FA0
8F90BF8F909FA0
8F907FFF409FA0
8F902FFE009FA0
8F900DFA009FA0
ENDCHAR
STARTCHAR Nu
ENCODING 925
SWIDTH 812 0
DWIDTH 13 0
BBX 11 12 1 0
BITMAP
8FFC00009F90
8FFF50009F90
8FFFD0009F90
8FAFF6009F90
8F89FE109F90
8F91EF809F90
8F908FF29F90
8F901EFA8F90
8F9006FFBF90
8F9000DFFF90
8F90005FFF90
8F90000CFF90
ENDCHAR
STARTCHAR Xi
ENCODING 926
SWIDTH 570 0
DWIDTH 9 0
BBX 9 12 0 0
BITMAP
0FFFFFFF30
0FFFFFFF30
0000000000
0000000000
0000000000
06FFFFF800
06FFFFF800
0000000000
0000000000
0000000000
5FFFFFFF80
5FFFFFFF80
ENDCHAR
STARTCHAR Omicron
ENCODING 927
SWIDTH 795 0
DWIDTH 13 0
BBX 11 12 1 0
BITMAP
005BEFEA3000
09FFFFFFF500
5FFB314DFE10
BFE10004FF70
EFA00000EFA0
FF800000CFC0
FF800000CFC0
EFA00000EFA0
BFE10004FF70
4FFB314DFE10
08FFFFFFF500
005BEFEA3000
ENDCHAR
STARTCHAR Pi
ENCODING 928
SWIDTH 745 0
DWIDTH 12 0
BBX 10 12 1 0
BITMAP
8FFFFFFFF7
8FFFFFFFF7
8FD0000EF7
8FD0000EF7
8FD0000EF7
8FD0000EF7
8FD0000EF7
8FD0000EF7
8FD0000EF7
8FD0000EF7
8FD0000EF7
8FD0000EF7
ENDCHAR
STARTCHAR Rho
ENCODING 929
SWIDTH 627 0
DWIDTH 10 0
BBX 9 12 1 0
BITMAP
8FFFEC7000
8FFFFFFA00
8FD01AFF20
8FD003FF40
8FD003FF40
8FD02BFF10
8FFFFFF800
8FFFEC6000
8FD0000000
8FD0000000
8FD0000000
8FD0000000
ENDCHAR
STARTCHAR Sigma
ENCODING 931
SWIDTH 592 0
DWIDTH 9 0
BBX 9 12 0 0
BITMAP
4FFFFFFF70
4FFEFFFF70
0AFC100000
00BFB00000
001CFA0000
0001EF8000
0006FE3000
004FF50000
02EF700000
1DF9000000
6FFEFFFFE0
6FFFFFFFE0
ENDCHAR
STARTCHAR Tau
ENCODING 932
SWIDTH 579 0
DWIDTH 9 0
BBX 9 12 0 0
BITMAP
AFFFFFFFE0
AFFFFFFFE0
0009FD0000
0009FD0000
0009FD0000
0009FD0000
0009FD0000
0009FD0000
0009FD0000
0009FD0000
0009FD0000
0009FD0000
ENDCHAR
STARTCHAR Upsilon
ENCODING 933
SWIDTH 624 0
DWIDTH 10 0
BBX 10 12 0 0
BITMAP
BFD0000DFB
3FF5005FF3
0BFC00CFA0
03FF55FF20
00AFCCF900
002FFFF200
0009FF9000
0003FF3000
0003FF3000
0003FF3000
0003FF3000
0003FF3000
ENDCHAR
STARTCHAR Phi
ENCODING 934
SWIDTH 859 0
DWIDTH 14 0
BBX 13 12 0 0
BITMAP
000003FF000000
002AEFFFFD8100
03EFFEFFEFFD10
0DFC23FF03EF90
2FF303FF006FE0
4FF103FF004FF0
2FF303FF007FE0
0CFC23FF04EF80
03EFFEFFEFFC10
0029DFFFED8100
000003FF000000
000003FF000000
ENDCHAR
STARTCHAR Chi
ENCODING 935
SWIDTH 666 0
DWIDTH 11 0
BBX 11 12 0 0
BITMAP
7FF30007FF20
0CFB001EF700
03FF509FD000
009FD3FF4000
001EFEFA0000
0006FFE20000
0009FFF30000
004FFCFC0000
00CF92FF7000
07FE108FE200
2EF7001EFB00
AFD00006FF50
ENDCHAR
STARTCHAR Psi
ENCODING 936
SWIDTH 875 0
DWIDTH 14 0
BBX 14 12 0 0
BITMAP
2FF201FF101FF3
2FF201FF101FF3
2FF201FF101FF3
2FF201FF101FF3
1FF401FF103FF2
0DFC32FF23CFD0
05FFFFFFFFFF50
004ADEFFEDA400
000001FF100000
000001FF100000
000001FF100000
000001FF100000
ENDCHAR
STARTCHAR uni03A9
ENCODING 937
SWIDTH 786 0
DWIDTH 13 0
BBX 13 12 0 0
BITMAP
0006BEFDA30000
00BFFFFFFF6000
08FFA214DFF200
0EFC00003FF800
1FF700000DFA00
1FF600000CFA00
0EF600000DF800
0AFA00001FF300
02EE20008FA000
005ED207FB1000
8FFFF60DFFFF20
8FFFF60DFFFF20
ENDCHAR
STARTCHAR Iotadieresis
ENCODING 938
SWIDTH 331 0
DWIDTH 5 0
BBX 6 16 0 0
BITMAP
000010
DE1BF3
CD19E2
000000
08FD00
08FD00
08FD00
08FD00
08FD00
08FD00
08FD00
08FD00
08FD00
08FD00
08FD00
08FD00
ENDCHAR
STARTCHAR Upsilondieresis
ENCODING 939
SWIDTH 624 0
DWIDTH 10 0
BBX 10 16 0 0
BITMAP
0001001000
007F55F800
007E55E700
0000000000
BFD0000DFB
3FF5005FF3
0BFC00CFA0
03FF55FF20
00AFCCF900
002FFFF200
0009FF9000
0003FF3000
0003FF3000
0003FF3000
0003FF3000
0003FF3000
ENDCHAR
STARTCHAR alphatonos
ENCODING 940
SWIDTH 646 0
DWIDTH 10 0
BBX 10 13 0 0
BITMAP
00006FB000
00009F4000
0000DB0000
0000000000
008DFC3CF5
07FFFFEFF1
0EFA01CFF0
2FF4007FE0
4FF3005FD0
2FF4007FD0
1EFA01CFF1
08FFFFDFFF
008EEA28EE
ENDCHAR
STARTCHAR epsilontonos
ENCODING 941
SWIDTH 555 0
DWIDTH 9 0
BBX 9 13 0 0
BITMAP
00007FA000
0000AF2000
0000EA0000
0000000000
019DFEC910
0BFECCFE00
0CF6101300
03CFFF8000
09FEBA6000
4FF2000000
5FF3000420
1EFFDDFF40
029DEED920
ENDCHAR
STARTCHAR etatonos
ENCODING 942
SWIDTH 657 0
DWIDTH 11 0
BBX 9 17 1 -4
BITMAP
0000DF4000
0001FC0000
0004F40000
0000000000
BF39EEB300
BFEFEFFD00
BFF406FF30
BFC001FF50
BFA001FF50
BFA001FF50
BFA001FF50
BFA001FF50
BFA001FF50
000001FF50
000001FF50
000001FF50
000001FF50
ENDCHAR
STARTCHAR iotatonos
ENCODING 943
SWIDTH 407 0
DWIDTH 7 0
BBX 6 13 1 0
BITMAP
0AF700
0DE100
2F6000
000000
BFA000
BFA000
BFA000
BFA000
BFA000
BFA000
AFB000
7FFEF3
19EFC2
ENDCHAR
STARTCHAR upsilondieresistonos
ENCODING 944
SWIDTH 645 0
DWIDTH 10 0
BBX 9 13 1 0
BITMAP
0004FA0000
0DD8DAF300
0CC228E200
0000000000
DF8005FF10
DF8002FF40
DF8000FF60
DF8000EF70
DF8000EF70
DF9001FF50
AFD108FF20
4FFFEFF900
04BEFD7000
ENDCHAR
STARTCHAR alpha
ENCODING 945
SWIDTH 646 0
DWIDTH 10 0
BBX 10 9 0 0
BITMAP
008DFC3CF5
07FFFFEFF1
0EFA01CFF0
2FF4007FE0
4FF3005FD0
2FF4007FD0
1EFA01CFF1
08FFFFDFFF
008EEA28EE
ENDCHAR
STARTCHAR beta
ENCODING 946
SWIDTH 660 0
DWIDTH 11 0
BBX 9 17 1 -4
BITMAP
02AEFD9100
2EFFEFFD10
8FE205FF50
BFB001FF50
BFA007FE10
BFA1FFB200
BFA1EFFB10
BFA002DF90
BFA0008FE0
BFA0008FF0
BFC202DFC0
BFFFEFFF50
BFDCEFC500
BFA0000000
BFA0000000
BFA0000000
BFA0000000
ENDCHAR
STARTCHAR gamma
ENCODING 947
SWIDTH 567 0
DWIDTH 9 0
BBX 9 13 0 -4
BITMAP
CFA0008FE0
6FE000DF80
1FF503FF30
0AF907FC00
05FE0CF700
00EF4FF100
008FBFB000
003FFF5000
000CFE1000
000CFA0000
001FF60000
004FF40000
006FF20000
ENDCHAR
STARTCHAR delta
ENCODING 948
SWIDTH 619 0
DWIDTH 10 0
BBX 10 13 0 0
BITMAP
0019DFDB60
00CFECEFB0
00FF500420
00CFB10000
003EFE6000
002AFFFA00
04EF97FF90
0DF9009FF1
3FF4004FF2
4FF3005FF2
1FFA01CFD0
08FFFFFF60
006CFEC500
ENDCHAR
STARTCHAR epsilon
ENCODING 949
SWIDTH 555 0
DWIDTH 9 0
BBX 9 9 0 0
BITMAP
019DFEC910
0BFECCFE00
0CF6101300
03CFFF8000
09FEBA6000
4FF2000000
5FF3000420
1EFFDDFF40
029DEED920
ENDCHAR
STARTCHAR zeta
ENCODING 950
SWIDTH 498 0
DWIDTH 8 0
BBX 8 16 0 -3
BITMAP
0CFFFFFD
09BBBFFA
0001BFB0
000BFC00
008FD100
03FF4000
0BFB0000
1FF60000
3FF30000
3FF40000
1FFA1000
07FFEB60
005BFFF9
000019FD
00000AF9
00004FF2
ENDCHAR
STARTCHAR eta
ENCODING 951
SWIDTH 657 0
DWIDTH 11 0
BBX 9 13 1 -4
BITMAP
BF39EEB300
BFEFEFFD00
BFF406FF30
BFC001FF50
BFA001FF50
BFA001FF50
BFA001FF50
BFA001FF50
BFA001FF50
000001FF50
000001FF50
000001FF50
000001FF50
ENDCHAR
STARTCHAR theta
ENCODING 952
SWIDTH 618 0
DWIDTH 10 0
BBX 10 13 0 0
BITMAP
003BEEA200
03EFDDFD10
0AFC01DF70
0EF7008FC0
2FF4006FF0
4FF3005FF2
4FFFFFFFF2
4FFCCCDFF2
2FF3005FF1
0EF5007FD0
09FB00CF80
02EFDDFE10
003BEEB200
ENDCHAR
STARTCHAR iota
ENCODING 953
SWIDTH 407 0
DWIDTH 7 0
BBX 6 9 1 0
BITMAP
BFA000
BFA000
BFA000
BFA000
BFA000
BFA000
AFB000
7FFEF3
19EFC2
ENDCHAR
STARTCHAR kappa
ENCODING 954
SWIDTH 620 0
DWIDTH 10 0
BBX 9 9 1 0
BITMAP
BFA004FF50
BFA02EF700
BFA1DF9000
BF9BFB0000
BFEFF90000
BFFBFF5000
BFA08FE200
BFA00CFC00
BFA003FF80
ENDCHAR
STARTCHAR lambda
ENCODING 955
SWIDTH 615 0
DWIDTH 10 0
BBX 10 13 0 0
BITMAP
1EFC400000
1FFFE20000
013EF80000
0007FE0000
0006FF4000
000CFF9000
003FFFE000
00AF9FF400
01FF3BF900
07FD06FE10
0DF701FF70
5FF200BFFC
BFB0002CFA
ENDCHAR
STARTCHAR uni03BC
ENCODING 956
SWIDTH 660 0
DWIDTH 11 0
BBX 9 13 1 -4
BITMAP
BFA001FF50
BFA001FF50
BFA001FF50
BFA001FF50
BFA001FF50
BFA003FF50
BFE10AFF50
BFFFFFEF50
BFCDE69F50
BF90000000
BFA0000000
BFA0000000
BFA0000000
ENDCHAR
STARTCHAR nu
ENCODING 957
SWIDTH 595 0
DWIDTH 10 0
BBX 9 9 0 0
BITMAP
CFA0008FD0
6FE1009FD0
1FF500AFB0
0AFA00CF80
05FF11FF40
00EF57FD00
009FBEF600
003FFFB000
000DFD1000
ENDCHAR
STARTCHAR xi
ENCODING 958
SWIDTH 498 0
DWIDTH 8 0
BBX 8 16 0 -3
BITMAP
0CFFFFF7
09BFFCA4
04EE4000
0BFA0000
09FD3000
019FFFF1
03DFDAA0
0DF90000
3FF40000
3FF30000
1EFB1000
06FFFB60
004BFFF9
000019FD
00000AF9
00004FF2
ENDCHAR
STARTCHAR omicron
ENCODING 959
SWIDTH 619 0
DWIDTH 10 0
BBX 10 9 0 0
BITMAP
005CEEB300
06FFFFFF40
0EFB11CFC0
3FF4005FF1
4FF3004FF2
3FF4005FF1
0DFB11CFD0
05FFFFFF40
004BEEB400
ENDCHAR
STARTCHAR pi
ENCODING 960
SWIDTH 738 0
DWIDTH 12 0
BBX 12 9 0 0
BITMAP
5DFFFFFFFFF4
ACFFDCCFFEC3
00FF600EF600
00FF600EF600
00FF600EF600
00FF600EF600
00FF600EF800
00FF600BFFE3
00FF6003CFC2
ENDCHAR
STARTCHAR rho
ENCODING 961
SWIDTH 618 0
DWIDTH 10 0
BBX 10 13 0 -4
BITMAP
003BEEB400
03FFFFFF40
0AFC11BFC0
0EF7006FF1
0FF5005FF2
1FF5006FF1
1FF901BFD0
1FFFFFFF50
1FF9DFD600
1FF4000000
1FF5000000
1FF5000000
1FF5000000
ENDCHAR
STARTCHAR sigma1
ENCODING 962
SWIDTH 498 0
DWIDTH 8 0
BBX 8 12 0 -3
BITMAP
005CEEC6
06FFFFF8
0DFC1032
2FF50000
4FF30000
3FF40000
1EFC3000
05FFFE91
0028DFFA
000008FD
00000BF9
00004FF2
ENDCHAR
STARTCHAR sigma
ENCODING 963
SWIDTH 652 0
DWIDTH 10 0
BBX 11 9 0 0
BITMAP
004AEFFFFF20
05FFECFFBB10
0EFB00AF7000
3FF4005FE100
4FF3003FF400
3FF4003FF400
0EFB11AFF100
06FFFFFF7000
005CEEC50000
ENDCHAR
STARTCHAR tau
ENCODING 964
SWIDTH 538 0
DWIDTH 9 0
BBX 8 9 0 0
BITMAP
4DFFFFFF
8CDFFCCC
007FE000
007FE000
007FE000
007FE000
006FF101
003FFFE7
0006DFD4
ENDCHAR
STARTCHAR upsilon
ENCODING 965
SWIDTH 645 0
DWIDTH 10 0
BBX 9 9 1 0
BITMAP
DF8005FF10
DF8002FF40
DF8000FF60
DF8000EF70
DF8000EF70
DF9001FF50
AFD108FF20
4FFFEFF900
04BEFD7000
ENDCHAR
STARTCHAR phi
ENCODING 966
SWIDTH 791 0
DWIDTH 13 0
BBX 12 13 0 -4
BITMAP
00B5008DFC40
07FE17FECFF2
0EF70CF60BFA
3FF10EF406FD
4FF00EF406FE
3FF20EF409FC
0DFA1EF44FF6
04FFEFFEFFA0
003AEFFEB500
00000EF40000
00000EF40000
00000EF40000
00000EF40000
ENDCHAR
STARTCHAR chi
ENCODING 967
SWIDTH 591 0
DWIDTH 9 0
BBX 11 13 -1 -4
BITMAP
07EE6002FF40
09FFF20AFB00
011CF73FF200
0005FCBF8000
0000EFFE1000
00009FF60000
0000CFF20000
0005FFF80000
000DF8FE0000
007FD0EF5000
01EF609FC100
08FD003FFF90
2FF60006EE70
ENDCHAR
STARTCHAR psi
ENCODING 968
SWIDTH 836 0
DWIDTH 13 0
BBX 12 17 1 -4
BITMAP
00005FD00000
00005FD00000
00005FD00000
00005FD00000
DF605FD02FF1
DF605FD00EF4
DF605FD00CF6
DF605FD00BF7
DF605FD00AF8
CF805FD00CF6
8FD25FD07FF2
1DFFEFFEFF70
018DFFFEB400
00005FD00000
00005FD00000
00005FD00000
00005FD00000
ENDCHAR
STARTCHAR omega
ENCODING 969
SWIDTH 862 0
DWIDTH 14 0
BBX 13 9 0 0
BITMAP
07FD000001FF40
0BF8000000BF80
0EF40000007FC0
1FF203FF005FD0
2FF103FF004FE0
0FF203FF005FD0
0CF807FF40BFA0
05FFEFCEFEFF30
007DFC24DFD500
ENDCHAR
STARTCHAR iotadieresis
ENCODING 970
SWIDTH 407 0
DWIDTH 7 0
BBX 7 13 0 0
BITMAP
01001000
BF29F400
AE28E400
00000000
0BFA0000
0BFA0000
0BFA0000
0BFA0000
0BFA0000
0BFA0000
0AFB0000
07FFEF30
019EFC20
ENDCHAR
STARTCHAR upsilondieresis
ENCODING 971
SWIDTH 645 0
DWIDTH 10 0
BBX 9 13 1 0
BITMAP
0010000000
05F83FA000
04E73E9000
0000000000
DF8005FF10
DF8002FF40
DF8000FF60
DF8000EF70
DF8000EF70
DF9001FF50
AFD108FF20
4FFFEFF900
04BEFD7000
ENDCHAR
STARTCHAR omicrontonos
ENCODING 972
SWIDTH 619 0
DWIDTH 10 0
BBX 10 13 0 0
BITMAP
00004FD000
00007F6000
0000BD0000
0000000000
005CEEB300
06FFFFFF40
0EFB11CFC0
3FF4005FF1
4FF3004FF2
3FF4005FF1
0DFB11CFD0
05FFFFFF40
004BEEB400
ENDCHAR
STARTCHAR upsilontonos
ENCODING 973
SWIDTH 645 0
DWIDTH 10 0
BBX 9 13 1 0
BITMAP
0002FE1000
0006F70000
0009E10000
0000000000
DF8005FF10
DF8002FF40
DF8000FF60
DF8000EF70
DF8000EF70
DF9001FF50
AFD108FF20
4FFFEFF900
04BEFD7000
ENDCHAR
STARTCHAR omegatonos
ENCODING 974
SWIDTH 862 0
DWIDTH 14 0
BBX 13 13 0 0
BITMAP
0000005FC00000
0000008F400000
000000CB000000
00000000000000
07FD000001FF40
0BF8000000BF80
0EF40000007FC0
1FF203FF005FD0
2FF103FF004FE0
0FF203FF005FD0
0CF807FF40BFA0
05FFEFCEFEFF30
007DFC24DFD500
ENDCHAR
STARTCHAR uni03D1
ENCODING 977
SWIDTH 731 0
DWIDTH 12 0
BBX 12 13 0 0
BITMAP
0005CEE91000
004FFDFFC000
008FC03EF600
008FD009FC00
004FFA36FF00
0007FFFFFFF4
4CEB38BDFFD3
5EFF2003FF40
00FF2004FF30
00FF1007FF00
00FF402EFA00
00BFFEFFE200
001AEFD92000
ENDCHAR
STARTCHAR uni03D2
ENCODING 978
SWIDTH 630 0
DWIDTH 10 0
BBX 11 12 0 0
BITMAP
BFD00008ED10
3FF5005FFE10
0AFC00DFA000
03FF45FE1000
00AFBCF70000
002FFFE10000
0009FF800000
0003FF400000
0003FF300000
0003FF300000
0003FF300000
0003FF300000
ENDCHAR
STARTCHAR uni03D6
ENCODING 982
SWIDTH 999 0
DWIDTH 16 0
BBX 16 9 0 0
BITMAP
3CFFFFFFFFFFFFF9
7CEFECCCCCCEFEC7
00BF70000007FB00
00EF40000004FE00
00FF301FF202FF00
00FF302FF203FF00
00CF805FF608FC00
006FFEFDDFEFF600
0007DFC33CFD7000
ENDCHAR
STARTCHAR uni0400
ENCODING 1024
SWIDTH 560 0
DWIDTH 9 0
BBX 7 16 1 0
BITMAP
3EF80000
03EF3000
003ED000
00000000
8FFFFFF0
8FFFFFF0
8FD00000
8FD00000
8FD00000
8FFFFFB0
8FFFFFB0
8FD00000
8FD00000
8FD00000
8FFFFFF0
8FFFFFF0
ENDCHAR
STARTCHAR afii10023
ENCODING 1025
SWIDTH 560 0
DWIDTH 9 0
BBX 7 16 1 0
BITMAP
00100100
0CE29F40
0BE28E30
00000000
8FFFFFF0
8FFFFFF0
8FD00000
8FD00000
8FD00000
8FFFFFB0
8FFFFFB0
8FD00000
8FD00000
8FD00000
8FFFFFF0
8FFFFFF0
ENDCHAR
STARTCHAR afii10051
ENCODING 1026
SWIDTH 805 0
DWIDTH 13 0
BBX 12 12 0 0
BITMAP
AFFFFFFFF000
AFFFFFFFF000
000CF9000000
000CF9000000
000CFFFFFD70
000CFFFFFFF7
000CF9001AFD
000CF90006FF
000CF90006FF
000CF90209FD
000CF90BFFF8
000CF909FE91
ENDCHAR
STARTCHAR afii10052
ENCODING 1027
SWIDTH 561 0
DWIDTH 9 0
BBX 8 16 1 0
BITMAP
0000CFC1
0007FC10
003FB100
00000000
8FFFFFFA
8FFFFFFA
8FD00000
8FD00000
8FD00000
8FD00000
8FD00000
8FD00000
8FD00000
8FD00000
8FD00000
8FD00000
ENDCHAR
STARTCHAR afii10053
ENCODING 1028
SWIDTH 676 0
DWIDTH 11 0
BBX 10 12 1 0
BITMAP
0039DFEC71
05FFFFFFE1
2FFC312660
9FD1000000
DF90000000
FFFFFFF700
FFFFFFF600
EF90000000
BFD1000000
4FFB312460
08FFFFFFD0
005BEFEC70
ENDCHAR
STARTCHAR afii10054
ENCODING 1029
SWIDTH 550 0
DWIDTH 9 0
BBX 9 12 0 0
BITMAP
007CEEB600
09FFFFFC00
1FF8126500
1FF5000000
0DFE600000
04FFFD4000
003BFFF600
00004DFE00
000004FF20
394118FF10
4FFFFFF900
19DEEC6000
ENDCHAR
STARTCHAR afii10055
ENCODING 1030
SWIDTH 331 0
DWIDTH 5 0
BBX 3 12 1 0
BITMAP
8FD0
8FD0
8FD0
8FD0
8FD0
8FD0
8FD0
8FD0
8FD0
8FD0
8FD0
8FD0
ENDCHAR
STARTCHAR afii10056
ENCODING 1031
SWIDTH 331 0
DWIDTH 5 0
BBX 6 16 0 0
BITMAP
000010
DE1BF3
CD19E2
000000
08FD00
08FD00
08FD00
08FD00
08FD00
08FD00
08FD00
08FD00
08FD00
08FD00
08FD00
08FD00
ENDCHAR
STARTCHAR afii10057
ENCODING 1032
SWIDTH 331 0
DWIDTH 5 0
BBX 6 15 -2 -3
BITMAP
0008FD
0008FD
0008FD
0008FD
0008FD
0008FD
0008FD
0008FD
0008FD
0008FD
0008FD
0009FC
013EF9
3FFFF3
2EFC50
ENDCHAR
STARTCHAR afii10058
ENCODING 1033
SWIDTH 999 0
DWIDTH 16 0
BBX 16 12 0 0
BITMAP
000CFFFFFE000000
000EFFFFFE000000
001FF307FE000000
003FF107FE000000
005FE007FE000000
007FD007FFFEC600
009FB007FFFFFFA0
00CF8007FE019FF2
00FF6007FE004FF4
16FF2007FE01AFF2
DFFB0007FFFFFFA0
CEB20007FFFEC700
ENDCHAR
STARTCHAR afii10059
ENCODING 1034
SWIDTH 1001 0
DWIDTH 16 0
BBX 15 12 1 0
BITMAP
8FD0006FF0000000
8FD0006FF0000000
8FD0006FF0000000
8FD0006FF0000000
8FD0006FF0000000
8FFFFFFFFFEC6000
8FFFFFFFFFFFFA00
8FD0006FF018FF30
8FD0006FF003FF40
8FD0006FF019FF20
8FD0006FFFFFFA00
8FD0006FFFEC7000
ENDCHAR
STARTCHAR afii10060
ENCODING 1035
SWIDTH 805 0
DWIDTH 13 0
BBX 12 12 0 0
BITMAP
AFFFFFFFF000
AFFFFFFFF000
000CF9000000
000CF9000000
000CFFFFFD70
000CFFFFFFF8
000CF90019FD
000CF90006FF
000CF90006FF
000CF90006FF
000CF90006FF
000CF90006FF
ENDCHAR
STARTCHAR afii10061
ENCODING 1036
SWIDTH 671 0
DWIDTH 11 0
BBX 10 16 1 0
BITMAP
00001DFB00
00009FB100
0004FA0000
0000000000
8FD0006FF3
8FD002EF70
8FD00CFB00
8FD08FE100
8FD3FF4000
8FDDF90000
8FDBFD1000
8FD2EF9000
8FD06FF400
8FD00AFE10
8FD001EFA0
8FD0005FF6
ENDCHAR
STARTCHAR uni040D
ENCODING 1037
SWIDTH 823 0
DWIDTH 13 0
BBX 11 16 1 0
BITMAP
007FF4000000
0007FD100000
00006F900000
000000000000
8F900007FFB0
8F90001EFFB0
8F90009FFFB0
8F9003FF9FB0
8F900CFA6FB0
8F905FF26FB0
8F91DF806FB0
8F98FE106FB0
8FAEF6006FB0
8FFFC0006FB0
8FFF30006FB0
8FFA00006FB0
ENDCHAR
STARTCHAR afii10062
ENCODING 1038
SWIDTH 652 0
DWIDTH 10 0
BBX 11 16 0 0
BITMAP
05FC002FF100
01EF86CF9000
003BEFD81000
000000000000
CFC00004FF40
5FF30009FC00
0CF9001EF600
05FF106FE100
00DF70CF8000
006FD2FF2000
001EFCFB0000
0007FFF40000
0002FFD00000
211AFF600000
7FFFFB000000
6DFD81000000
ENDCHAR
STARTCHAR afii10145
ENCODING 1039
SWIDTH 745 0
DWIDTH 12 0
BBX 10 15 1 -3
BITMAP
8FD0000EF7
8FD0000EF7
8FD0000EF7
8FD0000EF7
8FD0000EF7
8FD0000EF7
8FD0000EF7
8FD0000EF7
8FD0000EF7
8FD0000EF7
8FFFFFFFF7
8FFFFFFFF7
0003FF2000
0003FF2000
0003FF2000
ENDCHAR
STARTCHAR afii10017
ENCODING 1040
SWIDTH 689 0
DWIDTH 11 0
BBX 11 12 0 0
BITMAP
0002FFF30000
0007FFF80000
000CF9FD0000
002FF2EF3000
007FC0BF8000
00CF706FD000
02FF302FF300
07FFFFFFF800
0CFFFFFFFD00
2FF50004FF30
7FF10000EF80
DFB00000BFD0
ENDCHAR
STARTCHAR afii10018
ENCODING 1041
SWIDTH 638 0
DWIDTH 10 0
BBX 9 12 1 0
BITMAP
8FFFFFFA00
8FFFFFFA00
8FD0000000
8FD0000000
8FD0000000
8FFFEC8100
8FFFFFFC00
8FD017FF50
8FD000FF70
8FD017FF50
8FFFFFFC00
8FFFED8100
ENDCHAR
STARTCHAR afii10019
ENCODING 1042
SWIDTH 671 0
DWIDTH 11 0
BBX 9 12 1 0
BITMAP
8FFFFDA300
8FFFFFFF30
8FD005FF80
8FD000EF90
8FD005FF50
8FFFFFF800
8FFEEFFD20
8FD002DFB0
8FD000AFD0
8FD003EFC0
8FFFFFFF50
8FFFFEB400
ENDCHAR
STARTCHAR afii10020
ENCODING 1043
SWIDTH 561 0
DWIDTH 9 0
BBX 8 12 1 0
BITMAP
8FFFFFFA
8FFFFFFA
8FD00000
8FD00000
8FD00000
8FD00000
8FD00000
8FD00000
8FD00000
8FD00000
8FD00000
8FD00000
ENDCHAR
STARTCHAR afii10021
ENCODING 1044
SWIDTH 764 0
DWIDTH 12 0
BBX 12 15 0 -3
BITMAP
0005FFFFFF60
0007FFFFFF60
000AF901FF60
000DF600FF60
001FF300FF60
005FE000FF60
00AFB000FF60
01EF6000FF60
06FF1000FF60
0CFB0001FF60
EFFFFFFFFFFE
EFFFFFFFFFFE
EF60000006FE
EF60000006FE
EF60000006FE
ENDCHAR
STARTCHAR afii10022
ENCODING 1045
SWIDTH 560 0
DWIDTH 9 0
BBX 7 12 1 0
BITMAP
8FFFFFF0
8FFFFFF0
8FD00000
8FD00000
8FD00000
8FFFFFB0
8FFFFFB0
8FD00000
8FD00000
8FD00000
8FFFFFF0
8FFFFFF0
ENDCHAR
STARTCHAR afii10024
ENCODING 1046
SWIDTH 942 0
DWIDTH 15 0
BBX 15 12 0 0
BITMAP
7FE1009FA001DF80
0BFA009FA009FD00
02EF509FA03FF300
007FD19FA0DF8000
000CF99FA7FD0000
0002FFCFCFF40000
0006FEAFBEF80000
002EF69FA5FF3000
00BFC09FA0BFC000
06FF309FA02EF700
1EF8009FA007FF20
AFD1009FA000CFB0
ENDCHAR
STARTCHAR afii10025
ENCODING 1047
SWIDTH 647 0
DWIDTH 10 0
BBX 10 12 0 0
BITMAP
039DEED810
1EFFFFFFC0
0682007FF4
0000001FF3
000013AFC0
007FFFD810
006DEFFD60
0000016FF5
0000000CFA
2720005FF8
3FFFEFFFD2
18CEFEC810
ENDCHAR
STARTCHAR afii10026
ENCODING 1048
SWIDTH 823 0
DWIDTH 13 0
BBX 11 12 1 0
BITMAP
8F900007FFB0
8F90001EFFB0
8F90009FFFB0
8F9003FF9FB0
8F900CFA6FB0
8F905FF26FB0
8F91DF806FB0
8F98FE106FB0
8FAEF6006FB0
8FFFC0006FB0
8FFF30006FB0
8FFA00006FB0
ENDCHAR
STARTCHAR afii10027
ENCODING 1049
SWIDTH 823 0
DWIDTH 13 0
BBX 11 16 1 0
BITMAP
02FF000DF400
00CFA6AFD000
002ADFDA2000
000000000000
8F900007FFB0
8F90001EFFB0
8F90009FFFB0
8F9003FF9FB0
8F900CFA6FB0
8F905FF26FB0
8F91DF806FB0
8F98FE106FB0
8FAEF6006FB0
8FFFC0006FB0
8FFF30006FB0
8FFA00006FB0
ENDCHAR
STARTCHAR afii10028
ENCODING 1050
SWIDTH 671 0
DWIDTH 11 0
BBX 10 12 1 0
BITMAP
8FD0006FF3
8FD002EF70
8FD00CFB00
8FD08FE100
8FD3FF4000
8FDDF90000
8FDBFD1000
8FD2EF9000
8FD06FF400
8FD00AFE10
8FD001EFA0
8FD0005FF6
ENDCHAR
STARTCHAR afii10029
ENCODING 1051
SWIDTH 745 0
DWIDTH 12 0
BBX 11 12 0 0
BITMAP
000CFFFFFF70
000EFFFFFF70
001FF300EF70
003FF100EF70
005FE000EF70
007FD000EF70
009FB000EF70
00CF8000EF70
00FF6000EF70
16FF2000EF70
DFFB0000EF70
CEB20000EF70
ENDCHAR
STARTCHAR afii10030
ENCODING 1052
SWIDTH 942 0
DWIDTH 15 0
BBX 13 12 1 0
BITMAP
8FFD00000CFFA0
8FFF30002FFFA0
8FEF70006FEFA0
8FBFB000BFAFA0
8F8EF101FD8FA0
8F99F506F89FA0
8F95FA0AF39FA0
8F91FE1ED09FA0
8F90BF8F909FA0
8F907FFF409FA0
8F902FFE009FA0
8F900DFA009FA0
ENDCHAR
STARTCHAR afii10031
ENCODING 1053
SWIDTH 765 0
DWIDTH 12 0
BBX 10 12 1 0
BITMAP
8FD00009FC
8FD00009FC
8FD00009FC
8FD00009FC
8FD00009FC
8FFFFFFFFC
8FFFFFFFFC
8FD00009FC
8FD00009FC
8FD00009FC
8FD00009FC
8FD00009FC
ENDCHAR
STARTCHAR afii10032
ENCODING 1054
SWIDTH 795 0
DWIDTH 13 0
BBX 11 12 1 0
BITMAP
005BEFEA3000
09FFFFFFF500
5FFB314DFE10
BFE10004FF70
EFA00000EFA0
FF800000CFC0
FF800000CFC0
EFA00000EFA0
BFE10004FF70
4FFB314DFE10
08FFFFFFF500
005BEFEA3000
ENDCHAR
STARTCHAR afii10033
ENCODING 1055
SWIDTH 745 0
DWIDTH 12 0
BBX 10 12 1 0
BITMAP
8FFFFFFFF7
8FFFFFFFF7
8FD0000EF7
8FD0000EF7
8FD0000EF7
8FD0000EF7
8FD0000EF7
8FD0000EF7
8FD0000EF7
8FD0000EF7
8FD0000EF7
8FD0000EF7
ENDCHAR
STARTCHAR afii10034
ENCODING 1056
SWIDTH 627 0
DWIDTH 10 0
BBX 9 12 1 0
BITMAP
8FFFEC7000
8FFFFFFA00
8FD01AFF20
8FD003FF40
8FD003FF40
8FD02BFF10
8FFFFFF800
8FFFEC6000
8FD0000000
8FD0000000
8FD0000000
8FD0000000
ENDCHAR
STARTCHAR afii10035
ENCODING 1057
SWIDTH 637 0
DWIDTH 10 0
BBX 9 12 1 0
BITMAP
004AEED930
07FFFFFF50
3FFB214910
AFE1000000
EF90000000
FF70000000
FF70000000
EF90000000
BFE0000000
5FFA312620
0AFFFFFF30
006CEED910
ENDCHAR
STARTCHAR afii10036
ENCODING 1058
SWIDTH 579 0
DWIDTH 9 0
BBX 9 12 0 0
BITMAP
AFFFFFFFE0
AFFFFFFFE0
0009FD0000
0009FD0000
0009FD0000
0009FD0000
0009FD0000
0009FD0000
0009FD0000
0009FD0000
0009FD0000
0009FD0000
ENDCHAR
STARTCHAR afii10037
ENCODING 1059
SWIDTH 652 0
DWIDTH 10 0
BBX 11 12 0 0
BITMAP
CFC00004FF40
5FF30009FC00
0CF9001EF600
05FF106FE100
00DF70CF8000
006FD2FF2000
001EFCFB0000
0007FFF40000
0002FFD00000
211AFF600000
7FFFFB000000
6DFD81000000
ENDCHAR
STARTCHAR afii10038
ENCODING 1060
SWIDTH 859 0
DWIDTH 14 0
BBX 13 12 0 0
BITMAP
000003FF000000
002AEFFFFD8100
03EFFEFFEFFD10
0DFC23FF03EF90
2FF303FF006FE0
4FF103FF004FF0
2FF303FF007FE0
0CFC23FF04EF80
03EFFEFFEFFC10
0029DFFFED8100
000003FF000000
000003FF000000
ENDCHAR
STARTCHAR afii10039
ENCODING 1061
SWIDTH 666 0
DWIDTH 11 0
BBX 11 12 0 0
BITMAP
7FF30007FF20
0CFB001EF700
03FF509FD000
009FD3FF4000
001EFEFA0000
0006FFE20000
0009FFF30000
004FFCFC0000
00CF92FF7000
07FE108FE200
2EF7001EFB00
AFD00006FF50
ENDCHAR
STARTCHAR afii10040
ENCODING 1062
SWIDTH 780 0
DWIDTH 13 0
BBX 12 15 1 -3
BITMAP
8FD0000EF700
8FD0000EF700
8FD0000EF700
8FD0000EF700
8FD0000EF700
8FD0000EF700
8FD0000EF700
8FD0000EF700
8FD0000EF700
8FD0000EF700
8FFFFFFFFEE3
8FFFFFFFFFF3
000000002FF3
000000002FF3
000000002FF3
ENDCHAR
STARTCHAR afii10041
ENCODING 1063
SWIDTH 728 0
DWIDTH 12 0
BBX 11 12 0 0
BITMAP
2FF40003FF30
2FF40003FF30
2FF40003FF30
2FF40003FF30
2FF50003FF30
1FFA1139FF30
0BFFFFFFFF30
019DFDA8FF30
00000003FF30
00000003FF30
00000003FF30
00000003FF30
ENDCHAR
STARTCHAR afii10042
ENCODING 1064
SWIDTH 1078 0
DWIDTH 17 0
BBX 15 12 1 0
BITMAP
8FD0009FD0009FC0
8FD0009FD0009FC0
8FD0009FD0009FC0
8FD0009FD0009FC0
8FD0009FD0009FC0
8FD0009FD0009FC0
8FD0009FD0009FC0
8FD0009FD0009FC0
8FD0009FD0009FC0
8FD0009FD0009FC0
8FFFFFFFFFFFFFC0
8FFFFFFFFFFFFFC0
ENDCHAR
STARTCHAR afii10043
ENCODING 1065
SWIDTH 1113 0
DWIDTH 18 0
BBX 17 15 1 -3
BITMAP
8FD0009FD0009FC000
8FD0009FD0009FC000
8FD0009FD0009FC000
8FD0009FD0009FC000
8FD0009FD0009FC000
8FD0009FD0009FC000
8FD0009FD0009FC000
8FD0009FD0009FC000
8FD0009FD0009FC000
8FD0009FD0009FC000
8FFFFFFFFFFFFFFE70
8FFFFFFFFFFFFFFF80
00000000000000CF80
00000000000000CF80
00000000000000CF80
ENDCHAR
STARTCHAR afii10044
ENCODING 1066
SWIDTH 727 0
DWIDTH 12 0
BBX 11 12 0 0
BITMAP
FFFFF4000000
FFFFF4000000
002FF4000000
002FF4000000
002FF4000000
002FFFFEA300
002FFFFFFF40
002FF403DFC0
002FF4009FD0
002FF403DFC0
002FFFFFFF40
002FFFFEA400
ENDCHAR
STARTCHAR afii10045
ENCODING 1067
SWIDTH 905 0
DWIDTH 15 0
BBX 13 12 1 0
BITMAP
8FD0000005FF10
8FD0000005FF10
8FD0000005FF10
8FD0000005FF10
8FD0000005FF10
8FFFEB5005FF10
8FFFFFF905FF10
8FD019FF25FF10
8FD004FF35FF10
8FD02AFF25FF10
8FFFFFF905FF10
8FFFEC6005FF10
ENDCHAR
STARTCHAR afii10046
ENCODING 1068
SWIDTH 638 0
DWIDTH 10 0
BBX 9 12 1 0
BITMAP
8FD0000000
8FD0000000
8FD0000000
8FD0000000
8FD0000000
8FFFEC8100
8FFFFFFC00
8FD017FF50
8FD000FF70
8FD017FF50
8FFFFFFC00
8FFFED8100
ENDCHAR
STARTCHAR afii10047
ENCODING 1069
SWIDTH 663 0
DWIDTH 11 0
BBX 10 12 0 0
BITMAP
28CEFD9200
2FFFFFFE30
085214DFD0
0000004FF5
0000000EF8
00CFFFFFFA
00CFFFFFFA
0000000EF8
0000004FF5
273115DFD0
4FFFFFFE30
29DEFD9200
ENDCHAR
STARTCHAR afii10048
ENCODING 1070
SWIDTH 1069 0
DWIDTH 17 0
BBX 16 12 1 0
BITMAP
8FD00005BEFC7100
8FD0008FFFFFFB00
8FD003FFA217FF70
8FD009FE1000CFD0
8FD00CFA00007FF1
8FFFFFF900005FF3
8FFFFFF900005FF3
8FD00DFA00007FF1
8FD00AFE1000BFD0
8FD005FFB228FF70
8FD0009FFFFFFB00
8FD00006CEFC7000
ENDCHAR
STARTCHAR afii10049
ENCODING 1071
SWIDTH 665 0
DWIDTH 11 0
BBX 10 12 0 0
BITMAP
004ADFFFF3
05FFFFFFF3
0BFD303FF3
0CFA003FF3
09FE403FF3
02DFFFFFF3
001FFFFFF3
008FE13FF3
02EF703FF3
0AFD103FF3
3FF6003FF3
CFD0003FF3
ENDCHAR
STARTCHAR afii10065
ENCODING 1072
SWIDTH 604 0
DWIDTH 10 0
BBX 9 9 0 0
BITMAP
029DEEB300
03FECEFE10
004001EF50
018CEFFF70
0DFE86EF70
3FF400EF70
4FF305FF70
1EFECFEF70
04DFD65F70
ENDCHAR
STARTCHAR afii10066
ENCODING 1073
SWIDTH 622 0
DWIDTH 10 0
BBX 10 13 0 0
BITMAP
000037ACE1
002CFFFFF2
02EFD97430
09FA000000
0EF6AEE900
2FFEEDFF80
4FFB109FF0
4FF3004FF2
3FF4003FF3
1FF7005FF1
0BFD21BFC0
02EFFFFF40
003BEEB400
ENDCHAR
STARTCHAR afii10067
ENCODING 1074
SWIDTH 639 0
DWIDTH 10 0
BBX 9 9 1 0
BITMAP
BFFFFEB300
BFDAADFE10
BFA003FF40
BFA006FF20
BFFFFFE500
BFD9ACFE30
BFA000EF80
BFDAACFF50
BFFFFEC600
ENDCHAR
STARTCHAR afii10068
ENCODING 1075
SWIDTH 478 0
DWIDTH 8 0
BBX 7 9 1 0
BITMAP
BFFFFF40
BFECCC30
BFA00000
BFA00000
BFA00000
BFA00000
BFA00000
BFA00000
BFA00000
ENDCHAR
STARTCHAR afii10069
ENCODING 1076
SWIDTH 664 0
DWIDTH 11 0
BBX 11 12 0 -3
BITMAP
002FFFFFF200
004FFCDFF200
006FC04FF200
009F904FF200
00DF604FF200
03FF204FF200
0AFC004FF200
9FFDBBCFFC40
CFFFFFFFFF60
CF600000BF60
CF600000BF60
CF600000BF60
ENDCHAR
STARTCHAR afii10070
ENCODING 1077
SWIDTH 590 0
DWIDTH 9 0
BBX 9 9 0 0
BITMAP
005CFEA200
06FFCDFD10
0EF901DF70
3FF4008FA0
4FFFFFFFB0
3FFA999970
0EF8000110
05FFECDF40
004BEFEA20
ENDCHAR
STARTCHAR afii10072
ENCODING 1078
SWIDTH 873 0
DWIDTH 14 0
BBX 14 9 0 0
BITMAP
5FE202FF103FF5
09FC02FF11DF80
00CF82FF19FC00
002EF6FF6FE200
000AFCFFDFA000
005FE4FF4EF500
02EF52FF16FE20
1CFA02FF10AFC0
9FD102FF101DF9
ENDCHAR
STARTCHAR afii10073
ENCODING 1079
SWIDTH 555 0
DWIDTH 9 0
BBX 9 9 0 0
BITMAP
29CEFEA200
1EFDCEFD00
031015FE00
007FFFC300
004ABFF900
000003FF30
330005FF30
6FFDEFFB00
3BEFED8100
ENDCHAR
STARTCHAR afii10074
ENCODING 1080
SWIDTH 720 0
DWIDTH 12 0
BBX 10 9 1 0
BITMAP
BF8001DFF4
BF8008FFF4
BF803FFFF4
BF80CF9EF4
BF87FE1FF4
BF9FF50FF4
BFFFB00FF4
BFFE200FF4
BFF6000FF4
ENDCHAR
STARTCHAR afii10075
ENCODING 1081
SWIDTH 720 0
DWIDTH 12 0
BBX 10 13 1 0
BITMAP
0EF300AF70
09FC68FE20
018DFEB300
0000000000
BF8001DFF4
BF8008FFF4
BF803FFFF4
BF80CF9EF4
BF87FE1FF4
BF9FF50FF4
BFFFB00FF4
BFFE200FF4
BFF6000FF4
ENDCHAR
STARTCHAR afii10076
ENCODING 1082
SWIDTH 619 0
DWIDTH 10 0
BBX 9 9 1 0
BITMAP
BFA006FF30
BFA03FF600
BFA1DF9000
BFAAFC0000
BFCFF60000
BFA8FE2000
BFA0BFD100
BFA01DFA00
BFA003FF80
ENDCHAR
STARTCHAR afii10077
ENCODING 1083
SWIDTH 645 0
DWIDTH 10 0
BBX 10 9 0 0
BITMAP
009FFFFFF1
00AFDCDFF1
00BF605FF1
00DF505FF1
00FF305FF1
03FF105FF1
19FC005FF1
FFF6005FF1
DE90005FF1
ENDCHAR
STARTCHAR afii10078
ENCODING 1084
SWIDTH 844 0
DWIDTH 14 0
BBX 12 9 1 0
BITMAP
BFFB0003FFF4
BFFF2009FFF4
BFDF801EDFF4
BF9FD06F9FF4
BF7CF3BF5FF4
BF77F8FE0FF4
BF71FEF90FF4
BF70AFF30FF4
BF704FC00FF4
ENDCHAR
STARTCHAR afii10079
ENCODING 1085
SWIDTH 662 0
DWIDTH 11 0
BBX 9 9 1 0
BITMAP
BFA000FF50
BFA000FF50
BFA000FF50
BFFFFFFF50
BFECCCFF50
BFA000FF50
BFA000FF50
BFA000FF50
BFA000FF50
ENDCHAR
STARTCHAR afii10080
ENCODING 1086
SWIDTH 619 0
DWIDTH 10 0
BBX 10 9 0 0
BITMAP
005CEEB300
06FFFFFF40
0EFB11CFC0
3FF4005FF1
4FF3004FF2
3FF4005FF1
0DFB11CFD0
05FFFFFF40
004BEEB400
ENDCHAR
STARTCHAR afii10081
ENCODING 1087
SWIDTH 651 0
DWIDTH 10 0
BBX 9 9 1 0
BITMAP
BFFFFFFF30
BFECCDFF30
BFA003FF30
BFA003FF30
BFA003FF30
BFA003FF30
BFA003FF30
BFA003FF30
BFA003FF30
ENDCHAR
STARTCHAR afii10082
ENCODING 1088
SWIDTH 632 0
DWIDTH 10 0
BBX 9 13 1 -4
BITMAP
BF58EEA100
BFEFEFFA00
BFE308FF20
BFB002FF40
BFA001FF60
BFB002FF50
BFF308FF20
BFFFFFFA00
BF99EE9100
BFA0000000
BFA0000000
BFA0000000
BFA0000000
ENDCHAR
STARTCHAR afii10083
ENCODING 1089
SWIDTH 514 0
DWIDTH 8 0
BBX 8 9 0 0
BITMAP
005CEEC5
06FFFFF6
0EFB1041
3FF40000
4FF30000
3FF40000
1EFB1034
08FFFFF7
007DFEB3
ENDCHAR
STARTCHAR afii10084
ENCODING 1090
SWIDTH 553 0
DWIDTH 9 0
BBX 9 9 0 0
BITMAP
9FFFFFFF70
7CCEFECC60
000CF90000
000CF90000
000CF90000
000CF90000
000CF90000
000CF90000
000CF90000
ENDCHAR
STARTCHAR afii10085
ENCODING 1091
SWIDTH 568 0
DWIDTH 9 0
BBX 9 13 0 -4
BITMAP
CFC0009FE0
6FF100EF80
1FF604FF30
0AFB08FD00
04FF1DF700
00DF7FF200
007FDFB000
002FFF6000
000BFF1000
000BFA0000
005FF40000
7EFFA00000
6FD8000000
ENDCHAR
STARTCHAR afii10086
ENCODING 1092
SWIDTH 813 0
DWIDTH 13 0
BBX 13 17 0 -4
BITMAP
000009FA000000
000009FA000000
000009FA000000
000009FA000000
0029DFFFC81000
04EFFEFEFFE300
0DFD29FA2DFD00
3FF609FA05FF30
4FF309FA03FF40
2FF509FA05FF30
0CFD29FA2DFD00
03DFFEFEFFE300
0018CFFFC81000
000009FA000000
000009FA000000
000009FA000000
000009FA000000
ENDCHAR
STARTCHAR afii10087
ENCODING 1093
SWIDTH 578 0
DWIDTH 9 0
BBX 9 9 0 0
BITMAP
7FF301EFB0
0CFC08FE20
03FF8FF600
008FFFC000
002FFF6000
00AFFFD100
05FF5EF800
1DFA06FF30
9FE200CFC0
ENDCHAR
STARTCHAR afii10088
ENCODING 1094
SWIDTH 687 0
DWIDTH 11 0
BBX 10 12 1 -3
BITMAP
BFA000DF80
BFA000DF80
BFA000DF80
BFA000DF80
BFA000DF80
BFA000DF80
BFA000DF80
BFECCCFFD9
BFFFFFFFFC
00000005FC
00000005FC
00000005FC
ENDCHAR
STARTCHAR afii10089
ENCODING 1095
SWIDTH 655 0
DWIDTH 11 0
BBX 9 9 1 0
BITMAP
FF5002FF40
FF5002FF40
FF5002FF40
FF6004FF40
BFECDFFF40
2AEEB7FF40
000002FF40
000002FF40
000002FF40
ENDCHAR
STARTCHAR afii10090
ENCODING 1096
SWIDTH 969 0
DWIDTH 16 0
BBX 14 9 1 0
BITMAP
BFA007FE002FF4
BFA007FE002FF4
BFA007FE002FF4
BFA007FE002FF4
BFA007FE002FF4
BFA007FE002FF4
BFA007FE002FF4
BFECCDFFCCCFF4
BFFFFFFFFFFFF4
ENDCHAR
STARTCHAR afii10091
ENCODING 1097
SWIDTH 984 0
DWIDTH 16 0
BBX 15 12 1 -3
BITMAP
BFA007FE002FF400
BFA007FE002FF400
BFA007FE002FF400
BFA007FE002FF400
BFA007FE002FF400
BFA007FE002FF400
BFA007FE002FF400
BFECCDFFCCCFFC60
BFFFFFFFFFFFFF80
0000000000009F80
0000000000009F80
0000000000009F80
ENDCHAR
STARTCHAR afii10092
ENCODING 1098
SWIDTH 709 0
DWIDTH 11 0
BBX 11 9 0 0
BITMAP
FFFFF3000000
CCDFF3000000
003FF3000000
003FFFFFC700
003FFBACFF60
003FF300AFB0
003FF300BFA0
003FFBACFF50
003FFFFEC600
ENDCHAR
STARTCHAR afii10093
ENCODING 1099
SWIDTH 850 0
DWIDTH 14 0
BBX 12 9 1 0
BITMAP
BFA000000FF5
BFA000000FF5
BFA000000FF5
BFFFEC600FF5
BFDACFF50FF5
BFA00CF90FF5
BFA00CF90FF5
BFDACFF40FF5
BFFFEC500FF5
ENDCHAR
STARTCHAR afii10094
ENCODING 1100
SWIDTH 613 0
DWIDTH 10 0
BBX 9 9 1 0
BITMAP
BFA0000000
BFA0000000
BFA0000000
BFFFFEA200
BFDAAEFD00
BFA003FF30
BFA004FF20
BFDAAEFC00
BFFFFD9200
ENDCHAR
STARTCHAR afii10095
ENCODING 1101
SWIDTH 512 0
DWIDTH 8 0
BBX 8 9 0 0
BITMAP
2ADFD910
1EDCFFB0
02006FF3
00001FF6
04FFFFF7
02999FF6
21005FF2
6FDDFFA0
3BEFD800
ENDCHAR
STARTCHAR afii10096
ENCODING 1102
SWIDTH 876 0
DWIDTH 14 0
BBX 13 9 1 0
BITMAP
BFA003AEFC5000
BFA02EFFFFF600
BFA09FE309FE00
BFFFFFB003FF30
BFECEF9002FF40
BFA09FB003FF30
BFA05FE309FE00
BFA00CFFFFF700
BFA0019EFC6000
ENDCHAR
STARTCHAR afii10097
ENCODING 1103
SWIDTH 592 0
DWIDTH 9 0
BBX 9 9 0 0
BITMAP
03AEFFFF40
1EFDABFF40
4FF102FF40
4FF502FF40
0CFFFFFF40
00DFCAFF40
05FE12FF40
1EF702FF40
AFD002FF40
ENDCHAR
STARTCHAR uni0450
ENCODING 1104
SWIDTH 590 0
DWIDTH 9 0
BBX 9 13 0 0
BITMAP
00BFD00000
001BF80000
0001AF3000
0000000000
005CFEA200
06FFCDFD10
0EF901DF70
3FF4008FA0
4FFFFFFFB0
3FFA999970
0EF8000110
05FFECDF40
004BEFEA20
ENDCHAR
STARTCHAR afii10071
ENCODING 1105
SWIDTH 590 0
DWIDTH 9 0
BBX 9 13 0 0
BITMAP
0001001000
00AF47F600
009E36E500
0000000000
005CFEA200
06FFCDFD10
0EF901DF70
3FF4008FA0
4FFFFFFFB0
3FFA999970
0EF8000110
05FFECDF40
004BEFEA20
ENDCHAR
STARTCHAR afii10099
ENCODING 1106
SWIDTH 657 0
DWIDTH 11 0
BBX 10 17 0 -4
BITMAP
0BFA000000
FFFFFF1000
8DFD881000
0BF9000000
0BF98EEB20
0BFEFEFFD0
0BFF506FF3
0BFC001FF5
0BFA001FF5
0BFA001FF5
0BFA001FF5
0BFA001FF5
0BFA001FF5
0000001FF5
0000004FF3
00000EFFE1
00000DEC40
ENDCHAR
STARTCHAR afii10100
ENCODING 1107
SWIDTH 478 0
DWIDTH 8 0
BBX 7 13 1 0
BITMAP
000AFE20
004FE200
01ED2000
00000000
BFFFFF40
BFECCC30
BFA00000
BFA00000
BFA00000
BFA00000
BFA00000
BFA00000
BFA00000
ENDCHAR
STARTCHAR afii10101
ENCODING 1108
SWIDTH 523 0
DWIDTH 8 0
BBX 8 9 0 0
BITMAP
006CEEC7
07FFDCF8
0EFA0011
3FF40000
4FFFFF70
3FFA9940
0EF80013
07FFDDF9
005CEEC5
ENDCHAR
STARTCHAR afii10102
ENCODING 1109
SWIDTH 497 0
DWIDTH 8 0
BBX 8 9 0 0
BITMAP
03BEED91
1EFDCFD0
3FF30130
1EFF9300
04DFFF80
0005CFF3
23001FF4
4FECDFE1
2BEFEB30
ENDCHAR
STARTCHAR afii10103
ENCODING 1110
SWIDTH 305 0
DWIDTH 5 0
BBX 3 13 1 0
BITMAP
9F70
BFA0
1510
0000
BFA0
BFA0
BFA0
BFA0
BFA0
BFA0
BFA0
BFA0
BFA0
ENDCHAR
STARTCHAR afii10104
ENCODING 1111
SWIDTH 305 0
DWIDTH 5 0
BBX 7 13 -1 0
BITMAP
01000000
1EC0DE10
1DB0CD10
00000000
00BFA000
00BFA000
00BFA000
00BFA000
00BFA000
00BFA000
00BFA000
00BFA000
00BFA000
ENDCHAR
STARTCHAR afii10105
ENCODING 1112
SWIDTH 305 0
DWIDTH 5 0
BBX 5 17 -1 -4
BITMAP
009F70
00BFA0
001510
000000
00BFA0
00BFA0
00BFA0
00BFA0
00BFA0
00BFA0
00BFA0
00BFA0
00BFA0
00BFA0
01EF80
FFFF40
EFD600
ENDCHAR
STARTCHAR afii10106
ENCODING 1113
SWIDTH 888 0
DWIDTH 14 0
BBX 14 9 0 0
BITMAP
009FFFFFB00000
00AFDCEFB00000
00BF60AFB00000
00DF50AFFFEC50
00FF30AFEACFF4
03FF10AFB00DF9
19FC00AFB00DF8
FFF600AFEACFF4
DE9000AFFFEC50
ENDCHAR
STARTCHAR afii10107
ENCODING 1114
SWIDTH 888 0
DWIDTH 14 0
BBX 13 9 1 0
BITMAP
BFA00AFB000000
BFA00AFB000000
BFA00AFB000000
BFFFFFFFFEC500
BFECCEFEACFF40
BFA00AFB00DF90
BFA00AFB00DF80
BFA00AFEACFF40
BFA00AFFFEC500
ENDCHAR
STARTCHAR afii10108
ENCODING 1115
SWIDTH 657 0
DWIDTH 11 0
BBX 10 13 0 0
BITMAP
0BFA000000
FFFFFF1000
8DFD881000
0BF9000000
0BF98EEB20
0BFEFEFFD0
0BFF507FF3
0BFC002FF4
0BFA001FF5
0BFA001FF5
0BFA001FF5
0BFA001FF5
0BFA001FF5
ENDCHAR
STARTCHAR afii10109
ENCODING 1116
SWIDTH 619 0
DWIDTH 10 0
BBX 9 13 1 0
BITMAP
00008FE300
0003FE4000
000DE30000
0000000000
BFA006FF30
BFA03FF600
BFA1DF9000
BFAAFC0000
BFCFF60000
BFA8FE2000
BFA0BFD100
BFA01DFA00
BFA003FF80
ENDCHAR
STARTCHAR uni045D
ENCODING 1117
SWIDTH 720 0
DWIDTH 12 0
BBX 10 13 1 0
BITMAP
02DFA00000
002DF50000
0002DE1000
0000000000
BF8001DFF4
BF8008FFF4
BF803FFFF4
BF80CF9EF4
BF87FE1FF4
BF9FF50FF4
BFFFB00FF4
BFFE200FF4
BFF6000FF4
ENDCHAR
STARTCHAR afii10110
ENCODING 1118
SWIDTH 568 0
DWIDTH 9 0
BBX 9 17 0 -4
BITMAP
2FF000EF30
0CFA6AFD00
02ADFD9200
0000000000
CFC0009FE0
6FF100EF80
1FF604FF30
0AFB08FD00
04FF1DF700
00DF7FF200
007FDFB000
002FFF6000
000BFF1000
000BFA0000
005FF40000
7EFFA00000
6FD8000000
ENDCHAR
STARTCHAR afii10193
ENCODING 1119
SWIDTH 671 0
DWIDTH 11 0
BBX 9 12 1 -3
BITMAP
BFA000DF80
BFA000DF80
BFA000DF80
BFA000DF80
BFA000DF80
BFA000DF80
BFA000DF80
BFECCCFF80
BFFFFFFF80
000AF70000
000AF70000
000AF70000
ENDCHAR
STARTCHAR uni0460
ENCODING 1120
SWIDTH 1087 0
DWIDTH 17 0
BBX 17 12 0 0
BITMAP
0019EEB4019DEB4000
01CFFFF701FFFFF400
07FF404100411CFD00
0CFA0000000004FF30
0FF60000000000FF60
1FF50000000000EF70
0FF60008FD0000FF70
0EF80008FD0002FF50
0AFD0008FD0007FF20
04FFA33CFE526FFB00
009FFFFFFFFFFFE200
0006CFEA27DFE92000
ENDCHAR
STARTCHAR uni0461
ENCODING 1121
SWIDTH 884 0
DWIDTH 14 0
BBX 14 9 0 0
BITMAP
CFA00DFC000DF8
7FE008FF100EF7
2FF403FF500FF5
0BF804FF902FF3
06FD0AFFE06FE0
01FF3FFFF3BF90
00BFAFACFAFF20
006FFF46FFF800
001FFC01EFB000
ENDCHAR
STARTCHAR uni0462
ENCODING 1122
SWIDTH 672 0
DWIDTH 11 0
BBX 10 13 0 0
BITMAP
00FF600000
00FF600000
FFFFFFF500
CCFFDCC400
00FF600000
00FFFFEA30
00FFFFFFF4
00FF603DFC
00FF6007FF
00FF6007FF
00FF604EFC
00FFFFFFF4
00FFFFEA30
ENDCHAR
STARTCHAR uni0463
ENCODING 1123
SWIDTH 662 0
DWIDTH 11 0
BBX 10 11 0 0
BITMAP
00FF600000
00FF600000
FFFFFFF300
CCFFDCC200
00FF600000
00FFFFFD91
00FFCABFFA
00FF6007FE
00FF6007FE
00FFCABFF9
00FFFFED81
ENDCHAR
STARTCHAR uni0464
ENCODING 1124
SWIDTH 950 0
DWIDTH 15 0
BBX 14 12 1 0
BITMAP
8FD00006CEED93
8FD000BFFFFFF5
8FD009FF721490
8FD01FF8000000
8FD05FF2000000
8FFFFFFFFFFC00
8FFFFFFFFFFC00
8FD07FF2000000
8FD04FF7000000
8FD00DFF721362
8FD003EFFFFFF3
8FD00029DFED91
ENDCHAR
STARTCHAR uni0465
ENCODING 1125
SWIDTH 799 0
DWIDTH 13 0
BBX 12 9 1 0
BITMAP
BFA003ADFD91
BFA02EFECEC0
BFA07FE10020
BFFFFFFFFF10
BFECEFECCC10
BFA08FE00000
BFA04FF50021
BFA00BFFCDF4
BFA0018DFEB2
ENDCHAR
STARTCHAR uni0466
ENCODING 1126
SWIDTH 729 0
DWIDTH 12 0
BBX 12 12 0 0
BITMAP
0000CFF70000
0003FEFD0000
0008F8CF3000
000EF27F9000
004FC02FE000
00AFFFFFF500
01EFDFFFFA00
05FC3FE3FF10
0BF73FE0CF60
2FF23FE07FC0
7FD03FE03FF2
CF803FE00DF8
ENDCHAR
STARTCHAR uni0467
ENCODING 1127
SWIDTH 640 0
DWIDTH 10 0
BBX 11 9 0 0
BITMAP
0008FFB00000
000EFDF20000
005FB6F90000
00BF41EE1000
02FFFFFF6000
09FCFFBFC000
1EF2EF3EF300
6FC0EF29F900
CF70EF23FF10
ENDCHAR
STARTCHAR uni0468
ENCODING 1128
SWIDTH 1004 0
DWIDTH 16 0
BBX 15 12 1 0
BITMAP
8FD00006FFD00000
8FD0000BFEF40000
8FD0002FE7F90000
8FD0007F92FE1000
8FD000CF30CF5000
8FFFFFFFDDEFB000
8FFFFFFFFFFFF100
8FD00DF4CF5BF700
8FD04FD0CF56FC00
8FD0AF90CF51FF30
8FD1FF40CF50BF80
8FD6FE00CF506FD0
ENDCHAR
STARTCHAR uni0469
ENCODING 1129
SWIDTH 901 0
DWIDTH 14 0
BBX 14 9 1 0
BITMAP
BF50005FFE0000
BF5000CFCF5000
BF5005FB2FB000
BFFFFFFECEF300
BFDCDFEEFDF900
BF508F8BF5EE10
BF50DF4BF59F60
BF54FE0BF55FC0
BF59FA0BF51FF3
ENDCHAR
STARTCHAR uni046A
ENCODING 1130
SWIDTH 804 0
DWIDTH 13 0
BBX 13 12 0 0
BITMAP
09FFFFFFFFF800
05FFFFFFFFF400
008FC101DF7000
000CF80AFA0000
0002EFAFD10000
0019FFFFE80000
00AFFEFEFF8000
03FF5BFA7FF100
08FC0BFA0EF600
0DF80BFA0AFB00
3FF30BFA05FF10
8FD00BFA01FF60
ENDCHAR
STARTCHAR uni046B
ENCODING 1131
SWIDTH 623 0
DWIDTH 10 0
BBX 10 9 0 0
BITMAP
3FFFFFFFF3
0BFE99DFB0
01EF33FE10
004FDDF500
01AFFFFA00
08FCFFCF80
0EE1FF2FE0
5FA0FF1AF5
AF50FF15FA
ENDCHAR
STARTCHAR uni046C
ENCODING 1132
SWIDTH 1073 0
DWIDTH 17 0
BBX 16 12 1 0
BITMAP
8FD05FFFFFFFFFD0
8FD01EFFFFFFFF80
8FD005FE300AFB00
8FD000AFC06FE100
8FD0001DFAEF4000
8FFFFFFFFFFFB100
8FFFFFFFEFFEFC00
8FD00CF97FE2FF50
8FD04FF27FE0AFB0
8FD09FC07FE05FF1
8FD0DF807FE01FF6
8FD3FF307FE00BFB
ENDCHAR
STARTCHAR uni046D
ENCODING 1133
SWIDTH 879 0
DWIDTH 14 0
BBX 13 9 1 0
BITMAP
BF51FFFFFFFF50
BF50AFE99DFC00
BF501EF31EE200
BF5006FC9F6000
BFFFFFFFFFB100
BFDCEFDEFCF900
BF50DF2EF3EF10
BF53FC0EF29F60
BF58F70EF24FB0
ENDCHAR
STARTCHAR uni046E
ENCODING 1134
SWIDTH 631 0
DWIDTH 10 0
BBX 10 18 0 -4
BITMAP
01DD23BE70
002DEED520
06BFFFE800
4FFFDEFF90
0850009FF0
0000005FF0
000014DF90
00BFFFD700
009EEFFC40
0000029FF2
0000001FF6
0000018FF4
05BDEFFFB0
5FFFFDB500
9FC1000000
7FFCCCD900
08DFFEED00
0000000100
ENDCHAR
STARTCHAR uni046F
ENCODING 1135
SWIDTH 555 0
DWIDTH 9 0
BBX 9 14 0 -3
BITMAP
08F506ED00
00BF9F9400
2BEFFFB300
0EDBADFD00
010015FE00
007FFFC300
004ABFF900
000003FF30
000005FF30
05ACEFFC00
6FFFEC8100
AF70000000
9FECCCC100
1BEFFEF200
ENDCHAR
STARTCHAR uni0470
ENCODING 1136
SWIDTH 875 0
DWIDTH 14 0
BBX 14 12 0 0
BITMAP
2FF201FF101FF3
2FF201FF101FF3
2FF201FF101FF3
2FF201FF101FF3
1FF401FF103FF2
0DFC32FF23CFD0
05FFFFFFFFFF50
004ADEFFEDA400
000001FF100000
000001FF100000
000001FF100000
000001FF100000
ENDCHAR
STARTCHAR uni0471
ENCODING 1137
SWIDTH 836 0
DWIDTH 13 0
BBX 12 17 1 -4
BITMAP
00005FD00000
00005FD00000
00005FD00000
00005FD00000
DF605FD02FF1
DF605FD00EF4
DF605FD00CF6
DF605FD00BF7
DF605FD00AF8
CF805FD00CF6
8FD25FD07FF2
1DFFEFFEFF70
018DFFFEB400
00005FD00000
00005FD00000
00005FD00000
00005FD00000
ENDCHAR
STARTCHAR uni0472
ENCODING 1138
SWIDTH 795 0
DWIDTH 13 0
BBX 11 12 1 0
BITMAP
005BEFEA3000
09FFFFFFF500
5FFB314DFE10
BFE10004FF70
EF900000DFA0
FFFFFFFFFFC0
FFFFFFFFFFC0
EF900000DFA0
BFD10003FF70
4FFB314DFE10
08FFFFFFF500
005BEFEA3000
ENDCHAR
STARTCHAR uni0473
ENCODING 1139
SWIDTH 619 0
DWIDTH 10 0
BBX 10 9 0 0
BITMAP
005CEEB300
06FFFFFF40
0EFB11CFC0
3FF5006FF1
4FFFFFFFF2
3FFBAACFF1
0DF901AFD0
05FFFFFF40
004BEEB400
ENDCHAR
STARTCHAR uni0474
ENCODING 1140
SWIDTH 716 0
DWIDTH 11 0
BBX 12 12 0 0
BITMAP
DF9000007EE3
8FD00004FFF4
3FF3000AFC11
0DF7000EF500
08FC004FF100
03FF109FA000
00DF60EF5000
009FA3FF1000
004FD7FA0000
000EFCF50000
0009FFF10000
0004FFA00000
ENDCHAR
STARTCHAR uni0475
ENCODING 1141
SWIDTH 604 0
DWIDTH 10 0
BBX 10 9 0 0
BITMAP
CFA0002BE8
7FE000AFF9
1FF401FF50
0BF906FD00
05FE0BF800
00EF4FF200
009FBFB000
003FFF5000
000DFE1000
ENDCHAR
STARTCHAR uni0476
ENCODING 1142
SWIDTH 716 0
DWIDTH 11 0
BBX 12 16 0 0
BITMAP
07FD6FE10000
00AF59F70000
000BD0AE1000
000000000000
DF9000007EE3
8FD00004FFF4
3FF3000AFC11
0DF7000EF500
08FC004FF100
03FF109FA000
00DF60EF5000
009FA3FF1000
004FD7FA0000
000EFCF50000
0009FFF10000
0004FFA00000
ENDCHAR
STARTCHAR uni0477
ENCODING 1143
SWIDTH 604 0
DWIDTH 10 0
BBX 10 13 0 0
BITMAP
3FF4EF4000
06F95FB000
007F26F300
0000000000
CFA0002BE8
7FE000AFF9
1FF401FF50
0BF906FD00
05FE0BF800
00EF4FF200
009FBFB000
003FFF5000
000DFE1000
ENDCHAR
STARTCHAR uni0478
ENCODING 1144
SWIDTH 1318 0
DWIDTH 21 0
BBX 21 16 0 -4
BITMAP
0007CEFC71000000000000
00BFFFFFFC000000000000
06FF9227FF700000000000
0BFC0000BFD0CFC0009FE0
0EF800007FF16FF100EF80
1FF700005FF21FF604FF30
1FF700005FF20AFB08FD00
0EF800007FF104FF1DF700
0BFC0000BFD000DF7FF200
06FF9228FF70007FDFB000
00BFFFFFFC00002FFF6000
0007CEEC7100000BFF1000
000000000000000BFA0000
000000000000005FF40000
0000000000007EFFA00000
0000000000006FD8000000
ENDCHAR
STARTCHAR uni0479
ENCODING 1145
SWIDTH 1145 0
DWIDTH 18 0
BBX 19 13 0 -4
BITMAP
005CEEB309FE0006FF20
06FFFFFF43FF500BFC00
0EFB11CFC0CF901FF600
3FF4005FF17FE05FF100
4FF3004FF21FF4AFA000
3FF4005FF10AF9EF5000
0DFB11CFD004FDFE0000
05FFFFFF4000DFF90000
004BEEB400008FF40000
0000000000007FD00000
000000000003EF700000
0000000003EFFD100000
0000000003EEA2000000
ENDCHAR
STARTCHAR uni047A
ENCODING 1146
SWIDTH 835 0
DWIDTH 13 0
BBX 13 14 0 -1
BITMAP
000003E8000000
0005BEFFD81000
008FFFFFFFD100
04FFB4967FFA00
0BFE100009FF10
0EF9000003FF50
1FF7000001FF60
0FF7000001FF60
0EF9000003FF50
0AFE100009FF10
04FFB4957FFA00
008FFFFFFFD100
0005BFFFD81000
000003E8000000
ENDCHAR
STARTCHAR uni047B
ENCODING 1147
SWIDTH 679 0
DWIDTH 11 0
BBX 11 11 0 -1
BITMAP
00005E300000
004BFFEA2000
05FFFFFFE300
0DFA392CFB00
2FF40006FF00
4FF30005FF20
2FF40006FF00
0DF9151BFB00
04FFEFEFE300
003BFFEA3000
00005E400000
ENDCHAR
STARTCHAR uni047C
ENCODING 1148
SWIDTH 1087 0
DWIDTH 17 0
BBX 17 17 0 0
BITMAP
0000008EECA8100000
000001FCACEF100000
00000004EA00000000
00000001BD00000000
00000005C300000000
0019EEB3018DEB4000
01CFFFF601EFFFF400
07FF404100411CFD00
0CFA0000000004FF30
0FF60000000000FF60
1FF50000000000EF70
0FF60000000000FF70
0EF80000000002FF50
0AFD0000610007FF20
04FF9239FD425EFB00
009FFFFFEFFFFFE200
0006CFEA16DFE92000
ENDCHAR
STARTCHAR uni047D
ENCODING 1149
SWIDTH 890 0
DWIDTH 14 0
BBX 14 15 0 0
BITMAP
00004DFDB94000
0000AEABDF7000
000000CD100000
000000DF400000
0000004F300000
000001C6000000
008DFD52CFEA20
09FFCE30DCFFC0
1FF90000005FF4
3FF40000000FF7
4FF30000000EF8
3FF50000001FF7
0EFB0058007FF3
07FFDDFFEDFFB0
006DFD85CFD810
ENDCHAR
STARTCHAR uni047E
ENCODING 1150
SWIDTH 1087 0
DWIDTH 17 0
BBX 17 15 0 0
BITMAP
000008FFFFFE000000
000004C4C589000000
000000202011000000
0019EEB3018DEB4000
01CFFFF601EFFFF400
07FF404100411CFD00
0CFA0000000004FF30
0FF60000000000FF60
1FF50000000000EF70
0FF60008FD0000FF70
0EF80008FD0002FF50
0AFD0008FD0007FF20
04FFA33CFF626FFB00
009FFFFFEFFFFFE200
0006CFEA16DFE92000
ENDCHAR
STARTCHAR uni047F
ENCODING 1151
SWIDTH 884 0
DWIDTH 14 0
BBX 14 12 0 0
BITMAP
0006FFFFFF1000
0001D4A65B0000
00000000000000
CFA00EF8000DF8
6FE009FD000EF7
1FF403FF200FF5
0BF903FF702FF2
05FD09FFC06FE0
01EF2EFFF1BF80
00AFAFBCF9FE10
004FFF67FFF600
000EFE12FFA000
ENDCHAR
STARTCHAR uni0480
ENCODING 1152
SWIDTH 676 0
DWIDTH 11 0
BBX 10 16 1 -4
BITMAP
0039DFEC71
05FFFFFFE1
2FFC312670
9FE1000000
DFA0000000
FF70000000
FF70000000
EF90000000
AFE1000000
4FFC311310
07FFFFFF20
004AEFFF20
000004FF20
000004FF20
000004FF20
000004FF20
ENDCHAR
STARTCHAR uni0481
ENCODING 1153
SWIDTH 523 0
DWIDTH 8 0
BBX 8 13 0 -4
BITMAP
006CEEC6
07FFFFF8
0EFB1032
3FF40000
4FF30000
2FF40000
0EFB1010
06FFFEF1
004BEFF1
00004FF1
00004FF1
00004FF1
00004FF1
ENDCHAR
STARTCHAR uni0482
ENCODING 1154
SWIDTH 608 0
DWIDTH 10 0
BBX 9 10 0 0
BITMAP
0000003B00
000840B900
0007ECE100
00002FF810
01007C3BB0
1E93E40010
02BFC00000
004ECD4000
00C7066000
02C1000000
ENDCHAR
STARTCHAR uni0483
ENCODING 1155
SWIDTH 557 0
DWIDTH 9 0
BBX 7 4 1 9
BITMAP
00000100
02333F70
8FFFFF50
6D000000
ENDCHAR
STARTCHAR uni0484
ENCODING 1156
SWIDTH 577 0
DWIDTH 9 0
BBX 8 2 1 10
BITMAP
18ACEE80
1FECACF1
ENDCHAR
STARTCHAR uni0485
ENCODING 1157
SWIDTH 577 0
DWIDTH 9 0
BBX 3 3 3 10
BITMAP
3EC0
4F60
08C0
ENDCHAR
STARTCHAR uni0486
ENCODING 1158
SWIDTH 577 0
DWIDTH 9 0
BBX 3 3 3 10
BITMAP
4EB0
1BE0
4C40
ENDCHAR
STARTCHAR uni0488
ENCODING 1160
SWIDTH 988 0
DWIDTH 16 0
BBX 16 14 0 -3
BITMAP
0000003B90000000
0000009156000000
008C50000008C500
0371A00000371A00
0000000000000000
0000000000000000
2BA1000000003BA1
8238000000009156
0000000000000000
0000000000000000
008C50000008C500
0371A00000371A00
0000003B90000000
0000009156000000
ENDCHAR
STARTCHAR uni0489
ENCODING 1161
SWIDTH 956 0
DWIDTH 15 0
BBX 15 15 0 -3
BITMAP
0000000450000000
0000000B40000000
0046001F10003100
001E2000003CB200
0008500000260000
0000000000000000
3100000000003000
6DD100000000AE90
0030000000000140
0000000000000000
0001200000060000
003D9000002E2000
0083000B60069000
0000000E10002000
0000001800000000
ENDCHAR
STARTCHAR uni048A
ENCODING 1162
SWIDTH 916 0
DWIDTH 15 0
BBX 14 19 1 -3
BITMAP
02FF000DF40000
00CFA6AFD00000
002ADFDA200000
00000000000000
8F900007FFB000
8F90001EFFB000
8F90009FFFB000
8F9003FF9FB000
8F900CFA6FB000
8F905FF26FB000
8F91DF806FB000
8F98FE106FB000
8FAEF6006FB000
8FFFC0006FB110
8FFF30006FFFF3
8FFA00006FFFE0
00000000008FA0
0000000001EF50
0000000007FF10
ENDCHAR
STARTCHAR uni048B
ENCODING 1163
SWIDTH 801 0
DWIDTH 13 0
BBX 12 16 1 -3
BITMAP
0EF300BF7000
09FC68FE2000
019DFEB30000
000000000000
BF8001DFF400
BF8008FFF400
BF803FFFF400
BF80CF9EF400
BF87FE1FF400
BF9FF50FF400
BFFFB00FF400
BFFE200FFCB6
BFF6000FFFF5
000000000DF1
000000004FC0
000000009F90
ENDCHAR
STARTCHAR uni048C
ENCODING 1164
SWIDTH 616 0
DWIDTH 10 0
BBX 10 12 0 0
BITMAP
08FD000000
9FFFFF3000
9FFFFF3000
08FD000000
08FD000000
08FFFEC810
08FFFFFFC0
08FD017FF5
08FD000FF7
08FD017FF5
08FFFFFFC0
08FFFED810
ENDCHAR
STARTCHAR uni048D
ENCODING 1165
SWIDTH 613 0
DWIDTH 10 0
BBX 10 13 0 0
BITMAP
0BFA000000
0BFA000000
FFFFFF9000
8DFD885000
0BFA000000
0BFA000000
0BFA000000
0BFFFFEA20
0BFDAAEFD0
0BFA003FF3
0BFA004FF2
0BFDAAEFC0
0BFFFFD920
ENDCHAR
STARTCHAR uni048E
ENCODING 1166
SWIDTH 627 0
DWIDTH 10 0
BBX 9 12 1 0
BITMAP
8FFFEC6000
8FFFFFFA00
8FD01AFF20
8FD003FF40
8FD054FF40
8FD1FEFF10
8FFFFFF800
8FFFEEF200
8FD002D300
8FD0000000
8FD0000000
8FD0000000
ENDCHAR
STARTCHAR uni048F
ENCODING 1167
SWIDTH 632 0
DWIDTH 10 0
BBX 9 13 1 -4
BITMAP
BF58EEA100
BFEFEFFA00
BFE308FF20
BFB002FF40
BFA001FF60
BFB069FF50
BFF4BFFF20
BFFFFFFA00
BF99EEF900
BFA0009700
BFA0000000
BFA0000000
BFA0000000
ENDCHAR
STARTCHAR afii10050
ENCODING 1168
SWIDTH 581 0
DWIDTH 9 0
BBX 8 14 1 0
BITMAP
000002FF
000002FF
8FFFFFFF
8FFFFFFF
8FD00000
8FD00000
8FD00000
8FD00000
8FD00000
8FD00000
8FD00000
8FD00000
8FD00000
8FD00000
ENDCHAR
STARTCHAR afii10098
ENCODING 1169
SWIDTH 512 0
DWIDTH 8 0
BBX 7 11 1 0
BITMAP
00008F90
00008F90
BFFFFF90
BFECCC70
BFA00000
BFA00000
BFA00000
BFA00000
BFA00000
BFA00000
BFA00000
ENDCHAR
STARTCHAR uni0492
ENCODING 1170
SWIDTH 559 0
DWIDTH 9 0
BBX 9 12 0 0
BITMAP
08FFFFFF90
08FFFFFF90
08FD000000
08FD000000
08FD000000
9FFFFFF000
9FFFFFF000
08FD000000
08FD000000
08FD000000
08FD000000
08FD000000
ENDCHAR
STARTCHAR uni0493
ENCODING 1171
SWIDTH 491 0
DWIDTH 8 0
BBX 8 9 0 0
BITMAP
0DFFFFF7
0DFFEEE7
0DF70000
0DF70000
FFFFFF10
CFFEDD10
0DF70000
0DF70000
0DF70000
ENDCHAR
STARTCHAR uni0494
ENCODING 1172
SWIDTH 733 0
DWIDTH 12 0
BBX 10 16 1 -4
BITMAP
8FFFFFF900
8FFFFFF900
8FD0000000
8FD0000000
8FD0000000
8FFEFEB400
8FFFFFFF70
8FE447DFF3
8FD0002EF9
8FD00009FD
8FD00007FE
8FD00008FD
0000000CFA
0005339FF5
000CFFFFB0
0009EFD800
ENDCHAR
STARTCHAR uni0495
ENCODING 1173
SWIDTH 602 0
DWIDTH 10 0
BBX 9 13 1 -4
BITMAP
BFFFFFA000
BFFEEE9000
BFA0000000
BFA0000000
BFFFEA2000
BFFFFFE200
BFA15EFA00
BFA006FE00
BFA004FF10
000006FF00
00413DFB00
00CFFFF400
008EEC4000
ENDCHAR
STARTCHAR uni0496
ENCODING 1174
SWIDTH 1028 0
DWIDTH 16 0
BBX 17 15 0 -3
BITMAP
7FE1009FA001DF8000
0BFA009FA009FD0000
02EF509FA03FF30000
007FD19FA0DF800000
000CF99FA7FD000000
0002FFCFCFF4000000
0006FEAFBEF7000000
002EF69FA5FF200000
00BFC09FA0BFB00000
06FF309FA02EF61100
1EF8009FA007FFFF20
AFD1009FA000CFFF20
00000000000003FF20
00000000000003FF20
00000000000003FF20
ENDCHAR
STARTCHAR uni0497
ENCODING 1175
SWIDTH 941 0
DWIDTH 15 0
BBX 15 12 0 -3
BITMAP
5FE202FF103FF500
09FC02FF11DF8000
00CF82FF19FC0000
002EF6FF6FE20000
000AFCFFDFA00000
005FE4FF4EF50000
02EF52FF16FE2000
1CFA02FF10AFDB80
9FD102FF101DFFA0
0000000000007FA0
0000000000007FA0
0000000000007FA0
ENDCHAR
STARTCHAR uni0498
ENCODING 1176
SWIDTH 647 0
DWIDTH 10 0
BBX 10 16 0 -4
BITMAP
039DEED810
1EFFFFFFC0
0682007FF4
0000001FF3
000013AFC0
007FFFD810
006DEFFD60
0000016FF5
0000000CFA
2720005FF8
3FFFEFFFD2
18CEFEC810
0001D90000
00004F5000
00059F6000
0009EB1000
ENDCHAR
STARTCHAR uni0499
ENCODING 1177
SWIDTH 555 0
DWIDTH 9 0
BBX 9 13 0 -4
BITMAP
29CEFEA200
1EFDCEFD00
031015FE00
007FFFC300
004ABFF900
000003FF30
330005FF30
6FFDEFFB00
3BEFED8100
000BB10000
0002F70000
0048F90000
007EC20000
ENDCHAR
STARTCHAR uni049A
ENCODING 1178
SWIDTH 755 0
DWIDTH 12 0
BBX 11 15 1 -3
BITMAP
8FD0006FF300
8FD002EF7000
8FD00CFB0000
8FD08FE10000
8FD3FF400000
8FDDF9000000
8FDBFD000000
8FD2EF800000
8FD06FF40000
8FD00AFD2110
8FD001EFFFC0
8FD0005FFFC0
000000008FC0
000000008FC0
000000008FC0
ENDCHAR
STARTCHAR uni049B
ENCODING 1179
SWIDTH 665 0
DWIDTH 11 0
BBX 10 12 1 -3
BITMAP
BFA006FF30
BFA03FF600
BFA1DF9000
BFAAFC0000
BFCFF50000
BFA8FE2000
BFA0BFC100
BFA01DFDB5
BFA003FFF6
0000000BF6
0000000BF6
0000000BF6
ENDCHAR
STARTCHAR uni049C
ENCODING 1180
SWIDTH 664 0
DWIDTH 11 0
BBX 10 12 1 0
BITMAP
8FD0007FF3
8FD2B4FF70
8FD3EDFA00
8FD3FFD100
8FD7FF3000
8FEFFC0000
8FFFFF5000
8FE5FFE100
8FD3EFF800
8FD3D9FF20
8FD161EFB0
8FD0006FF5
ENDCHAR
STARTCHAR uni049D
ENCODING 1181
SWIDTH 599 0
DWIDTH 10 0
BBX 9 9 1 0
BITMAP
BF7219FC10
BF7BBFE200
BF7BFF4000
BF8DF70000
BFCFE10000
BF7CFB0000
BF7CFF9000
BF7C8EF600
BF7315FF30
ENDCHAR
STARTCHAR uni049E
ENCODING 1182
SWIDTH 643 0
DWIDTH 10 0
BBX 11 12 0 0
BITMAP
0DF8000CFD10
FFFF908FE300
EFFF95FF6000
0DF82EF90000
0DF8CFC10000
0DFEFF700000
0DFFFFE10000
0DFB2EF90000
0DF807FF3000
0DF800DFC000
0DF8005FF600
0DF8000BFE10
ENDCHAR
STARTCHAR uni049F
ENCODING 1183
SWIDTH 620 0
DWIDTH 10 0
BBX 10 13 0 0
BITMAP
0BFA000000
FFFFFF1000
8DFD881000
0BFA000000
0BFA006FF4
0BFA05FF60
0BF93FF700
0BFAEF9000
0BFFFFA000
0BFF8FF600
0BFA08FE20
0BFA00CFC0
0BFA003FF8
ENDCHAR
STARTCHAR uni04A0
ENCODING 1184
SWIDTH 732 0
DWIDTH 12 0
BBX 12 12 0 0
BITMAP
FFFFF0005FF5
FFFFF002EF90
007FF01CFC00
007FF09FE200
007FF5FF5000
007FFEFD0000
007FFFFF7000
007FF3AFE100
007FF02EFA00
007FF007FF40
007FF000DFC0
007FF0005FF7
ENDCHAR
STARTCHAR uni04A1
ENCODING 1185
SWIDTH 694 0
DWIDTH 11 0
BBX 11 9 0 0
BITMAP
FFFFF002EF60
CCDFF00CF900
003FF08FC000
003FF5FE2000
003FFCF90000
003FF3EF5000
003FF06FE200
003FF009FD10
003FF000CFB0
ENDCHAR
STARTCHAR uni04A2
ENCODING 1186
SWIDTH 840 0
DWIDTH 13 0
BBX 13 15 1 -3
BITMAP
8FD00009FC0000
8FD00009FC0000
8FD00009FC0000
8FD00009FC0000
8FD00009FC0000
8FFFFFFFFC0000
8FFFFFFFFC0000
8FD00009FC0000
8FD00009FC0000
8FD00009FC1100
8FD00009FFFF20
8FD00009FFFF20
0000000003FF20
0000000003FF20
0000000003FF20
ENDCHAR
STARTCHAR uni04A3
ENCODING 1187
SWIDTH 743 0
DWIDTH 12 0
BBX 11 12 1 -3
BITMAP
BFA000FF5000
BFA000FF5000
BFA000FF5000
BFFFFFFF5000
BFECCCFF5000
BFA000FF5000
BFA000FF5000
BFA000FFDB60
BFA000FFFF80
00000000AF80
00000000AF80
00000000AF80
ENDCHAR
STARTCHAR uni04A4
ENCODING 1188
SWIDTH 833 0
DWIDTH 13 0
BBX 13 12 1 0
BITMAP
8FD00009FFFF50
8FD00009FFFF50
8FD00009FC0000
8FD00009FC0000
8FD00009FC0000
8FFFFFFFFC0000
8FFFFFFFFC0000
8FD00009FC0000
8FD00009FC0000
8FD00009FC0000
8FD00009FC0000
8FD00009FC0000
ENDCHAR
STARTCHAR uni04A5
ENCODING 1189
SWIDTH 757 0
DWIDTH 12 0
BBX 12 9 1 0
BITMAP
BFA000FFFFF2
BFA000FFDCC1
BFA000FF5000
BFFFFFFF5000
BFECCCFF5000
BFA000FF5000
BFA000FF5000
BFA000FF5000
BFA000FF5000
ENDCHAR
STARTCHAR uni04A6
ENCODING 1190
SWIDTH 1125 0
DWIDTH 18 0
BBX 17 16 1 -4
BITMAP
8FFFFFFFF200000000
8FFFFFFFF200000000
8FD0004FF200000000
8FD0004FF200000000
8FD0004FF200000000
8FD0004FFEFFD70000
8FD0004FFFFFFFB000
8FD0004FF645BFF700
8FD0004FF2000BFD00
8FD0004FF20005FF10
8FD0004FF20003FF30
8FD0004FF20004FF20
00000000000009FE00
0000000003327FF900
0000000008FFFFD100
0000000006DFEA2000
ENDCHAR
STARTCHAR uni04A7
ENCODING 1191
SWIDTH 889 0
DWIDTH 14 0
BBX 13 13 1 -4
BITMAP
BFFFFFFE000000
BFECCDFE000000
BFA007FE000000
BFA007FE000000
BFA007FFFD8000
BFA007FFFFFB00
BFA007FE28FF40
BFA007FE00CF80
BFA007FE00AFA0
0000000000CF90
0000001316FF50
0000003FFFFC00
0000002CFE9100
ENDCHAR
STARTCHAR uni04A8
ENCODING 1192
SWIDTH 776 0
DWIDTH 12 0
BBX 12 13 0 -1
BITMAP
0007CEE90000
00AFFFF80000
05FF81110000
0BFC004CEC40
0EF802FFDFF2
0FF606FD0BF7
1FF608FA09F9
0EF806FB0AF8
0BFE03FE2EF5
05FFB3BFEFD0
009FFFFFFF40
0005CEFEFFEE
000000003CFD
ENDCHAR
STARTCHAR uni04A9
ENCODING 1193
SWIDTH 655 0
DWIDTH 11 0
BBX 10 9 0 0
BITMAP
005CFE4000
06FFEF2000
0EFA07DE90
3FF43FEDF7
4FF26F83FA
3FF45F95F9
0EFA2FEDF3
06FFFFFFDB
005CFEBDFD
ENDCHAR
STARTCHAR uni04AA
ENCODING 1194
SWIDTH 637 0
DWIDTH 10 0
BBX 9 16 1 -4
BITMAP
004AEED930
07FFFFFF50
3FFB214910
AFE1000000
EF90000000
FF70000000
FF70000000
EF90000000
BFE0000000
5FFA312620
0AFFFFFF30
006CEED910
0000AC1000
00001F8000
00048FA000
0006ED3000
ENDCHAR
STARTCHAR uni04AB
ENCODING 1195
SWIDTH 514 0
DWIDTH 8 0
BBX 8 13 0 -4
BITMAP
005CEEC5
06FFFFF6
0EFB1041
3FF40000
4FF30000
3FF40000
1EFB1034
08FFFFF7
007DFEB3
0001CA00
00004F50
00059F60
0009EB10
ENDCHAR
STARTCHAR uni04AC
ENCODING 1196
SWIDTH 579 0
DWIDTH 9 0
BBX 9 15 0 -3
BITMAP
AFFFFFFFE0
AFFFFFFFE0
0009FD0000
0009FD0000
0009FD0000
0009FD0000
0009FD0000
0009FD0000
0009FD0000
0009FD1100
0009FFFF30
0009FFFF30
000002FF30
000002FF30
000002FF30
ENDCHAR
STARTCHAR uni04AD
ENCODING 1197
SWIDTH 549 0
DWIDTH 9 0
BBX 9 12 0 -3
BITMAP
9FFFFFFF70
7CCEFECC60
000CF90000
000CF90000
000CF90000
000CF90000
000CF90000
000CFEB900
000CFFFC00
000006FC00
000006FC00
000006FC00
ENDCHAR
STARTCHAR uni04AE
ENCODING 1198
SWIDTH 624 0
DWIDTH 10 0
BBX 10 12 0 0
BITMAP
BFD0000DFB
3FF5005FF3
0BFC00CFA0
03FF55FF20
00AFCCF900
002FFFF200
0009FF9000
0003FF3000
0003FF3000
0003FF3000
0003FF3000
0003FF3000
ENDCHAR
STARTCHAR uni04AF
ENCODING 1199
SWIDTH 574 0
DWIDTH 9 0
BBX 10 13 0 -4
BITMAP
CFC0009FE1
7FF200EF90
1FF704FF40
0AFC09FD00
05FF2EF700
00EF8FF200
008FEFB000
003FFF5000
000CFE1000
0009FC0000
0009FC0000
0009FC0000
0009FC0000
ENDCHAR
STARTCHAR uni04B0
ENCODING 1200
SWIDTH 624 0
DWIDTH 10 0
BBX 10 12 0 0
BITMAP
BFD0000DFB
4FF5005FF4
0CFC00CFB0
04FF44FF40
00CFABFB00
005FFFF400
000CFFC000
0005FF5000
0BFFFFFFA0
0BFFFFFFA0
0003FF3000
0003FF3000
ENDCHAR
STARTCHAR uni04B1
ENCODING 1201
SWIDTH 574 0
DWIDTH 9 0
BBX 10 13 0 -4
BITMAP
CFC0009FE1
7FF200EF90
1FF704FF40
0AFC09FD00
05FF2EF700
00EF8FF200
008FEFB000
003FFF5000
000CFE1000
0DFFFFFF10
0ACEFECC10
0009FC0000
0009FC0000
ENDCHAR
STARTCHAR uni04B2
ENCODING 1202
SWIDTH 743 0
DWIDTH 12 0
BBX 12 15 0 -3
BITMAP
7FF30007FF20
0CFB001EF700
03FF509FD000
009FD3FF4000
001EFEFA0000
0006FFE20000
0009FFF30000
004FFCFC0000
00CF92FF6000
07FE108FE211
2EF7001EFFF9
AFD00006FFF9
000000000CF9
000000000CF9
000000000CF9
ENDCHAR
STARTCHAR uni04B3
ENCODING 1203
SWIDTH 640 0
DWIDTH 10 0
BBX 10 12 0 -3
BITMAP
7FF301EFB0
0CFC08FE20
03FF8FF600
008FFFC000
002FFF6000
00AFFFD000
05FF5EF800
1DFA06FFBB
9FE200CFFF
00000002FF
00000002FF
00000002FF
ENDCHAR
STARTCHAR uni04B4
ENCODING 1204
SWIDTH 930 0
DWIDTH 15 0
BBX 15 15 0 -3
BITMAP
AFFFFFFFC3FF4000
AFFFFFFFC3FF4000
000CF90003FF4000
000CF90003FF4000
000CF90003FF4000
000CF90003FF4000
000CF90003FF4000
000CF90003FF4000
000CF90003FF4000
000CF90003FF4000
000CFFFFFFFFFF80
000CFFFFFFFFFF80
000000000000CF80
000000000000CF80
000000000000CF80
ENDCHAR
STARTCHAR uni04B5
ENCODING 1205
SWIDTH 791 0
DWIDTH 13 0
BBX 13 12 0 -3
BITMAP
9FFFFFF2FF4000
7CEFECC2FF4000
00AFB001FF4000
00AFB001FF4000
00AFB001FF4000
00AFB001FF4000
00AFB001FF4000
00AFECCCFFCB50
00AFFFFFFFFF70
0000000000BF70
0000000000BF70
0000000000BF70
ENDCHAR
STARTCHAR uni04B6
ENCODING 1206
SWIDTH 804 0
DWIDTH 13 0
BBX 13 15 0 -3
BITMAP
2FF40003FF3000
2FF40003FF3000
2FF40003FF3000
2FF40003FF3000
2FF50003FF3000
1FFA1139FF3000
0BFFFFFFFF3000
019DFDA8FF3000
00000003FF3000
00000003FF4110
00000003FFFF80
00000003FFFF80
0000000000CF80
0000000000CF80
0000000000CF80
ENDCHAR
STARTCHAR uni04B7
ENCODING 1207
SWIDTH 726 0
DWIDTH 12 0
BBX 11 12 1 -3
BITMAP
FF5002FF4000
FF5002FF4000
FF5002FF4000
FF6004FF4000
BFECDFFF4000
2AEEB7FF4000
000002FF4000
000002FFCB40
000002FFFF60
00000000BF60
00000000BF60
00000000BF60
ENDCHAR
STARTCHAR uni04B8
ENCODING 1208
SWIDTH 728 0
DWIDTH 12 0
BBX 11 12 0 0
BITMAP
2FF40003FF30
2FF40003FF30
2FF40003FF30
2FF41A03FF30
2FF42E03FF30
1FFA3E39FF30
0BFFFFFFFF30
019DFFA8FF30
00002E03FF30
00002E03FF30
00001503FF30
00000003FF30
ENDCHAR
STARTCHAR uni04B9
ENCODING 1209
SWIDTH 655 0
DWIDTH 11 0
BBX 9 9 1 0
BITMAP
FF5002FF40
FF5002FF40
FF5562FF40
FF6784FF40
BFEDEFFF40
2AEFD7FF40
000782FF40
000452FF40
000002FF40
ENDCHAR
STARTCHAR uni04BA
ENCODING 1210
SWIDTH 728 0
DWIDTH 12 0
BBX 10 12 1 0
BITMAP
8FD0000000
8FD0000000
8FD0000000
8FD0000000
8FE7BEED60
8FFFFFFFF5
8FE6213EFA
8FD0000AFC
8FD00009FC
8FD00009FC
8FD00009FC
8FD00009FC
ENDCHAR
STARTCHAR uni04BB
ENCODING 1211
SWIDTH 666 0
DWIDTH 11 0
BBX 9 9 1 0
BITMAP
BFA0000000
BFA0000000
BFA0000000
BFB9DED600
BFFECCFF40
BFB100EF70
BFA000DF80
BFA000DF80
BFA000DF80
ENDCHAR
STARTCHAR uni04BC
ENCODING 1212
SWIDTH 948 0
DWIDTH 15 0
BBX 14 12 0 0
BITMAP
000004AEFEA300
00007FFFFFFF60
0003FFB313AFE2
7A19FE10000DF7
EF3CFA00000AFB
DFFFFFFFFFFFFD
4DFFFFFFFFFFFD
000DFA00000000
0009FE10000001
0002FFC41148D4
00005FFFFFFFF4
0000039DFECA40
ENDCHAR
STARTCHAR uni04BD
ENCODING 1213
SWIDTH 714 0
DWIDTH 11 0
BBX 11 9 0 0
BITMAP
00006CEEA200
0008FFBDFD10
561FF600CF70
ED5FF1008FA0
CFFFFFFFFFB0
17BFF9999970
003FF7000110
0008FFECDF40
00006CEFEA20
ENDCHAR
STARTCHAR uni04BE
ENCODING 1214
SWIDTH 948 0
DWIDTH 15 0
BBX 14 15 0 -3
BITMAP
000004AEFEA300
00006FFFFFFF60
0002FFB313AFE2
7A19FE10000DF7
EF3CFA00000AFB
DFFFFFFFFFFFFD
4DFFFFFFFFFFFD
000CFA00000000
0009FE10000001
0002EFC30037C4
00006FFFFFFFF4
000003AEFFDA40
00000008FC0000
00000008FC0000
00000008FC0000
ENDCHAR
STARTCHAR uni04BF
ENCODING 1215
SWIDTH 714 0
DWIDTH 11 0
BBX 11 12 0 -3
BITMAP
00006CEEA200
0008FFBDFD10
561FF600CF70
ED5FF1008FA0
CFFFFFFFFFB0
17BFF9999970
002FF7000110
0008FFDCDF40
00006CFFEB20
000004FD0000
000004FD0000
000004FD0000
ENDCHAR
STARTCHAR uni04C0
ENCODING 1216
SWIDTH 331 0
DWIDTH 5 0
BBX 3 12 1 0
BITMAP
8FD0
8FD0
8FD0
8FD0
8FD0
8FD0
8FD0
8FD0
8FD0
8FD0
8FD0
8FD0
ENDCHAR
STARTCHAR uni04C1
ENCODING 1217
SWIDTH 942 0
DWIDTH 15 0
BBX 15 16 0 0
BITMAP
0002FE000EF30000
0000DF96AFC00000
00002AEFD9200000
0000000000000000
7FE1009FA001DF80
0BFA009FA009FD00
02EF509FA03FF300
007FD19FA0DF8000
000CF99FA7FD0000
0002FFCFCFF40000
0006FEAFBEF80000
002EF69FA5FF3000
00BFC09FA0BFC000
06FF309FA02EF700
1EF8009FA007FF20
AFD1009FA000CFB0
ENDCHAR
STARTCHAR uni04C2
ENCODING 1218
SWIDTH 873 0
DWIDTH 14 0
BBX 14 13 0 0
BITMAP
000BF6007FA000
0006FD67EF4000
00007CEEC50000
00000000000000
5FE202FF103FF5
09FC02FF11DF80
00CF82FF19FC00
002EF6FF6FE200
000AFCFFDFA000
005FE4FF4EF500
02EF52FF16FE20
1CFA02FF10AFC0
9FD102FF101DF9
ENDCHAR
STARTCHAR uni04C3
ENCODING 1219
SWIDTH 759 0
DWIDTH 12 0
BBX 11 16 1 -4
BITMAP
8FD0004FF600
8FD001EF9000
8FD00BFD1000
8FD06FE20000
8FD2EF600000
8FDBF9000000
8FFFFFD92000
8FFEDEFFE300
8FD0004EFC00
8FD00005FF30
8FD00001FF50
8FD00001FF50
00000005FF20
0003425EFC00
0006FFFFF400
0004DFEB3000
ENDCHAR
STARTCHAR uni04C4
ENCODING 1220
SWIDTH 661 0
DWIDTH 11 0
BBX 9 13 1 -4
BITMAP
BFA006FF40
BFA04FF500
BFA3EF6000
BFBDF70000
BFFFFEB300
BFFFEFFE20
BFA003EF90
BFA0007FD0
BFA0006FE0
0000008FD0
000414EF90
000EFFFE20
000AEEB300
ENDCHAR
STARTCHAR uni04C5
ENCODING 1221
SWIDTH 837 0
DWIDTH 13 0
BBX 13 15 0 -3
BITMAP
000CFFFFFF7000
000EFFFFFF7000
001FF300EF7000
003FF100EF7000
005FE000EF7000
007FD000EF7000
009FB000EF7000
00CF8000EF7000
00FF6000EF7000
16FF2000EF8110
DFFB0000EFFFE0
CEB20000EFFFA0
0000000000BF60
0000000004FF20
000000000BFD00
ENDCHAR
STARTCHAR uni04C6
ENCODING 1222
SWIDTH 727 0
DWIDTH 12 0
BBX 12 12 0 -3
BITMAP
009FFFFFF100
00AFDCDFF100
00BF605FF100
00DF505FF100
00FF305FF100
03FF105FF100
19FC005FF100
FFF6005FFCB4
DE90005FFFF2
000000002FD0
000000007FA0
00000000CF60
ENDCHAR
STARTCHAR uni04C7
ENCODING 1223
SWIDTH 765 0
DWIDTH 12 0
BBX 10 16 1 -4
BITMAP
8FD00009FC
8FD00009FC
8FD00009FC
8FD00009FC
8FD00009FC
8FFFFFFFFC
8FFFFFFFFC
8FD00009FC
8FD00009FC
8FD00009FC
8FD00009FC
8FD0000AFB
0000000DF9
0005339FF5
000FFFFFB0
000BEFD800
ENDCHAR
STARTCHAR uni04C8
ENCODING 1224
SWIDTH 662 0
DWIDTH 11 0
BBX 9 13 1 -4
BITMAP
BFA000FF50
BFA000FF50
BFA000FF50
BFFFFFFF50
BFECCCFF50
BFA000FF50
BFA000FF50
BFA000FF50
BFA001FF50
000003FF40
00321BFF10
008FFFF900
005DFD7000
ENDCHAR
STARTCHAR uni04C9
ENCODING 1225
SWIDTH 857 0
DWIDTH 14 0
BBX 13 15 1 -3
BITMAP
8FD00009FC0000
8FD00009FC0000
8FD00009FC0000
8FD00009FC0000
8FD00009FC0000
8FFFFFFFFC0000
8FFFFFFFFC0000
8FD00009FC0000
8FD00009FC0000
8FD00009FC1100
8FD00009FFFF40
8FD00009FFFE00
0000000007FB00
000000000EF600
000000006FF200
ENDCHAR
STARTCHAR uni04CA
ENCODING 1226
SWIDTH 744 0
DWIDTH 12 0
BBX 11 12 1 -3
BITMAP
BFA000FF5000
BFA000FF5000
BFA000FF5000
BFFFFFFF5000
BFECCCFF5000
BFA000FF5000
BFA000FF5000
BFA000FFDB70
BFA000FFFF60
00000000DF20
00000003FE00
00000008FA00
ENDCHAR
STARTCHAR uni04CB
ENCODING 1227
SWIDTH 728 0
DWIDTH 12 0
BBX 11 15 0 -3
BITMAP
2FF40003FF30
2FF40003FF30
2FF40003FF30
2FF40003FF30
2FF50003FF30
1FFA1139FF30
0BFFFFFFFF30
019DFDA8FF30
00000003FF30
00000014FF30
000002FFFF30
000002FFFF30
000002FF3000
000002FF3000
000002FF3000
ENDCHAR
STARTCHAR uni04CC
ENCODING 1228
SWIDTH 655 0
DWIDTH 11 0
BBX 9 12 1 -3
BITMAP
FF5002FF40
FF5002FF40
FF5002FF40
FF6004FF40
BFECDFFF40
2AEEB7FF40
000002FF40
0000ACFF40
0000EFFF40
0000EF3000
0000EF3000
0000EF3000
ENDCHAR
STARTCHAR uni04CD
ENCODING 1229
SWIDTH 1036 0
DWIDTH 17 0
BBX 16 15 1 -3
BITMAP
8FFD00000CFFA000
8FFF30002FFFA000
8FEF70006FEFA000
8FBFB000BFAFA000
8F8EF101FD8FA000
8F99F506F89FA000
8F95FA0AF39FA000
8F91FE1ED09FA000
8F90BF8F909FA000
8F907FFF409FA110
8F902FFE009FFFF2
8F900DFA009FFFD0
0000000000009F80
000000000002FF40
000000000009FF10
ENDCHAR
STARTCHAR uni04CE
ENCODING 1230
SWIDTH 925 0
DWIDTH 15 0
BBX 14 12 1 -3
BITMAP
BFFB0003FFF400
BFFF2009FFF400
BFDF801EDFF400
BF9FD06F9FF400
BF7CF3BF5FF400
BF77F8FE0FF400
BF71FEF90FF400
BF70AFF30FFCB6
BF704FC00FFFF4
00000000000EF1
00000000004FC0
0000000000AF90
ENDCHAR
STARTCHAR uni04CF
ENCODING 1231
SWIDTH 331 0
DWIDTH 5 0
BBX 3 12 1 0
BITMAP
8FD0
8FD0
8FD0
8FD0
8FD0
8FD0
8FD0
8FD0
8FD0
8FD0
8FD0
8FD0
ENDCHAR
STARTCHAR uni04D0
ENCODING 1232
SWIDTH 689 0
DWIDTH 11 0
BBX 11 16 0 0
BITMAP
02FE000EF300
00DF96AFC000
002AEFD92000
000000000000
0002FFF30000
0007FFF80000
000CF9FD0000
002FF2EF3000
007FC0BF8000
00CF706FD000
02FF302FF300
07FFFFFFF800
0CFFFFFFFD00
2FF50004FF30
7FF10000EF80
DFB00000BFD0
ENDCHAR
STARTCHAR uni04D1
ENCODING 1233
SWIDTH 604 0
DWIDTH 10 0
BBX 9 13 0 0
BITMAP
0BF6008F90
06FD67EF40
007DEEC400
0000000000
029DEEB300
03FECEFE10
004001EF50
018CEFFF70
0DFE86EF70
3FF400EF70
4FF305FF70
1EFECFEF70
04DFD65F70
ENDCHAR
STARTCHAR uni04D2
ENCODING 1234
SWIDTH 689 0
DWIDTH 11 0
BBX 11 15 0 0
BITMAP
001ED0CE2000
001DC0BD1000
000000000000
0002FFF30000
0007FFF80000
000CF9FD0000
002FF2EF3000
007FC0BF8000
00CF706FD000
02FF302FF300
07FFFFFFF800
0CFFFFFFFD00
2FF50004FF30
7FF10000EF80
DFB00000BFD0
ENDCHAR
STARTCHAR uni04D3
ENCODING 1235
SWIDTH 604 0
DWIDTH 10 0
BBX 9 13 0 0
BITMAP
0001001000
00AF38F500
00AE27E400
0000000000
029DEEB300
03FECEFE10
004001EF50
018CEFFF70
0DFE86EF70
3FF400EF70
4FF305FF70
1EFECFEF70
04DFD65F70
ENDCHAR
STARTCHAR uni04D4
ENCODING 1236
SWIDTH 952 0
DWIDTH 15 0
BBX 15 12 0 0
BITMAP
00002FFFFFFFFF40
00008FFFFFFFFF40
0000EF58FD000000
0006FD08FD000000
000CF808FD000000
003FF208FFFFFF00
00AFB008FFFFFF00
01FFFFFFFD000000
08FFFFFFFD000000
0EF70008FD000000
5FF10008FFFFFF40
CFA00008FFFFFF40
ENDCHAR
STARTCHAR uni04D5
ENCODING 1237
SWIDTH 916 0
DWIDTH 15 0
BBX 14 9 0 0
BITMAP
029DED929DFC40
03FECEFFFDCFF3
003002FFC00AFA
029CEFFF7005FD
1DFE87FFFFFFFF
3FF402FFB99999
4FF307FFB00012
1EFECFCDFECDF7
04CFE9119EFEB4
ENDCHAR
STARTCHAR uni04D6
ENCODING 1238
SWIDTH 560 0
DWIDTH 9 0
BBX 8 16 1 0
BITMAP
EF200BF6
AFB68FE1
19DFEA30
00000000
8FFFFFF0
8FFFFFF0
8FD00000
8FD00000
8FD00000
8FFFFFB0
8FFFFFB0
8FD00000
8FD00000
8FD00000
8FFFFFF0
8FFFFFF0
ENDCHAR
STARTCHAR uni04D7
ENCODING 1239
SWIDTH 590 0
DWIDTH 9 0
BBX 9 13 0 0
BITMAP
0DF400AF80
08FC67FE20
008DFEB400
0000000000
005CFEA200
06FFCDFD10
0EF901DF70
3FF4008FA0
4FFFFFFFB0
3FFA999970
0EF8000110
05FFECDF40
004BEFEA20
ENDCHAR
STARTCHAR uni04D8
ENCODING 1240
SWIDTH 816 0
DWIDTH 13 0
BBX 12 12 1 0
BITMAP
028CEFEA4000
2FFFFFFFF700
2E84113AFF40
01000000CFB0
000000007FF0
BFFFFFFFFFF1
AFFFFFFFFFF2
8FD000008FF0
5FF10000CFC0
0DFB312AFF50
04EFFFFFF900
0029DFEB5000
ENDCHAR
STARTCHAR uni04D9
ENCODING 1241
SWIDTH 601 0
DWIDTH 10 0
BBX 9 9 0 0
BITMAP
06CEFD9100
0CFDCFFD10
041002EF90
0000008FD0
4FFFFFFFE0
4FF999CFD0
1FF400CF90
09FFBDFE20
007DFEA200
ENDCHAR
STARTCHAR uni04DA
ENCODING 1242
SWIDTH 816 0
DWIDTH 13 0
BBX 12 16 1 0
BITMAP
000010010000
000CE2AF4000
000BE19E3000
000000000000
028CEFEA4000
2FFFFFFFF700
2E84113AFF40
01000000CFB0
000000007FF0
BFFFFFFFFFF1
AFFFFFFFFFF2
8FD000008FF0
5FF10000CFC0
0DFB312AFF50
04EFFFFFF900
0029DFEB5000
ENDCHAR
STARTCHAR uni04DB
ENCODING 1243
SWIDTH 601 0
DWIDTH 10 0
BBX 9 13 0 0
BITMAP
0001001000
00AF38F500
009E37E500
0000000000
06CEFD9100
0CFDCFFD10
041002EF90
0000008FD0
4FFFFFFFE0
4FF999CFD0
1FF400CF90
09FFBDFE20
007DFEA200
ENDCHAR
STARTCHAR uni04DC
ENCODING 1244
SWIDTH 942 0
DWIDTH 15 0
BBX 15 16 0 0
BITMAP
0000000001000000
00001ED0CE200000
00001DC0BD100000
0000000000000000
7FE1009FA001DF80
0BFA009FA009FD00
02EF509FA03FF300
007FD19FA0DF8000
000CF99FA7FD0000
0002FFCFCFF40000
0006FEAFBEF80000
002EF69FA5FF3000
00BFC09FA0BFC000
06FF309FA02EF700
1EF8009FA007FF20
AFD1009FA000CFB0
ENDCHAR
STARTCHAR uni04DD
ENCODING 1245
SWIDTH 873 0
DWIDTH 14 0
BBX 14 13 0 0
BITMAP
00000100100000
00008F56F80000
00007E45E70000
00000000000000
5FE202FF103FF5
09FC02FF11DF80
00CF82FF19FC00
002EF6FF6FE200
000AFCFFDFA000
005FE4FF4EF500
02EF52FF16FE20
1CFA02FF10AFC0
9FD102FF101DF9
ENDCHAR
STARTCHAR uni04DE
ENCODING 1246
SWIDTH 647 0
DWIDTH 10 0
BBX 10 16 0 0
BITMAP
0001000000
004F83EB00
004E82DA00
0000000000
039DEED810
1EFFFFFFC0
0682007FF4
0000001FF3
000013AFC0
007FFFD810
006DEFFD60
0000016FF5
0000000CFA
2720005FF8
3FFFEFFFD2
18CEFEC810
ENDCHAR
STARTCHAR uni04DF
ENCODING 1247
SWIDTH 555 0
DWIDTH 9 0
BBX 9 13 0 0
BITMAP
0010000000
01EC0DE100
01DB0CD100
0000000000
29CEFEA200
1EFDCEFD00
031015FE00
007FFFC300
004ABFF900
000003FF30
330005FF30
6FFDEFFB00
3BEFED8100
ENDCHAR
STARTCHAR uni04E0
ENCODING 1248
SWIDTH 590 0
DWIDTH 9 0
BBX 9 12 0 0
BITMAP
3FFFFFFF50
3FFFFFFF40
00006FF700
0004FF9000
002EFA0000
00BFF96000
00CFFFFD10
000015EF90
000000AFC0
551003EFA0
8FFEFFFE30
4ADEFD9200
ENDCHAR
STARTCHAR uni04E1
ENCODING 1249
SWIDTH 581 0
DWIDTH 9 0
BBX 9 13 0 -4
BITMAP
4FFFFFFF50
3CCCCEFF40
00004FF700
0003EF8000
002EF90000
00BFF94000
00CFFFF900
000129FF50
000000DF80
000000CF90
551007FF60
8FFEFFFC10
4ADFEC7100
ENDCHAR
STARTCHAR uni04E2
ENCODING 1250
SWIDTH 823 0
DWIDTH 13 0
BBX 11 15 1 0
BITMAP
001AAAAA2000
001FFFFF4000
000000000000
8F900007FFB0
8F90001EFFB0
8F90009FFFB0
8F9003FF9FB0
8F900CFA6FB0
8F905FF26FB0
8F91DF806FB0
8F98FE106FB0
8FAEF6006FB0
8FFFC0006FB0
8FFF30006FB0
8FFA00006FB0
ENDCHAR
STARTCHAR uni04E3
ENCODING 1251
SWIDTH 720 0
DWIDTH 12 0
BBX 10 12 1 0
BITMAP
008AAAA400
00DFFFF700
0000000000
BF8001DFF4
BF8008FFF4
BF803FFFF4
BF80CF9EF4
BF87FE1FF4
BF9FF50FF4
BFFFB00FF4
BFFE200FF4
BFF6000FF4
ENDCHAR
STARTCHAR uni04E4
ENCODING 1252
SWIDTH 823 0
DWIDTH 13 0
BBX 11 16 1 0
BITMAP
000000010000
000DE1CE2000
000DD0AE2000
000000000000
8F900007FFB0
8F90001EFFB0
8F90009FFFB0
8F9003FF9FB0
8F900CFA6FB0
8F905FF26FB0
8F91DF806FB0
8F98FE106FB0
8FAEF6006FB0
8FFFC0006FB0
8FFF30006FB0
8FFA00006FB0
ENDCHAR
STARTCHAR uni04E5
ENCODING 1253
SWIDTH 720 0
DWIDTH 12 0
BBX 10 13 1 0
BITMAP
0001001000
00BF29F500
00AE28E400
0000000000
BF8001DFF4
BF8008FFF4
BF803FFFF4
BF80CF9EF4
BF87FE1FF4
BF9FF50FF4
BFFFB00FF4
BFFE200FF4
BFF6000FF4
ENDCHAR
STARTCHAR uni04E6
ENCODING 1254
SWIDTH 795 0
DWIDTH 13 0
BBX 11 16 1 0
BITMAP
000100000000
002FB1ED0000
002EA1DC0000
000000000000
005BEFEA3000
09FFFFFFF500
5FFB314DFE10
BFE10004FF70
EFA00000EFA0
FF800000CFC0
FF800000CFC0
EFA00000EFA0
BFE10004FF70
4FFB314DFE10
08FFFFFFF500
005BEFEA3000
ENDCHAR
STARTCHAR uni04E7
ENCODING 1255
SWIDTH 619 0
DWIDTH 10 0
BBX 10 13 0 0
BITMAP
0001001000
008F56F700
007E45E600
0000000000
005CEEB300
06FFFFFF40
0EFB11CFC0
3FF4005FF1
4FF3004FF2
3FF4005FF1
0DFB11CFD0
05FFFFFF40
004BEEB400
ENDCHAR
STARTCHAR uni04E8
ENCODING 1256
SWIDTH 795 0
DWIDTH 13 0
BBX 11 12 1 0
BITMAP
005BEFEA3000
09FFFFFFF500
5FFB314DFE10
BFE10004FF70
EF900000DFA0
FFFFFFFFFFC0
FFFFFFFFFFC0
EF900000DFA0
BFD10003FF70
4FFB314DFE10
08FFFFFFF500
005BEFEA3000
ENDCHAR
STARTCHAR uni04E9
ENCODING 1257
SWIDTH 619 0
DWIDTH 10 0
BBX 10 9 0 0
BITMAP
005CEEB300
06FFFFFF40
0EFB11CFC0
3FF5006FF1
4FFFFFFFF2
3FFBAACFF1
0DF901AFD0
05FFFFFF40
004BEEB400
ENDCHAR
STARTCHAR uni04EA
ENCODING 1258
SWIDTH 795 0
DWIDTH 13 0
BBX 11 16 1 0
BITMAP
000100000000
002EB1ED0000
002EA1CC0000
000000000000
005BEFEA3000
09FFFFFFF500
5FFB314DFE10
BFE10004FF70
EF900000DFA0
FFFFFFFFFFC0
FFFFFFFFFFC0
EF900000DFA0
BFD10003FF70
4FFB314DFE10
08FFFFFFF500
005BEFEA3000
ENDCHAR
STARTCHAR uni04EB
ENCODING 1259
SWIDTH 619 0
DWIDTH 10 0
BBX 10 13 0 0
BITMAP
0001001000
008F56F700
007E45E600
0000000000
005CEEB300
06FFFFFF40
0EFB11CFC0
3FF5006FF1
4FFFFFFFF2
3FFBAACFF1
0DF901AFD0
05FFFFFF40
004BEEB400
ENDCHAR
STARTCHAR uni04EC
ENCODING 1260
SWIDTH 663 0
DWIDTH 11 0
BBX 10 16 0 0
BITMAP
0001000000
006F74FA00
005E63E900
0000000000
28CEFD9200
2FFFFFFE30
085214DFD0
0000004FF5
0000000EF8
00CFFFFFFA
00CFFFFFFA
0000000EF8
0000004FF5
273115DFD0
4FFFFFFE30
29DEFD9200
ENDCHAR
STARTCHAR uni04ED
ENCODING 1261
SWIDTH 512 0
DWIDTH 8 0
BBX 8 13 0 0
BITMAP
00100100
07F65F80
06E54E70
00000000
2ADFD910
1EDCFFB0
02006FF3
00001FF6
04FFFFF7
02999FF6
21005FF2
6FDDFFA0
3BEFD800
ENDCHAR
STARTCHAR uni04EE
ENCODING 1262
SWIDTH 652 0
DWIDTH 10 0
BBX 11 15 0 0
BITMAP
004AAAA90000
006FFFFE0000
000000000000
CFC00004FF40
5FF30009FC00
0CF9001EF600
05FF106FE100
00DF70CF8000
006FD2FF2000
001EFCFB0000
0007FFF40000
0002FFD00000
211AFF600000
7FFFFB000000
6DFD81000000
ENDCHAR
STARTCHAR uni04EF
ENCODING 1263
SWIDTH 568 0
DWIDTH 9 0
BBX 9 16 0 -4
BITMAP
01AAAAA200
01FFFFF400
0000000000
CFC0009FE0
6FF100EF80
1FF604FF30
0AFB08FD00
04FF1DF700
00DF7FF200
007FDFB000
002FFF6000
000BFF1000
000BFA0000
005FF40000
7EFFA00000
6FD8000000
ENDCHAR
STARTCHAR uni04F0
ENCODING 1264
SWIDTH 652 0
DWIDTH 10 0
BBX 11 16 0 0
BITMAP
000100000000
004F92EC0000
004E82DA0000
000000000000
CFC00004FF40
5FF30009FC00
0CF9001EF600
05FF106FE100
00DF70CF8000
006FD2FF2000
001EFCFB0000
0007FFF40000
0002FFD00000
211AFF600000
7FFFFB000000
6DFD81000000
ENDCHAR
STARTCHAR uni04F1
ENCODING 1265
SWIDTH 568 0
DWIDTH 9 0
BBX 9 17 0 -4
BITMAP
0000001000
00ED0CE200
00DD0AE200
0000000000
CFC0009FE0
6FF100EF80
1FF604FF30
0AFB08FD00
04FF1DF700
00DF7FF200
007FDFB000
002FFF6000
000BFF1000
000BFA0000
005FF40000
7EFFA00000
6FD8000000
ENDCHAR
STARTCHAR uni04F2
ENCODING 1266
SWIDTH 652 0
DWIDTH 10 0
BBX 11 16 0 0
BITMAP
0002FF5EF600
0009F78F8000
003F72E80000
000000000000
CFC00004FF40
5FF30009FC00
0CF9001EF600
05FF106FE100
00DF70CF8000
006FD2FF2000
001EFCFB0000
0007FFF40000
0002FFD00000
211AFF600000
7FFFFB000000
6DFD81000000
ENDCHAR
STARTCHAR uni04F3
ENCODING 1267
SWIDTH 568 0
DWIDTH 9 0
BBX 9 17 0 -4
BITMAP
000DF8CF90
006FA5FB00
01EA0DB000
0000000000
CFC0009FE0
6FF100EF80
1FF604FF30
0AFB08FD00
04FF1DF700
00DF7FF200
007FDFB000
002FFF6000
000BFF1000
000BFA0000
005FF40000
7EFFA00000
6FD8000000
ENDCHAR
STARTCHAR uni04F4
ENCODING 1268
SWIDTH 728 0
DWIDTH 12 0
BBX 11 15 0 0
BITMAP
001ED0CE2000
001DC0BD1000
000000000000
2FF40003FF30
2FF40003FF30
2FF40003FF30
2FF40003FF30
2FF50003FF30
1FFA1139FF30
0BFFFFFFFF30
019DFDA8FF30
00000003FF30
00000003FF30
00000003FF30
00000003FF30
ENDCHAR
STARTCHAR uni04F5
ENCODING 1269
SWIDTH 655 0
DWIDTH 11 0
BBX 9 13 1 0
BITMAP
0010000000
06F74FA000
05E63E9000
0000000000
FF5002FF40
FF5002FF40
FF5002FF40
FF6004FF40
BFECDFFF40
2AEEB7FF40
000002FF40
000002FF40
000002FF40
ENDCHAR
STARTCHAR uni04F6
ENCODING 1270
SWIDTH 561 0
DWIDTH 9 0
BBX 8 15 1 -3
BITMAP
8FFFFFFA
8FFFFFFA
8FD00000
8FD00000
8FD00000
8FD00000
8FD00000
8FD00000
8FD00000
8FD11000
8FFFF300
8FFFF300
002FF300
002FF300
002FF300
ENDCHAR
STARTCHAR uni04F7
ENCODING 1271
SWIDTH 478 0
DWIDTH 8 0
BBX 7 12 1 -3
BITMAP
BFFFFF40
BFECCC30
BFA00000
BFA00000
BFA00000
BFA00000
BFA00000
BFEB9000
BFFFC000
005FC000
005FC000
005FC000
ENDCHAR
STARTCHAR uni04F8
ENCODING 1272
SWIDTH 905 0
DWIDTH 15 0
BBX 13 16 1 0
BITMAP
00001000000000
0004F92EC00000
0003E82DB00000
00000000000000
8FD0000005FF10
8FD0000005FF10
8FD0000005FF10
8FD0000005FF10
8FD0000005FF10
8FFFEB5005FF10
8FFFFFF905FF10
8FD019FF25FF10
8FD004FF35FF10
8FD02AFF25FF10
8FFFFFF905FF10
8FFFEC6005FF10
ENDCHAR
STARTCHAR uni04F9
ENCODING 1273
SWIDTH 850 0
DWIDTH 14 0
BBX 12 13 1 0
BITMAP
000010010000
000AF38F5000
000AE27E4000
000000000000
BFA000000FF5
BFA000000FF5
BFA000000FF5
BFFFEC600FF5
BFDACFF50FF5
BFA00CF90FF5
BFA00CF90FF5
BFDACFF40FF5
BFFFEC500FF5
ENDCHAR
STARTCHAR uni04FA
ENCODING 1274
SWIDTH 559 0
DWIDTH 9 0
BBX 9 16 0 -4
BITMAP
08FFFFFF90
08FFFFFF90
08FD000000
08FD000000
08FD000000
9FFFFFF000
9FFFFFF000
08FD000000
08FD000000
08FD000000
08FFFF3000
08FFFF3000
0002FF3000
0005FF2000
00FFFD0000
00DEC30000
ENDCHAR
STARTCHAR uni04FB
ENCODING 1275
SWIDTH 491 0
DWIDTH 8 0
BBX 8 13 0 -4
BITMAP
0DFFFFF7
0DFFEEE7
0DF70000
0DF70000
FFFFFF10
CFFEDD10
0DF70000
0DFFFC00
0DFFFC00
0008FC00
000AFB00
06EFF700
05EE9100
ENDCHAR
STARTCHAR uni04FC
ENCODING 1276
SWIDTH 731 0
DWIDTH 12 0
BBX 12 16 0 -4
BITMAP
7FF30007FF20
0CFB001EF700
03FF509FD000
009FD3FF4000
001EFEFA0000
0006FFE20000
0009FFF30000
004FFCFC0000
00CF92FF7000
07FE108FE200
2EF7001EFFF6
AFD00006FFF6
000000000EF6
000000001FF5
0000000CFFF2
0000000AED50
ENDCHAR
STARTCHAR uni04FD
ENCODING 1277
SWIDTH 645 0
DWIDTH 10 0
BBX 11 13 0 -4
BITMAP
7FF301EFB000
0CFC08FE2000
03FF8FF60000
008FFFC00000
002FFF600000
00AFFFD10000
05FF5EF80000
1DFA06FFFF20
9FE200CFFF20
00000003FF20
00000006FF10
000001FFFC00
000001DEB200
ENDCHAR
STARTCHAR uni04FE
ENCODING 1278
SWIDTH 666 0
DWIDTH 11 0
BBX 11 12 0 0
BITMAP
7FF30007FF20
0DFC001EF800
04FF509FD100
00AFD3FF5000
002FFEFC0000
2FFFFFFFFC00
2FFFFFFFFC00
003FFDFB0000
00CFA2FF6000
07FE208FE200
2EF7001EFB00
AFD00006FF50
ENDCHAR
STARTCHAR uni04FF
ENCODING 1279
SWIDTH 578 0
DWIDTH 9 0
BBX 9 9 0 0
BITMAP
7FF401EFB0
1DFC08FF30
05FF9FF900
00CFFFE100
3FFFFFFF70
2CEFFFFC50
02EF6EF500
0CFA06FE20
8FE200CFC0
ENDCHAR
STARTCHAR uni0500
ENCODING 1280
SWIDTH 638 0
DWIDTH 10 0
BBX 9 12 0 0
BITMAP
000000AFC0
000000AFC0
000000AFC0
000000AFC0
000000AFC0
006CEFFFC0
09FFFFFFC0
2FF920AFC0
4FF300AFC0
2FFA20AFC0
0AFFFFFFC0
007CEFFFC0
ENDCHAR
STARTCHAR uni0501
ENCODING 1281
SWIDTH 632 0
DWIDTH 10 0
BBX 9 13 0 0
BITMAP
0000008FD0
0000008FD0
0000008FD0
0000007FD0
008EEA7FD0
08FFFFEFD0
0EFB12DFD0
2FF4007FD0
4FF2005FD0
3FF4007FD0
1EFA01CFD0
08FFFFEFD0
009EE93FD0
ENDCHAR
STARTCHAR uni0502
ENCODING 1282
SWIDTH 925 0
DWIDTH 15 0
BBX 14 12 0 0
BITMAP
000000FF700000
000000FF700000
000000FF700000
000000FF700000
000000FF700000
006CEFFF700EF7
09FFFFFF700EF7
2FFA20FF700EF7
4FF300FF700EF7
2FF803FFA04FF5
0BFFFFFFFFFFE1
019DFD65CFEB30
ENDCHAR
STARTCHAR uni0503
ENCODING 1283
SWIDTH 922 0
DWIDTH 15 0
BBX 14 13 0 0
BITMAP
000000BFA00000
000000BFA00000
000000BFA00000
000000BFA00000
019EE8AFA00000
08FFFFEFA00000
1EFA03EFA00000
3FF400AFA00CF9
4FF2009FA00CF9
3FF400AFA00CF9
0EF902EFD13FF7
07FFEFFFFFFFE2
006DFD83CFEB30
ENDCHAR
STARTCHAR uni0504
ENCODING 1284
SWIDTH 913 0
DWIDTH 15 0
BBX 14 12 0 0
BITMAP
28DFEC60000000
7FFFFFF8000000
08301BFD000000
000008FC000000
00014EF5000000
07FFFD40002FF4
05BBEFE5002FF4
000009FF102FF4
000003FF402FF4
000000FF917FF2
0000009FFFFFC0
00000018DFD910
ENDCHAR
STARTCHAR uni0505
ENCODING 1285
SWIDTH 870 0
DWIDTH 14 0
BBX 13 9 0 0
BITMAP
3ADEED70000000
2FDCCFF6000000
01001BF7000000
00FFFF90009FB0
00AAEFE4009FB0
00001DFB00AFB0
000009FE22DF90
000004FFFFFF30
0000005CEEC500
ENDCHAR
STARTCHAR uni0506
ENCODING 1286
SWIDTH 701 0
DWIDTH 11 0
BBX 11 15 0 -3
BITMAP
18CEED810000
7FFFFFFC0000
084108FF3000
000003FF2000
00013BF90000
07FFFF700000
05BBDFF90000
000005FF5000
000000DF8000
000000DF9110
000000DFFFE0
000000DFFFE0
000000007FE0
000000007FE0
000000007FE0
ENDCHAR
STARTCHAR uni0507
ENCODING 1287
SWIDTH 661 0
DWIDTH 11 0
BBX 11 12 0 -3
BITMAP
28CEFD810000
1FFDCFF90000
041004FE0000
000018FB0000
00DFFFC20000
008ABEFA0000
000003FF3000
000002FFCB40
000002FFFF50
00000000CF50
00000000CF50
00000000CF50
ENDCHAR
STARTCHAR uni0508
ENCODING 1288
SWIDTH 1033 0
DWIDTH 17 0
BBX 16 12 0 0
BITMAP
000CFFFFFF200000
000EFFFFFF200000
001FF304FF200000
003FF104FF200000
005FE004FF200000
007FD004FF203FF3
009FB004FF203FF3
00CF8004FF203FF3
00FF6004FF204FF2
16FF2002FF608FF1
DFFB0000CFFFFFB0
CEB2000019DFD910
ENDCHAR
STARTCHAR uni0509
ENCODING 1289
SWIDTH 935 0
DWIDTH 15 0
BBX 14 9 0 0
BITMAP
009FFFFFC00000
00AFDCEFC00000
00BF608FC00000
00DF508FC009FC
00FF308FC009FC
03FF108FC009FB
19FC007FE21DF9
FFF6002FFFFFF4
DE900004BEEC50
ENDCHAR
STARTCHAR uni050A
ENCODING 1290
SWIDTH 1042 0
DWIDTH 17 0
BBX 15 12 1 0
BITMAP
8FD0000EF7000000
8FD0000EF7000000
8FD0000EF7000000
8FD0000EF7000000
8FD0000EF7000000
8FFFFFFFF701FF50
8FFFFFFFF701FF50
8FD0000EF701FF50
8FD0000EF701FF50
8FD0000CFA16FF30
8FD00007FFFFFD00
8FD000007DEEA200
ENDCHAR
STARTCHAR uni050B
ENCODING 1291
SWIDTH 952 0
DWIDTH 15 0
BBX 13 9 1 0
BITMAP
BFA003FF300000
BFA003FF300000
BFA003FF300000
BFFFFFFF305FF0
BFECCCFF305FF0
BFA003FF305FF0
BFA001FF619FE0
BFA000CFFFFF90
BFA00019DFD810
ENDCHAR
STARTCHAR uni050C
ENCODING 1292
SWIDTH 799 0
DWIDTH 13 0
BBX 11 12 1 0
BITMAP
0039DFEC8200
06FFFFFFF500
3FFC31249000
AFE100000000
EFA000000000
FF7009FFFFD0
FF7009FFFFD0
EF900000BFB0
AFE10001EF80
4FFC312AFF30
07FFFFFFF800
004ADFEB5000
ENDCHAR
STARTCHAR uni050D
ENCODING 1293
SWIDTH 663 0
DWIDTH 11 0
BBX 10 9 0 0
BITMAP
003AEFEB60
04FFFEFF90
0DFC201420
3FF5000000
4FF30CFFFD
3FF40ACEFC
0EFB102DF9
05FFFEFFE2
004BEFEA20
ENDCHAR
STARTCHAR uni050E
ENCODING 1294
SWIDTH 757 0
DWIDTH 12 0
BBX 11 12 0 0
BITMAP
AFFFFFFFE000
AFFFFFFFE000
0009FD000000
0009FD000000
0009FD000000
0009FD009FC0
0009FD009FC0
0009FD009FC0
0009FD00AFB0
0007FE21DFA0
0002EFFFFF50
00004BEEC500
ENDCHAR
STARTCHAR uni050F
ENCODING 1295
SWIDTH 733 0
DWIDTH 12 0
BBX 11 9 0 0
BITMAP
9FFFFFFF7000
7CCEFECC6000
000CF9000000
000CF900CF80
000CF900CF80
000BF900CF80
000AFC13FF60
0005FFFFFE20
00006CEEB300
ENDCHAR
STARTCHAR uni0510
ENCODING 1296
SWIDTH 647 0
DWIDTH 10 0
BBX 10 12 0 0
BITMAP
005BEFEB71
06FFFFFFF6
0DFC2027B0
0DF7000000
07FD510000
006DFFFC00
03CFFFEB00
1EFA300000
4FF2000000
3FFA211365
09FFFFFFF8
005BDFEDA4
ENDCHAR
STARTCHAR uni0511
ENCODING 1297
SWIDTH 556 0
DWIDTH 9 0
BBX 9 9 0 0
BITMAP
019DEED910
0BFECCEE10
0CF6100200
03CFFF8000
09FEBA6000
4FF2000000
5FF3000420
1EFFDDFF40
029DEED920
ENDCHAR
STARTCHAR uni0512
ENCODING 1298
SWIDTH 817 0
DWIDTH 13 0
BBX 13 16 0 -4
BITMAP
000CFFFFFF7000
000EFFFFFF7000
001FF300EF7000
003FF100EF7000
005FE000EF7000
007FD000EF7000
009FB000EF7000
00CF8000EF7000
00FF6000EF7000
16FF2000EF7000
DFFB0000EFFFC0
CEB20000EFFFC0
00000000008FC0
0000000000AFB0
000000006EFF80
000000005EE910
ENDCHAR
STARTCHAR uni0513
ENCODING 1299
SWIDTH 724 0
DWIDTH 12 0
BBX 12 13 0 -4
BITMAP
009FFFFFF100
00AFDCDFF100
00BF605FF100
00DF505FF100
00FF305FF100
03FF105FF100
19FC005FF100
FFF6005FFFF6
DE90005FFFF6
000000000EF6
000000002FF5
0000000CFFE1
0000000BED50
ENDCHAR
STARTCHAR uni1E00
ENCODING 7680
SWIDTH 689 0
DWIDTH 11 0
BBX 11 17 0 -5
BITMAP
0002FFF30000
0007FFF80000
000CF9FD0000
002FF2EF3000
007FC0BF8000
00CF706FD000
02FF302FF300
07FFFFFFF800
0CFFFFFFFD00
2FF50004FF30
7FF10000EF80
DFB00000BFD0
000000000000
0000AEB10000
0005E3D60000
0005E3D60000
0000AEB10000
ENDCHAR
STARTCHAR uni1E01
ENCODING 7681
SWIDTH 604 0
DWIDTH 10 0
BBX 9 14 0 -5
BITMAP
029DEEB300
03FECEFE10
004001EF50
018CEFFF70
0DFE86EF70
3FF400EF70
4FF305FF70
1EFECFEF70
04DFD65F70
0000000000
0009EB1000
003F3C8000
003F3C8000
0009EC1000
ENDCHAR
STARTCHAR uni1E3E
ENCODING 7742
SWIDTH 942 0
DWIDTH 15 0
BBX 13 16 1 0
BITMAP
0000005FF50000
000001EF600000
00000AF5000000
00000000000000
8FFD00000CFFA0
8FFF30002FFFA0
8FEF70006FEFA0
8FBFB000BFAFA0
8F8EF101FD8FA0
8F99F506F89FA0
8F95FA0AF39FA0
8F91FE1ED09FA0
8F90BF8F909FA0
8F907FFF409FA0
8F902FFE009FA0
8F900DFA009FA0
ENDCHAR
STARTCHAR uni1E3F
ENCODING 7743
SWIDTH 981 0
DWIDTH 16 0
BBX 14 13 1 0
BITMAP
0000001EFA0000
000000AFA00000
000005F9000000
00000000000000
BF49EEB25CFD50
BFEFEFFDFFFFF2
BFF30AFF903FF6
BFC005FF300EF8
BFA005FF100DF8
BFA005FF100DF8
BFA005FF100DF8
BFA005FF100DF8
BFA005FF100DF8
ENDCHAR
STARTCHAR Wgrave
ENCODING 7808
SWIDTH 966 0
DWIDTH 15 0
BBX 16 16 0 0
BITMAP
00003EF800000000
000003EF30000000
0000003DD0000000
0000000000000000
DF80008FF1001FF5
AFB000CFF4004FF2
6FE001FFF8007FD0
2FF204FCFB00AF90
0EF608F7EF00DF60
0AF90BF4BF42FF20
06FC0FF08F75FD00
03FF4FB04FB8FA00
00EF9F801FDBF600
00AFEF400CFEF300
007FFF1008FFE000
003FFC0005FFA000
ENDCHAR
STARTCHAR wgrave
ENCODING 7809
SWIDTH 855 0
DWIDTH 14 0
BBX 14 13 0 0
BITMAP
0002EFA0000000
00002EF4000000
000002DE100000
00000000000000
BFA008FF500EF6
6FE00CFF803FF2
2FF21FAFC07FD0
0DF65F6CF1BF90
09FA8F38F4EF40
05FCBE05F8FF10
01FEDB01FDFB00
00CFF800DFF700
007FF500AFF300
ENDCHAR
STARTCHAR Wacute
ENCODING 7810
SWIDTH 966 0
DWIDTH 15 0
BBX 16 16 0 0
BITMAP
00000006FF400000
0000002EF5000000
000000BE40000000
0000000000000000
DF80008FF1001FF5
AFB000CFF4004FF2
6FE001FFF8007FD0
2FF204FCFB00AF90
0EF608F7EF00DF60
0AF90BF4BF42FF20
06FC0FF08F75FD00
03FF4FB04FB8FA00
00EF9F801FDBF600
00AFEF400CFEF300
007FFF1008FFE000
003FFC0005FFA000
ENDCHAR
STARTCHAR wacute
ENCODING 7811
SWIDTH 855 0
DWIDTH 14 0
BBX 14 13 0 0
BITMAP
0000002EF90000
000000BF900000
000006F8000000
00000000000000
BFA008FF500EF6
6FE00CFF803FF2
2FF21FAFC07FD0
0DF65F6CF1BF90
09FA8F38F4EF40
05FCBE05F8FF10
01FEDB01FDFB00
00CFF800DFF700
007FF500AFF300
ENDCHAR
STARTCHAR Wdieresis
ENCODING 7812
SWIDTH 966 0
DWIDTH 15 0
BBX 16 16 0 0
BITMAP
0000001001000000
00000CE29F400000
00000BE28E300000
0000000000000000
DF80008FF1001FF5
AFB000CFF4004FF2
6FE001FFF8007FD0
2FF204FCFB00AF90
0EF608F7EF00DF60
0AF90BF4BF42FF20
06FC0FF08F75FD00
03FF4FB04FB8FA00
00EF9F801FDBF600
00AFEF400CFEF300
007FFF1008FFE000
003FFC0005FFA000
ENDCHAR
STARTCHAR wdieresis
ENCODING 7813
SWIDTH 855 0
DWIDTH 14 0
BBX 14 13 0 0
BITMAP
00000100100000
0000AF38F50000
00009E37E50000
00000000000000
BFA008FF500EF6
6FE00CFF803FF2
2FF21FAFC07FD0
0DF65F6CF1BF90
09FA8F38F4EF40
05FCBE05F8FF10
01FEDB01FDFB00
00CFF800DFF700
007FF500AFF300
ENDCHAR
STARTCHAR uni1EA0
ENCODING 7840
SWIDTH 689 0
DWIDTH 11 0
BBX 11 16 0 -4
BITMAP
0002FFF30000
0007FFF80000
000CF9FD0000
002FF2EF3000
007FC0BF8000
00CF706FD000
02FF302FF300
07FFFFFFF800
0CFFFFFFFD00
2FF50004FF30
7FF10000EF80
DFB00000BFD0
000000000000
00008F800000
0000BFB00000
000015100000
ENDCHAR
STARTCHAR uni1EA1
ENCODING 7841
SWIDTH 604 0
DWIDTH 10 0
BBX 9 13 0 -4
BITMAP
029DEEB300
03FECEFE10
004001EF50
018CEFFF70
0DFE86EF70
3FF400EF70
4FF305FF70
1EFECFEF70
04DFD65F70
0000000000
0007F90000
000AFB0000
0001510000
ENDCHAR
STARTCHAR uni1EA2
ENCODING 7842
SWIDTH 689 0
DWIDTH 11 0
BBX 11 17 0 0
BITMAP
0000EFC20000
00006AF70000
00002BD30000
00004F300000
000000000000
0002FFF30000
0007FFF80000
000CF9FD0000
002FF2EF3000
007FC0BF8000
00CF706FD000
02FF302FF300
07FFFFFFF800
0CFFFFFFFD00
2FF50004FF30
7FF10000EF80
DFB00000BFD0
ENDCHAR
STARTCHAR uni1EA3
ENCODING 7843
SWIDTH 604 0
DWIDTH 10 0
BBX 9 14 0 0
BITMAP
000AFD5000
00057FC000
00008F6000
0000E80000
0000000000
029DEEB300
03FECEFE10
004001EF50
018CEFFF70
0DFE86EF70
3FF400EF70
4FF305FF70
1EFECFEF70
04DFD65F70
ENDCHAR
STARTCHAR uni1EA4
ENCODING 7844
SWIDTH 689 0
DWIDTH 11 0
BBX 11 16 0 0
BITMAP
000000007F70
0003EFE5E700
002EA39E3000
000000000000
0002FFF30000
0007FFF80000
000CF9FD0000
002FF2EF3000
007FC0BF8000
00CF706FD000
02FF302FF300
07FFFFFFF800
0CFFFFFFFD00
2FF50004FF30
7FF10000EF80
DFB00000BFD0
ENDCHAR
STARTCHAR uni1EA5
ENCODING 7845
SWIDTH 604 0
DWIDTH 10 0
BBX 10 13 0 0
BITMAP
00000003FB
001CFF7CB1
00CC47E600
0000000000
029DEEB300
03FECEFE10
004001EF50
018CEFFF70
0DFE86EF70
3FF400EF70
4FF305FF70
1EFECFEF70
04DFD65F70
ENDCHAR
STARTCHAR uni1EA6
ENCODING 7846
SWIDTH 689 0
DWIDTH 11 0
BBX 11 16 0 0
BITMAP
6F8000000000
07F5EFF30000
002EA39E3000
000000000000
0002FFF30000
0007FFF80000
000CF9FD0000
002FF2EF3000
007FC0BF8000
00CF706FD000
02FF302FF300
07FFFFFFF800
0CFFFFFFFD00
2FF50004FF30
7FF10000EF80
DFB00000BFD0
ENDCHAR
STARTCHAR uni1EA7
ENCODING 7847
SWIDTH 604 0
DWIDTH 10 0
BBX 10 13 -1 0
BITMAP
2EC0000000
03E7CFF800
000BC47E60
0000000000
0029DEEB30
003FECEFE1
0004001EF5
0018CEFFF7
00DFE86EF7
03FF400EF7
04FF305FF7
01EFECFEF7
004DFD65F7
ENDCHAR
STARTCHAR uni1EA8
ENCODING 7848
SWIDTH 689 0
DWIDTH 11 0
BBX 11 17 0 0
BITMAP
00000005FA00
000000005E00
0003EFE4F200
002EA39E3000
000000000000
0002FFF30000
0007FFF80000
000CF9FD0000
002FF2EF3000
007FC0BF8000
00CF706FD000
02FF302FF300
07FFFFFFF800
0CFFFFFFFD00
2FF50004FF30
7FF10000EF80
DFB00000BFD0
ENDCHAR
STARTCHAR uni1EA9
ENCODING 7849
SWIDTH 604 0
DWIDTH 10 0
BBX 10 14 0 0
BITMAP
0000000FD1
00000002E3
001CFF7B70
00BC47E600
0000000000
029DEEB300
03FECEFE10
004001EF50
018CEFFF70
0DFE86EF70
3FF400EF70
4FF305FF70
1EFECFEF70
04DFD65F70
ENDCHAR
STARTCHAR uni1EAA
ENCODING 7850
SWIDTH 689 0
DWIDTH 11 0
BBX 11 17 0 0
BITMAP
0008EA4D2000
001D59E90000
0002DFE20000
002DA39D2000
000000000000
0002FFF30000
0007FFF80000
000CF9FD0000
002FF2EF3000
007FC0BF8000
00CF706FD000
02FF302FF300
07FFFFFFF800
0CFFFFFFFD00
2FF50004FF30
7FF10000EF80
DFB00000BFD0
ENDCHAR
STARTCHAR uni1EAB
ENCODING 7851
SWIDTH 604 0
DWIDTH 10 0
BBX 9 14 0 0
BITMAP
004EC5A600
00B67DC100
000AFF6000
00AC47D600
0000000000
029DEEB300
03FECEFE10
004001EF50
018CEFFF70
0DFE86EF70
3FF400EF70
4FF305FF70
1EFECFEF70
04DFD65F70
ENDCHAR
STARTCHAR uni1EAC
ENCODING 7852
SWIDTH 689 0
DWIDTH 11 0
BBX 11 20 0 -4
BITMAP
0003FFF40000
001CF7FD1000
00AF504EB000
000000000000
0002FFF30000
0007FFF80000
000CF9FD0000
002FF2EF3000
007FC0BF8000
00CF706FD000
02FF302FF300
07FFFFFFF800
0CFFFFFFFD00
2FF50004FF30
7FF10000EF80
DFB00000BFD0
000000000000
00008F800000
0000BFB00000
000015100000
ENDCHAR
STARTCHAR uni1EAD
ENCODING 7853
SWIDTH 604 0
DWIDTH 10 0
BBX 9 17 0 -4
BITMAP
001DFF8000
009F8DF300
06F802DE10
0000000000
029DEEB300
03FECEFE10
004001EF50
018CEFFF70
0DFE86EF70
3FF400EF70
4FF305FF70
1EFECFEF70
04DFD65F70
0000000000
0006EA0000
0009FD0000
0001520000
ENDCHAR
STARTCHAR uni1EAE
ENCODING 7854
SWIDTH 689 0
DWIDTH 11 0
BBX 11 17 0 0
BITMAP
000009E20000
003E2D4E4000
000EA5AD1000
0003CEC30000
000000000000
0002FFF30000
0007FFF80000
000CF9FD0000
002FF2EF3000
007FC0BF8000
00CF706FD000
02FF302FF300
07FFFFFFF800
0CFFFFFFFD00
2FF50004FF30
7FF10000EF80
DFB00000BFD0
ENDCHAR
STARTCHAR uni1EAF
ENCODING 7855
SWIDTH 604 0
DWIDTH 10 0
BBX 9 14 0 0
BITMAP
00005F5000
00E4B7A800
00AD68F300
001AED6000
0000000000
029DEEB300
03FECEFE10
004001EF50
018CEFFF70
0DFE86EF70
3FF400EF70
4FF305FF70
1EFECFEF70
04DFD65F70
ENDCHAR
STARTCHAR uni1EB0
ENCODING 7856
SWIDTH 689 0
DWIDTH 11 0
BBX 11 17 0 0
BITMAP
0002EA000000
003F4D3E4000
000DB5AE1000
0003CEC40000
000000000000
0002FFF30000
0007FFF80000
000CF9FD0000
002FF2EF3000
007FC0BF8000
00CF706FD000
02FF302FF300
07FFFFFFF800
0CFFFFFFFD00
2FF50004FF30
7FF10000EF80
DFB00000BFD0
ENDCHAR
STARTCHAR uni1EB1
ENCODING 7857
SWIDTH 604 0
DWIDTH 10 0
BBX 9 14 0 0
BITMAP
000BE10000
00E6C6A800
009D67F400
001AED7000
0000000000
029DEEB300
03FECEFE10
004001EF50
018CEFFF70
0DFE86EF70
3FF400EF70
4FF305FF70
1EFECFEF70
04DFD65F70
ENDCHAR
STARTCHAR uni1EB2
ENCODING 7858
SWIDTH 689 0
DWIDTH 11 0
BBX 11 17 0 0
BITMAP
00006D700000
003F1C6E4000
000DB5AE1000
0003CEC40000
000000000000
0002FFF30000
0007FFF80000
000CF9FD0000
002FF2EF3000
007FC0BF8000
00CF706FD000
02FF302FF300
07FFFFFFF800
0CFFFFFFFD00
2FF50004FF30
7FF10000EF80
DFB00000BFD0
ENDCHAR
STARTCHAR uni1EB3
ENCODING 7859
SWIDTH 604 0
DWIDTH 10 0
BBX 9 14 0 0
BITMAP
0002DB0000
00E59AA800
009D67F400
001AED7000
0000000000
029DEEB300
03FECEFE10
004001EF50
018CEFFF70
0DFE86EF70
3FF400EF70
4FF305FF70
1EFECFEF70
04DFD65F70
ENDCHAR
STARTCHAR uni1EB4
ENCODING 7860
SWIDTH 689 0
DWIDTH 11 0
BBX 11 17 0 0
BITMAP
0007E92C3000
000E37EA0000
002F757E3000
0006DFD70000
000000000000
0002FFF30000
0007FFF80000
000CF9FD0000
002FF2EF3000
007FC0BF8000
00CF706FD000
02FF302FF300
07FFFFFFF800
0CFFFFFFFD00
2FF50004FF30
7FF10000EF80
DFB00000BFD0
ENDCHAR
STARTCHAR uni1EB5
ENCODING 7861
SWIDTH 604 0
DWIDTH 10 0
BBX 9 14 0 0
BITMAP
004EB48700
00A55DD200
00DA56D800
003BEEA100
0000000000
029DEEB300
03FECEFE10
004001EF50
018CEFFF70
0DFE86EF70
3FF400EF70
4FF305FF70
1EFECFEF70
04DFD65F70
ENDCHAR
STARTCHAR uni1EB6
ENCODING 7862
SWIDTH 689 0
DWIDTH 11 0
BBX 11 19 0 -4
BITMAP
006E203E7000
001EFFFD1000
000289710000
000077710000
0005FFF50000
000AFDFA0000
001EF5FF1000
006FD0CF6000
00BF908FB000
01FF403FF200
06FFCBBFF700
0CFFFFFFFC00
2FF84447FF20
7FF10001FF80
CFB00000BFD0
000000000000
00007E800000
0000AFB00000
000015100000
ENDCHAR
STARTCHAR uni1EB7
ENCODING 7863
SWIDTH 604 0
DWIDTH 10 0
BBX 9 17 0 -4
BITMAP
03F300AB00
00DEACF600
002BED7000
0000000000
029DEEB300
03FECEFE10
004001EF50
018CEFFF70
0DFE86EF70
3FF400EF70
4FF305FF70
1EFECFEF70
04DFD65F70
0000000000
0007F90000
000AFC0000
0001510000
ENDCHAR
STARTCHAR uni1EB8
ENCODING 7864
SWIDTH 560 0
DWIDTH 9 0
BBX 7 16 1 -4
BITMAP
8FFFFFF0
8FFFFFF0
8FD00000
8FD00000
8FD00000
8FFFFFB0
8FFFFFB0
8FD00000
8FD00000
8FD00000
8FFFFFF0
8FFFFFF0
00000000
005EB000
008FE000
00052000
ENDCHAR
STARTCHAR uni1EB9
ENCODING 7865
SWIDTH 590 0
DWIDTH 9 0
BBX 9 13 0 -4
BITMAP
005CFEA200
06FFCDFD10
0EF901DF70
3FF4008FA0
4FFFFFFFB0
3FFA999970
0EF8000110
05FFECDF40
004BEFEA20
0000000000
0005EB0000
0007FE0000
0000520000
ENDCHAR
STARTCHAR uni1EBA
ENCODING 7866
SWIDTH 560 0
DWIDTH 9 0
BBX 7 17 1 0
BITMAP
00AFD500
0057FB00
0008E600
000F7000
00000000
8FFFFFF0
8FFFFFF0
8FD00000
8FD00000
8FD00000
8FFFFFB0
8FFFFFB0
8FD00000
8FD00000
8FD00000
8FFFFFF0
8FFFFFF0
ENDCHAR
STARTCHAR uni1EBB
ENCODING 7867
SWIDTH 590 0
DWIDTH 9 0
BBX 9 14 0 0
BITMAP
0008FE7000
00046FE000
00006F8000
0000CA0000
0000000000
005CFEA200
06FFCDFD10
0EF901DF70
3FF4008FA0
4FFFFFFFB0
3FFA999970
0EF8000110
05FFECDF40
004BEFEA20
ENDCHAR
STARTCHAR uni1EBC
ENCODING 7868
SWIDTH 560 0
DWIDTH 9 0
BBX 7 16 1 0
BITMAP
08E805D0
3FAFCD90
7B04DC20
00000000
8FFFFFF0
8FFFFFF0
8FD00000
8FD00000
8FD00000
8FFFFFB0
8FFFFFB0
8FD00000
8FD00000
8FD00000
8FFFFFF0
8FFFFFF0
ENDCHAR
STARTCHAR uni1EBD
ENCODING 7869
SWIDTH 590 0
DWIDTH 9 0
BBX 9 13 0 0
BITMAP
007E903E00
02FBEDCB00
05D03CD200
0000000000
005CFEA200
06FFCDFD10
0EF901DF70
3FF4008FA0
4FFFFFFFB0
3FFA999970
0EF8000110
05FFECDF40
004BEFEA20
ENDCHAR
STARTCHAR uni1EBE
ENCODING 7870
SWIDTH 560 0
DWIDTH 9 0
BBX 9 16 1 0
BITMAP
0000004FA0
01DFF6DA00
1CC48E5000
0000000000
8FFFFFF000
8FFFFFF000
8FD0000000
8FD0000000
8FD0000000
8FFFFFB000
8FFFFFB000
8FD0000000
8FD0000000
8FD0000000
8FFFFFF000
8FFFFFF000
ENDCHAR
STARTCHAR uni1EBF
ENCODING 7871
SWIDTH 590 0
DWIDTH 9 0
BBX 10 13 0 0
BITMAP
00000003FB
001CFF8BB1
00BC57E600
0000000000
005CFEA200
06FFCDFD10
0EF901DF70
3FF4008FA0
4FFFFFFFB0
3FFA999970
0EF8000110
05FFECDF40
004BEFEA20
ENDCHAR
STARTCHAR uni1EC0
ENCODING 7872
SWIDTH 560 0
DWIDTH 9 0
BBX 9 16 -1 0
BITMAP
2EC0000000
04E7CFF700
000CC47E60
0000000000
008FFFFFF0
008FFFFFF0
008FD00000
008FD00000
008FD00000
008FFFFFB0
008FFFFFB0
008FD00000
008FD00000
008FD00000
008FFFFFF0
008FFFFFF0
ENDCHAR
STARTCHAR uni1EC1
ENCODING 7873
SWIDTH 590 0
DWIDTH 9 0
BBX 10 13 -1 0
BITMAP
1DD1000000
02D8BFF900
000AD56E80
0000000000
0005CFEA20
006FFCDFD1
00EF901DF7
03FF4008FA
04FFFFFFFB
03FFA99997
00EF800011
005FFECDF4
0004BEFEA2
ENDCHAR
STARTCHAR uni1EC2
ENCODING 7874
SWIDTH 560 0
DWIDTH 9 0
BBX 9 17 1 0
BITMAP
000002FC10
0000002F20
01DFF6D500
1CC48E5000
0000000000
8FFFFFF000
8FFFFFF000
8FD0000000
8FD0000000
8FD0000000
8FFFFFB000
8FFFFFB000
8FD0000000
8FD0000000
8FD0000000
8FFFFFF000
8FFFFFF000
ENDCHAR
STARTCHAR uni1EC3
ENCODING 7875
SWIDTH 590 0
DWIDTH 9 0
BBX 10 14 0 0
BITMAP
0000000FD2
00000002E3
001CFF8B70
00BC57E600
0000000000
005CFEA200
06FFCDFD10
0EF901DF70
3FF4008FA0
4FFFFFFFB0
3FFA999970
0EF8000110
05FFECDF40
004BEFEA20
ENDCHAR
STARTCHAR uni1EC4
ENCODING 7876
SWIDTH 560 0
DWIDTH 9 0
BBX 7 17 1 0
BITMAP
05EB5B50
0C68EC10
00BFF500
1BB47E50
00000000
8FFFFFF0
8FFFFFF0
8FD00000
8FD00000
8FD00000
8FFFFFB0
8FFFFFB0
8FD00000
8FD00000
8FD00000
8FFFFFF0
8FFFFFF0
ENDCHAR
STARTCHAR uni1EC5
ENCODING 7877
SWIDTH 590 0
DWIDTH 9 0
BBX 9 14 0 0
BITMAP
003EC59700
00A77DD100
000AFF6000
00AC46D600
0000000000
005CFEA200
06FFCDFD10
0EF901DF70
3FF4008FA0
4FFFFFFFB0
3FFA999970
0EF8000110
05FFECDF40
004BEFEA20
ENDCHAR
STARTCHAR uni1EC6
ENCODING 7878
SWIDTH 560 0
DWIDTH 9 0
BBX 8 20 1 -4
BITMAP
01EFF600
0AF8EE30
7F702DD1
00000000
8FFFFFF0
8FFFFFF0
8FD00000
8FD00000
8FD00000
8FFFFFB0
8FFFFFB0
8FD00000
8FD00000
8FD00000
8FFFFFF0
8FFFFFF0
00000000
005EB000
008FE000
00052000
ENDCHAR
STARTCHAR uni1EC7
ENCODING 7879
SWIDTH 590 0
DWIDTH 9 0
BBX 9 17 0 -4
BITMAP
001EFF7000
00AF8EE300
06F702DD10
0000000000
005CFEA200
06FFCDFD10
0EF901DF70
3FF4008FA0
4FFFFFFFB0
3FFA999970
0EF8000110
05FFECDF40
004BEFEA20
0000000000
0005EB0000
0007FE0000
0000520000
ENDCHAR
STARTCHAR uni1EC8
ENCODING 7880
SWIDTH 331 0
DWIDTH 5 0
BBX 4 17 1 0
BITMAP
DFC3
69F9
1AE4
2F50
0000
8FD0
8FD0
8FD0
8FD0
8FD0
8FD0
8FD0
8FD0
8FD0
8FD0
8FD0
8FD0
ENDCHAR
STARTCHAR uni1EC9
ENCODING 7881
SWIDTH 305 0
DWIDTH 5 0
BBX 5 14 0 0
BITMAP
1EFC10
16AF60
02CD20
05F200
000000
0BFA00
0BFA00
0BFA00
0BFA00
0BFA00
0BFA00
0BFA00
0BFA00
0BFA00
ENDCHAR
STARTCHAR uni1ECA
ENCODING 7882
SWIDTH 331 0
DWIDTH 5 0
BBX 3 16 1 -4
BITMAP
8FD0
8FD0
8FD0
8FD0
8FD0
8FD0
8FD0
8FD0
8FD0
8FD0
8FD0
8FD0
0000
6EA0
9FD0
1520
ENDCHAR
STARTCHAR uni1ECB
ENCODING 7883
SWIDTH 305 0
DWIDTH 5 0
BBX 3 17 1 -4
BITMAP
9F70
BFA0
1510
0000
BFA0
BFA0
BFA0
BFA0
BFA0
BFA0
BFA0
BFA0
BFA0
0000
9F70
CF90
2510
ENDCHAR
STARTCHAR uni1ECC
ENCODING 7884
SWIDTH 795 0
DWIDTH 13 0
BBX 11 16 1 -4
BITMAP
005BEFEA3000
09FFFFFFF500
5FFB314DFE10
BFE10004FF70
EFA00000EFA0
FF800000CFC0
FF800000CFC0
EFA00000EFA0
BFE10004FF70
4FFB314DFE10
08FFFFFFF500
005BEFEA3000
000000000000
0000AE600000
0000DF900000
000025100000
ENDCHAR
STARTCHAR uni1ECD
ENCODING 7885
SWIDTH 619 0
DWIDTH 10 0
BBX 10 13 0 -4
BITMAP
005CEEB300
06FFFFFF40
0EFB11CFC0
3FF4005FF1
4FF3004FF2
3FF4005FF1
0DFB11CFD0
05FFFFFF40
004BEEB400
0000000000
0003ED1000
0004FF2000
0000430000
ENDCHAR
STARTCHAR uni1ECE
ENCODING 7886
SWIDTH 795 0
DWIDTH 13 0
BBX 11 17 1 0
BITMAP
0002EEB10000
00016BF50000
00002CD20000
00006F100000
000000000000
005BEFEA3000
09FFFFFFF500
5FFB314DFE10
BFE10004FF70
EFA00000EFA0
FF800000CFC0
FF800000CFC0
EFA00000EFA0
BFE10004FF70
4FFB314DFE10
08FFFFFFF500
005BEFEA3000
ENDCHAR
STARTCHAR uni1ECF
ENCODING 7887
SWIDTH 619 0
DWIDTH 10 0
BBX 10 14 0 0
BITMAP
0008FE7000
00046FE000
00006F8000
0000CA0000
0000000000
005CEEB300
06FFFFFF40
0EFB11CFC0
3FF4005FF1
4FF3004FF2
3FF4005FF1
0DFB11CFD0
05FFFFFF40
004BEEB400
ENDCHAR
STARTCHAR uni1ED0
ENCODING 7888
SWIDTH 795 0
DWIDTH 13 0
BBX 11 16 1 0
BITMAP
00000000AF40
0006FFD6E500
005E84BC1000
000000000000
005BEFEA3000
09FFFFFFF500
5FFB314DFE10
BFE10004FF70
EFA00000EFA0
FF800000CFC0
FF800000CFC0
EFA00000EFA0
BFE10004FF70
4FFB314DFE10
08FFFFFFF500
005BEFEA3000
ENDCHAR
STARTCHAR uni1ED1
ENCODING 7889
SWIDTH 619 0
DWIDTH 10 0
BBX 10 13 0 0
BITMAP
00000002FC
000BFF8AC1
00AD56E700
0000000000
005CEEB300
06FFFFFF40
0EFB11CFC0
3FF4005FF1
4FF3004FF2
3FF4005FF1
0DFB11CFD0
05FFFFFF40
004BEEB400
ENDCHAR
STARTCHAR uni1ED2
ENCODING 7890
SWIDTH 795 0
DWIDTH 13 0
BBX 11 16 1 0
BITMAP
9F5000000000
09D6FFD20000
004E84BD1000
000000000000
005BEFEA3000
09FFFFFFF500
5FFB314DFE10
BFE10004FF70
EFA00000EFA0
FF800000CFC0
FF800000CFC0
EFA00000EFA0
BFE10004FF70
4FFB314DFE10
08FFFFFFF500
005BEFEA3000
ENDCHAR
STARTCHAR uni1ED3
ENCODING 7891
SWIDTH 619 0
DWIDTH 10 0
BBX 11 13 -1 0
BITMAP
1DD100000000
02D8BFF90000
000AD56E8000
000000000000
0005CEEB3000
006FFFFFF400
00EFB11CFC00
03FF4005FF10
04FF3004FF20
03FF4005FF10
00DFB11CFD00
005FFFFFF400
0004BEEB4000
ENDCHAR
STARTCHAR uni1ED4
ENCODING 7892
SWIDTH 795 0
DWIDTH 13 0
BBX 11 17 1 0
BITMAP
00000008E700
000000008A00
0006FFD5D100
005E84BC1000
000000000000
005BEFEA3000
09FFFFFFF500
5FFB314DFE10
BFE10004FF70
EFA00000EFA0
FF800000CFC0
FF800000CFC0
EFA00000EFA0
BFE10004FF70
4FFB314DFE10
08FFFFFFF500
005BEFEA3000
ENDCHAR
STARTCHAR uni1ED5
ENCODING 7893
SWIDTH 619 0
DWIDTH 10 0
BBX 10 14 0 0
BITMAP
0000000ED2
00000001D4
000BFF8A80
00AD56E700
0000000000
005CEEB300
06FFFFFF40
0EFB11CFC0
3FF4005FF1
4FF3004FF2
3FF4005FF1
0DFB11CFD0
05FFFFFF40
004BEEB400
ENDCHAR
STARTCHAR uni1ED6
ENCODING 7894
SWIDTH 795 0
DWIDTH 13 0
BBX 11 17 1 0
BITMAP
000AE85D0000
003C5AE70000
0003EFC10000
004E83AC1000
000000000000
005BEFEA3000
09FFFFFFF500
5FFB314DFE10
BFE10004FF70
EFA00000EFA0
FF800000CFC0
FF800000CFC0
EFA00000EFA0
BFE10004FF70
4FFB314DFE10
08FFFFFFF500
005BEFEA3000
ENDCHAR
STARTCHAR uni1ED7
ENCODING 7895
SWIDTH 619 0
DWIDTH 10 0
BBX 10 14 0 0
BITMAP
003DC68800
00986DD200
0009FF7000
009D56D800
0000000000
005CEEB300
06FFFFFF40
0EFB11CFC0
3FF4005FF1
4FF3004FF2
3FF4005FF1
0DFB11CFD0
05FFFFFF40
004BEEB400
ENDCHAR
STARTCHAR uni1ED8
ENCODING 7896
SWIDTH 795 0
DWIDTH 13 0
BBX 11 20 1 -4
BITMAP
0005FFE20000
002EE8FB0000
00CE306F8000
000000000000
005BEFEA3000
09FFFFFFF500
5FFB314DFE10
BFE10004FF70
EFA00000EFA0
FF800000CFC0
FF800000CFC0
EFA00000EFA0
BFE10004FF70
4FFB314DFE10
08FFFFFFF500
005BEFEA3000
000000000000
0000AE600000
0000DF900000
000025100000
ENDCHAR
STARTCHAR uni1ED9
ENCODING 7897
SWIDTH 619 0
DWIDTH 10 0
BBX 10 17 0 -4
BITMAP
000BFFA000
007FACF500
04FA01BE20
0000000000
005CEEB300
06FFFFFF40
0EFB11CFC0
3FF4005FF1
4FF3004FF2
3FF4005FF1
0DFB11CFD0
05FFFFFF40
004BEEB400
0000000000
0002ED1000
0004FF2000
0000430000
ENDCHAR
STARTCHAR uni1EDA
ENCODING 7898
SWIDTH 825 0
DWIDTH 13 0
BBX 13 16 1 0
BITMAP
00000AFD200000
00005FD2000000
0001ED20000000
0000000000CF90
005BEFEA30EF50
08FFFFFFFAFD00
4FFB314DFFD300
BFE10004FF7000
EFA00000EFA000
FF800000CFC000
FF800000CFC000
EFA00000EFA000
BFE10004FF7000
4FFB314DFE1000
08FFFFFFF50000
005BEFEA300000
ENDCHAR
STARTCHAR uni1EDB
ENCODING 7899
SWIDTH 679 0
DWIDTH 11 0
BBX 12 13 0 0
BITMAP
00000DFB0000
00008FB10000
0003FB100000
000000000EF8
005CEEB44FF3
06FFFFFFFF60
0EFB11CFE200
3FF4005FF100
4FF3004FF200
3FF4005FF100
0DFB11CFD000
05FFFFFF4000
004BEEB40000
ENDCHAR
STARTCHAR uni1EDC
ENCODING 7900
SWIDTH 825 0
DWIDTH 13 0
BBX 13 16 1 0
BITMAP
005FF500000000
0005FE10000000
00005EA0000000
0000000000CF90
005BEFEA30EF50
08FFFFFFFAFD00
4FFB314DFFD300
BFE10004FF7000
EFA00000EFA000
FF800000CFC000
FF800000CFC000
EFA00000EFA000
BFE10004FF7000
4FFB314DFE1000
08FFFFFFF50000
005BEFEA300000
ENDCHAR
STARTCHAR uni1EDD
ENCODING 7901
SWIDTH 679 0
DWIDTH 11 0
BBX 12 13 0 0
BITMAP
00CFD0000000
001CF8000000
0001BF300000
000000000EF8
005CEEB44FF3
06FFFFFFFF60
0EFB11CFE200
3FF4005FF100
4FF3004FF200
3FF4005FF100
0DFB11CFD000
05FFFFFF4000
004BEEB40000
ENDCHAR
STARTCHAR uni1EDE
ENCODING 7902
SWIDTH 825 0
DWIDTH 13 0
BBX 13 17 1 0
BITMAP
0000EFC2000000
00006AF7000000
00002BE3000000
00003F40000000
0000000000CF90
005BEFEA30EF50
08FFFFFFFAFD00
4FFB314DFFD300
BFE10004FF7000
EFA00000EFA000
FF800000CFC000
FF800000CFC000
EFA00000EFA000
BFE10004FF7000
4FFB314DFE1000
08FFFFFFF50000
005BEFEA300000
ENDCHAR
STARTCHAR uni1EDF
ENCODING 7903
SWIDTH 679 0
DWIDTH 11 0
BBX 12 14 0 0
BITMAP
0007FE800000
00036EF00000
00005F900000
0000BB000000
000000000EF8
005CEEB44FF3
06FFFFFFFF60
0EFB11CFE200
3FF4005FF100
4FF3004FF200
3FF4005FF100
0DFB11CFD000
05FFFFFF4000
004BEEB40000
ENDCHAR
STARTCHAR uni1EE0
ENCODING 7904
SWIDTH 825 0
DWIDTH 13 0
BBX 13 16 1 0
BITMAP
001BE509900000
007EBFBE500000
00B706EA000000
0000000000CF90
005BEFEA30EF50
08FFFFFFFAFD00
4FFB314DFFD300
BFE10004FF7000
EFA00000EFA000
FF800000CFC000
FF800000CFC000
EFA00000EFA000
BFE10004FF7000
4FFB314DFE1000
08FFFFFFF50000
005BEFEA300000
ENDCHAR
STARTCHAR uni1EE1
ENCODING 7905
SWIDTH 679 0
DWIDTH 11 0
BBX 12 13 0 0
BITMAP
004DB11F3000
00DCEEBE0000
02F11BE40000
000000000EF8
005CEEB44FF3
06FFFFFFFF60
0EFB11CFE200
3FF4005FF100
4FF3004FF200
3FF4005FF100
0DFB11CFD000
05FFFFFF4000
004BEEB40000
ENDCHAR
STARTCHAR uni1EE2
ENCODING 7906
SWIDTH 825 0
DWIDTH 13 0
BBX 13 17 1 -4
BITMAP
0000000000CF90
005BEFEA30EF50
08FFFFFFFAFD00
4FFB314DFFD300
BFE10004FF7000
EFA00000EFA000
FF800000CFC000
FF800000CFC000
EFA00000EFA000
BFE10004FF7000
4FFB314DFE1000
08FFFFFFF50000
005BEFEA300000
00000000000000
0000AE60000000
0000DF90000000
00002510000000
ENDCHAR
STARTCHAR uni1EE3
ENCODING 7907
SWIDTH 679 0
DWIDTH 11 0
BBX 12 14 0 -4
BITMAP
000000000EF8
005CEEB44FF3
06FFFFFFFF60
0EFB11CFE200
3FF4005FF100
4FF3004FF200
3FF4005FF100
0DFB11CFD000
05FFFFFF4000
004BEEB40000
000000000000
0002ED100000
0004FF300000
000043000000
ENDCHAR
STARTCHAR uni1EE4
ENCODING 7908
SWIDTH 755 0
DWIDTH 12 0
BBX 10 16 1 -4
BITMAP
AFC0000AFB
AFC0000AFB
AFC0000AFB
AFC0000AFB
AFC0000AFB
AFC0000AFB
AFC0000AFB
AFC0000BFB
8FE0000DFA
4FF9217FF5
0AFFFFFFB0
007CFEC700
0000000000
0001DE2000
0003FF4000
0000340000
ENDCHAR
STARTCHAR uni1EE5
ENCODING 7909
SWIDTH 657 0
DWIDTH 11 0
BBX 9 13 1 -4
BITMAP
CF9002FF40
CF9002FF40
CF9002FF40
CF9002FF40
CF9002FF40
CF9004FF40
AFD10AFF40
6FFFFFEF40
08DFC4AF40
0000000000
000CE40000
000EF70000
0002400000
ENDCHAR
STARTCHAR uni1EE6
ENCODING 7910
SWIDTH 755 0
DWIDTH 12 0
BBX 10 17 1 0
BITMAP
0008FE7000
00046FE000
00006F8000
0000CA0000
0000000000
AFC0000AFB
AFC0000AFB
AFC0000AFB
AFC0000AFB
AFC0000AFB
AFC0000AFB
AFC0000AFB
AFC0000BFB
8FE0000DFA
4FF9217FF5
0AFFFFFFB0
007CFEC700
ENDCHAR
STARTCHAR uni1EE7
ENCODING 7911
SWIDTH 657 0
DWIDTH 11 0
BBX 9 14 1 0
BITMAP
005EE90000
0036DF2000
0004EB0000
0009D00000
0000000000
CF9002FF40
CF9002FF40
CF9002FF40
CF9002FF40
CF9002FF40
CF9004FF40
AFD10AFF40
6FFFFFEF40
08DFC4AF40
ENDCHAR
STARTCHAR uni1EE8
ENCODING 7912
SWIDTH 884 0
DWIDTH 14 0
BBX 14 16 1 0
BITMAP
00000AFD200000
00005FD2000000
0001EC20000000
00000000003FF4
AFC0000AFB5FF1
AFC0000AFBBF90
AFC0000AFFFB10
AFC0000AFD3000
AFC0000AFB0000
AFC0000AFB0000
AFC0000AFB0000
AFC0000AFB0000
8FE0000DFA0000
4FF9217FF60000
0AFFFFFFC00000
007CFEC7000000
ENDCHAR
STARTCHAR uni1EE9
ENCODING 7913
SWIDTH 759 0
DWIDTH 12 0
BBX 12 13 1 0
BITMAP
00008FE30000
0003FE300000
000DE3000000
0000000009FC
CF9002FF6EF7
CF9002FFFF90
CF9002FF8200
CF9002FF4000
CF9002FF4000
CF9004FF4000
AFD10AFF4000
6FFFFEEF4000
08DFC4AF4000
ENDCHAR
STARTCHAR uni1EEA
ENCODING 7914
SWIDTH 884 0
DWIDTH 14 0
BBX 14 16 1 0
BITMAP
01DFB000000000
002DF600000000
0001CE20000000
00000000003FF4
AFC0000AFB5FF1
AFC0000AFBBF90
AFC0000AFFFB10
AFC0000AFD3000
AFC0000AFB0000
AFC0000AFB0000
AFC0000AFB0000
AFC0000AFB0000
8FE0000DFA0000
4FF9217FF60000
0AFFFFFFC00000
007CFEC7000000
ENDCHAR
STARTCHAR uni1EEB
ENCODING 7915
SWIDTH 759 0
DWIDTH 12 0
BBX 12 13 1 0
BITMAP
1CFC00000000
01CF70000000
001BF3000000
0000000009FC
CF9002FF6EF7
CF9002FFFF90
CF9002FF8200
CF9002FF4000
CF9002FF4000
CF9004FF4000
AFD10AFF4000
6FFFFEEF4000
08DFC4AF4000
ENDCHAR
STARTCHAR uni1EEC
ENCODING 7916
SWIDTH 884 0
DWIDTH 14 0
BBX 14 17 1 0
BITMAP
0007FE70000000
00046EF0000000
00005F90000000
0000BB00000000
00000000003FF4
AFC0000AFB5FF1
AFC0000AFBBF90
AFC0000AFFFB10
AFC0000AFD3000
AFC0000AFB0000
AFC0000AFB0000
AFC0000AFB0000
AFC0000AFB0000
8FE0000DFA0000
4FF9217FF60000
0AFFFFFFC00000
007CFEC7000000
ENDCHAR
STARTCHAR uni1EED
ENCODING 7917
SWIDTH 759 0
DWIDTH 12 0
BBX 12 14 1 0
BITMAP
004EEA000000
0026DF300000
0003EB000000
0008E0000000
0000000009FC
CF9002FF6EF7
CF9002FFFF90
CF9002FF8200
CF9002FF4000
CF9002FF4000
CF9004FF4000
AFD10AFF4000
6FFFFEEF4000
08DFC4AF4000
ENDCHAR
STARTCHAR uni1EEE
ENCODING 7918
SWIDTH 884 0
DWIDTH 14 0
BBX 14 16 1 0
BITMAP
004DB20E300000
00DCDEBE100000
01F21AE5000000
00000000003FF4
AFC0000AFB5FF1
AFC0000AFBBF90
AFC0000AFFFB10
AFC0000AFD3000
AFC0000AFB0000
AFC0000AFB0000
AFC0000AFB0000
AFC0000AFB0000
8FE0000DFA0000
4FF9217FF60000
0AFFFFFFC00000
007CFEC7000000
ENDCHAR
STARTCHAR uni1EEF
ENCODING 7919
SWIDTH 759 0
DWIDTH 12 0
BBX 12 13 1 0
BITMAP
02CD30C60000
0ADCFAF30000
0D509E700000
0000000009FC
CF9002FF6EF7
CF9002FFFF90
CF9002FF8200
CF9002FF4000
CF9002FF4000
CF9004FF4000
AFD10AFF4000
6FFFFEEF4000
08DFC4AF4000
ENDCHAR
STARTCHAR uni1EF0
ENCODING 7920
SWIDTH 884 0
DWIDTH 14 0
BBX 14 17 1 -4
BITMAP
00000000003FF4
AFC0000AFB5FF1
AFC0000AFBBF90
AFC0000AFFFB10
AFC0000AFD3000
AFC0000AFB0000
AFC0000AFB0000
AFC0000AFB0000
AFC0000AFB0000
8FE0000DFA0000
4FF9217FF60000
0AFFFFFFC00000
007CFEC7000000
00000000000000
0002ED10000000
0004FF30000000
00004300000000
ENDCHAR
STARTCHAR uni1EF1
ENCODING 7921
SWIDTH 759 0
DWIDTH 12 0
BBX 12 14 1 -4
BITMAP
0000000009FC
CF9002FF6EF7
CF9002FFFF90
CF9002FF8200
CF9002FF4000
CF9002FF4000
CF9004FF4000
AFD10AFF4000
6FFFFEEF4000
08DFC4AF4000
000000000000
000CE4000000
001FF6000000
000340000000
ENDCHAR
STARTCHAR Ygrave
ENCODING 7922
SWIDTH 624 0
DWIDTH 10 0
BBX 10 16 0 0
BITMAP
03EF800000
003EF30000
0003DD0000
0000000000
BFD0000DFB
3FF5005FF3
0BFC00CFA0
03FF55FF20
00AFCCF900
002FFFF200
0009FF9000
0003FF3000
0003FF3000
0003FF3000
0003FF3000
0003FF3000
ENDCHAR
STARTCHAR ygrave
ENCODING 7923
SWIDTH 568 0
DWIDTH 9 0
BBX 9 17 0 -4
BITMAP
06FF400000
007FD10000
0006F90000
0000000000
CFC0009FE0
6FF100EF80
1FF604FF30
0AFB08FD00
04FF1DF700
00DF7FF200
007FDFB000
002FFF6000
000BFF1000
000BFA0000
005FF40000
7EFFA00000
6FD8000000
ENDCHAR
STARTCHAR uni1EF4
ENCODING 7924
SWIDTH 624 0
DWIDTH 10 0
BBX 10 16 0 -4
BITMAP
BFD0000DFB
3FF5005FF3
0BFC00CFA0
03FF55FF20
00AFCCF900
002FFFF200
0009FF9000
0003FF3000
0003FF3000
0003FF3000
0003FF3000
0003FF3000
0000000000
0002ED1000
0004FF3000
0000430000
ENDCHAR
STARTCHAR uni1EF5
ENCODING 7925
SWIDTH 568 0
DWIDTH 9 0
BBX 9 13 0 -4
BITMAP
CFC0009FE0
6FF100EF80
1FF604FF30
0AFB08FD00
04FF1DF700
00DF7FF200
007FDFB000
002FFF6000
000BFF1000
000BFA0000
005FF46EA0
7EFFA08FD0
6FD8001520
ENDCHAR
STARTCHAR uni1EF6
ENCODING 7926
SWIDTH 624 0
DWIDTH 10 0
BBX 10 17 0 0
BITMAP
0008FE6000
00046FE000
00006F8000
0000CA0000
0000000000
BFD0000DFB
3FF5005FF3
0BFC00CFA0
03FF55FF20
00AFCCF900
002FFFF200
0009FF9000
0003FF3000
0003FF3000
0003FF3000
0003FF3000
0003FF3000
ENDCHAR
STARTCHAR uni1EF7
ENCODING 7927
SWIDTH 568 0
DWIDTH 9 0
BBX 9 18 0 -4
BITMAP
001EFC2000
0006AF7000
0002BD3000
0004F30000
0000000000
CFC0009FE0
6FF100EF80
1FF604FF30
0AFB08FD00
04FF1DF700
00DF7FF200
007FDFB000
002FFF6000
000BFF1000
000BFA0000
005FF40000
7EFFA00000
6FD8000000
ENDCHAR
STARTCHAR uni1EF8
ENCODING 7928
SWIDTH 624 0
DWIDTH 10 0
BBX 10 16 0 0
BITMAP
004EB11F20
00DBEEBD00
02F11BE400
0000000000
BFD0000DFB
3FF5005FF3
0BFC00CFA0
03FF55FF20
00AFCCF900
002FFFF200
0009FF9000
0003FF3000
0003FF3000
0003FF3000
0003FF3000
0003FF3000
ENDCHAR
STARTCHAR uni1EF9
ENCODING 7929
SWIDTH 568 0
DWIDTH 9 0
BBX 9 17 0 -4
BITMAP
009E706B00
04FAFBE800
08A05DB100
0000000000
CFC0009FE0
6FF100EF80
1FF604FF30
0AFB08FD00
04FF1DF700
00DF7FF200
007FDFB000
002FFF6000
000BFF1000
000BFA0000
005FF40000
7EFFA00000
6FD8000000
ENDCHAR
STARTCHAR uni1F4D
ENCODING 8013
SWIDTH 835 0
DWIDTH 13 0
BBX 17 12 -4 0
BITMAP
05A1DF217CEED81000
1F52F91DFFFFFFD200
0CC5E1AFF7227FFA00
000001FF900009FF20
000004FF400004FF50
000006FF200002FF60
000006FF200002FF60
000004FF400004FF50
000001FF900009FF20
000000AFF7227FFA00
0000001DFFFFFFD100
000000018CEED81000
ENDCHAR
STARTCHAR uni2000
ENCODING 8192
SWIDTH 500 0
DWIDTH 8 0
BBX 1 1 0 0
BITMAP
00
ENDCHAR
STARTCHAR uni2001
ENCODING 8193
SWIDTH 1000 0
DWIDTH 16 0
BBX 1 1 0 0
BITMAP
00
ENDCHAR
STARTCHAR uni2002
ENCODING 8194
SWIDTH 500 0
DWIDTH 8 0
BBX 1 1 0 0
BITMAP
00
ENDCHAR
STARTCHAR uni2003
ENCODING 8195
SWIDTH 1000 0
DWIDTH 16 0
BBX 1 1 0 0
BITMAP
00
ENDCHAR
STARTCHAR uni2004
ENCODING 8196
SWIDTH 333 0
DWIDTH 5 0
BBX 1 1 0 0
BITMAP
00
ENDCHAR
STARTCHAR uni2005
ENCODING 8197
SWIDTH 250 0
DWIDTH 4 0
BBX 1 1 0 0
BITMAP
00
ENDCHAR
STARTCHAR uni2006
ENCODING 8198
SWIDTH 166 0
DWIDTH 3 0
BBX 1 1 0 0
BITMAP
00
ENDCHAR
STARTCHAR uni2007
ENCODING 8199
SWIDTH 559 0
DWIDTH 9 0
BBX 1 1 0 0
BITMAP
00
ENDCHAR
STARTCHAR uni2008
ENCODING 8200
SWIDTH 285 0
DWIDTH 5 0
BBX 1 1 0 0
BITMAP
00
ENDCHAR
STARTCHAR uni2009
ENCODING 8201
SWIDTH 200 0
DWIDTH 3 0
BBX 1 1 0 0
BITMAP
00
ENDCHAR
STARTCHAR uni200A
ENCODING 8202
SWIDTH 100 0
DWIDTH 2 0
BBX 1 1 0 0
BITMAP
00
ENDCHAR
STARTCHAR uni200B
ENCODING 8203
SWIDTH 0 0
DWIDTH 0 0
BBX 1 1 0 0
BITMAP
00
ENDCHAR
STARTCHAR endash
ENCODING 8211
SWIDTH 500 0
DWIDTH 8 0
BBX 8 2 0 3
BITMAP
5FFFFFF5
4CCCCCC4
ENDCHAR
STARTCHAR emdash
ENCODING 8212
SWIDTH 1000 0
DWIDTH 16 0
BBX 16 2 0 3
BITMAP
5FFFFFFFFFFFFFF5
4CCCCCCCCCCCCCC4
ENDCHAR
STARTCHAR afii00208
ENCODING 8213
SWIDTH 1000 0
DWIDTH 16 0
BBX 16 2 0 3
BITMAP
5FFFFFFFFFFFFFF5
4CCCCCCCCCCCCCC4
ENDCHAR
STARTCHAR underscoredbl
ENCODING 8215
SWIDTH 411 0
DWIDTH 7 0
BBX 7 4 0 -4
BITMAP
11111110
FFFFFF90
11111110
FFFFFF90
ENDCHAR
STARTCHAR quoteleft
ENCODING 8216
SWIDTH 216 0
DWIDTH 3 0
BBX 4 4 0 8
BITMAP
09F3
1EF0
6FC0
AF90
ENDCHAR
STARTCHAR quoteright
ENCODING 8217
SWIDTH 216 0
DWIDTH 3 0
BBX 4 4 0 8
BITMAP
2FF2
4FD0
7F80
AF20
ENDCHAR
STARTCHAR quotesinglbase
ENCODING 8218
SWIDTH 291 0
DWIDTH 5 0
BBX 4 4 0 -2
BITMAP
0CF7
0FF3
3FC0
6F60
ENDCHAR
STARTCHAR quotereversed
ENCODING 8219
SWIDTH 215 0
DWIDTH 3 0
BBX 4 4 0 8
BITMAP
AF90
6FC0
1EF0
09F3
ENDCHAR
STARTCHAR quotedblleft
ENCODING 8220
SWIDTH 444 0
DWIDTH 7 0
BBX 7 4 0 8
BITMAP
09F31ED0
1EF06FA0
6FC0BF70
AF91FF40
ENDCHAR
STARTCHAR quotedblright
ENCODING 8221
SWIDTH 444 0
DWIDTH 7 0
BBX 7 4 0 8
BITMAP
2FF27FC0
4FD0AF80
7F80DF20
AF21FB00
ENDCHAR
STARTCHAR quotedblbase
ENCODING 8222
SWIDTH 518 0
DWIDTH 8 0
BBX 8 4 0 -2
BITMAP
0CF72FF2
0FF35FC0
3FC08F70
6F60BF10
ENDCHAR
STARTCHAR dagger
ENCODING 8224
SWIDTH 516 0
DWIDTH 8 0
BBX 7 13 1 0
BITMAP
00EF1000
00DE0000
00BC0000
EDEEDE40
DBDEBC40
00AB0000
00BC0000
00BD0000
00CE0000
00DE0000
00EF0000
00EF1000
00FF2000
ENDCHAR
STARTCHAR daggerdbl
ENCODING 8225
SWIDTH 525 0
DWIDTH 8 0
BBX 7 13 1 0
BITMAP
00CF3000
00AF1000
008E0000
EDDFCE70
CBCFBC60
009F1000
00BF3000
009F0000
EDDFCE70
DBCEBC60
008F0000
00AF2000
00CF3000
ENDCHAR
STARTCHAR bullet
ENCODING 8226
SWIDTH 375 0
DWIDTH 6 0
BBX 6 5 0 3
BITMAP
06EE60
1FFFF1
3FFFF3
1FFFF1
06EE60
ENDCHAR
STARTCHAR ellipsis
ENCODING 8230
SWIDTH 854 0
DWIDTH 14 0
BBX 13 3 0 0
BITMAP
06920197005930
1FF907FF30EFB0
0BE504EC109E60
ENDCHAR
STARTCHAR perthousand
ENCODING 8240
SWIDTH 1280 0
DWIDTH 21 0
BBX 20 12 0 0
BITMAP
06DE91000CE100000000
2FECF8006F8000000000
6F82FC00DE1000000000
7F71FD06F70000000000
6F82FC1ED00000000000
2FECF87F66DE9105DEA1
05DEA2ED2FECF81EFCF9
000008F56F82FC5FA1FD
00001EC07F71FD6F80FF
00009F406F82FC5FA1FD
0002FB002FECF81EECF9
000AF30005DEA104DEA1
ENDCHAR
STARTCHAR minute
ENCODING 8242
SWIDTH 266 0
DWIDTH 4 0
BBX 3 4 1 8
BITMAP
EF30
DF20
BF00
AE00
ENDCHAR
STARTCHAR second
ENCODING 8243
SWIDTH 472 0
DWIDTH 8 0
BBX 6 4 1 8
BITMAP
EF39F7
DF28F6
BF07F5
AE06F4
ENDCHAR
STARTCHAR guilsinglleft
ENCODING 8249
SWIDTH 368 0
DWIDTH 6 0
BBX 5 7 0 1
BITMAP
001C70
00BFB0
09FD10
3FF400
09FD10
00BFB0
001C70
ENDCHAR
STARTCHAR guilsinglright
ENCODING 8250
SWIDTH 368 0
DWIDTH 6 0
BBX 6 7 0 1
BITMAP
18B000
1CFA00
02EF70
006FF2
02EF70
1CF900
18B000
ENDCHAR
STARTCHAR exclamdbl
ENCODING 8252
SWIDTH 569 0
DWIDTH 9 0
BBX 9 12 0 0
BITMAP
0FF907FF30
0FF906FF20
0EF805FF10
0DF705FF10
0CF704FF00
0CF603FE00
0BF502FE00
0AF402FD00
0000000000
0692019700
1FF907FF30
0BE503EC10
ENDCHAR
STARTCHAR fraction
ENCODING 8260
SWIDTH 129 0
DWIDTH 2 0
BBX 8 12 -3 0
BITMAP
000001ED
000008F5
00001EC0
00009F40
0002FB00
000AF300
003FB000
00BF3000
03FA0000
0BF20000
4F900000
CE100000
ENDCHAR
STARTCHAR zerosuperior
ENCODING 8304
SWIDTH 378 0
DWIDTH 6 0
BBX 6 7 0 5
BITMAP
08EE80
4FDDF5
9F65F9
AF53FB
8F65FA
4FDDF5
07EE80
ENDCHAR
STARTCHAR foursuperior
ENCODING 8308
SWIDTH 378 0
DWIDTH 6 0
BBX 6 7 0 5
BITMAP
004FE0
01DEE0
0B9DE0
7D1EE0
EFFFFE
455EF4
000EE0
ENDCHAR
STARTCHAR fivesuperior
ENCODING 8309
SWIDTH 378 0
DWIDTH 6 0
BBX 6 7 0 5
BITMAP
0FFFF2
1F9771
3FFE90
0449F6
0003F8
485AF5
3DFD70
ENDCHAR
STARTCHAR sixsuperior
ENCODING 8310
SWIDTH 378 0
DWIDTH 6 0
BBX 6 7 0 5
BITMAP
0029B0
05EE80
2FD200
8FBED3
9F56FA
5F99F8
08EEB1
ENDCHAR
STARTCHAR sevensuperior
ENCODING 8311
SWIDTH 378 0
DWIDTH 6 0
BBX 6 7 0 5
BITMAP
8FFFFA
3779F8
000AF2
002FA0
009F40
02FC00
08F600
ENDCHAR
STARTCHAR eightsuperior
ENCODING 8312
SWIDTH 378 0
DWIDTH 6 0
BBX 6 7 0 5
BITMAP
09EEA1
5F98F6
3FCBF3
0BFFB1
8F77F9
8F77F9
1AEEA1
ENDCHAR
STARTCHAR ninesuperior
ENCODING 8313
SWIDTH 378 0
DWIDTH 6 0
BBX 6 7 0 5
BITMAP
1AED70
8F99F5
9F66F9
2CEAF9
0005F7
078EE1
1EEB30
ENDCHAR
STARTCHAR nsuperior
ENCODING 8319
SWIDTH 422 0
DWIDTH 7 0
BBX 7 6 0 6
BITMAP
3F7DE700
3FD6CF00
3F607F10
3F507F10
3F507F10
3F507F10
ENDCHAR
STARTCHAR franc
ENCODING 8355
SWIDTH 570 0
DWIDTH 9 0
BBX 9 12 0 0
BITMAP
08FFFFFF50
08FFFFFF50
08FC000000
08FC000000
08FC000000
08FFFFFF00
08FFFFFF00
08FC000000
BFFFFF4000
4BFD662000
08FC000000
08FC000000
ENDCHAR
STARTCHAR afii08941
ENCODING 8356
SWIDTH 570 0
DWIDTH 9 0
BBX 9 12 0 0
BITMAP
0006CEDA30
005FFFFF30
00BFB01400
00EF700000
00EF600000
5FFFFFF300
26FF966100
5FFFFFF300
26FF866100
07FC100000
5FFFFFFFC0
5FFFFFFFC0
ENDCHAR
STARTCHAR peseta
ENCODING 8359
SWIDTH 892 0
DWIDTH 14 0
BBX 13 12 1 0
BITMAP
8FFFDA20000000
8FFFFFE1000000
8FB04EF7000000
8FB00AFA0A8000
8FB00AFA2F9000
8FB04FFADFFFB0
8FFFFFC6CFDA70
8FFFD8107F9000
8FB000007F9000
8FB000006FA000
8FB000004FFCB0
8FB0000008EE90
ENDCHAR
STARTCHAR uni20AB
ENCODING 8363
SWIDTH 648 0
DWIDTH 10 0
BBX 11 16 0 -3
BITMAP
0000008FD000
0000FFFFFF10
000088CFE810
0000007FD000
01AEE97FD000
0BFFFFEFD000
1FFB01CFD000
3FF6007FD000
4FF5005FD000
3FF6006FD000
1EFC11CFD000
08FFFFDFD000
019EE84FD000
000000000000
001111110000
05FFFFFF5000
ENDCHAR
STARTCHAR Euro
ENCODING 8364
SWIDTH 570 0
DWIDTH 9 0
BBX 9 12 0 0
BITMAP
0003AEFD80
004FFFFFA0
00EFB10320
04FF100000
7FFFFFF100
3BFD666000
09FC000000
7FFFFF8000
39FF663000
01EFA21230
005FFFFF90
0003BDFD50
ENDCHAR
STARTCHAR afii61248
ENCODING 8453
SWIDTH 794 0
DWIDTH 13 0
BBX 13 12 0 0
BITMAP
06DEA000DE1000
3FA55006F70000
6F20001ED00000
6F20007F600000
3FA561ED000000
06DFA8F5000000
00001EC2BEC300
00009F4AE5CD00
0002FB0E906F20
000AF30E906F20
003FA00AE5CD00
00BF3001BEC300
ENDCHAR
STARTCHAR afii61289
ENCODING 8467
SWIDTH 520 0
DWIDTH 8 0
BBX 8 12 0 0
BITMAP
004CED70
01EFADF4
03FF19F7
04FF0AF5
04FF4FE1
04FFFE40
6DFF9100
9CFF0000
04FF0064
02FF21FA
00CFCCF5
002BED80
ENDCHAR
STARTCHAR afii61352
ENCODING 8470
SWIDTH 1027 0
DWIDTH 16 0
BBX 15 12 1 0
BITMAP
EFD0007F90000000
EFF5007F90000000
EFFC007F90000000
EFDF407F90000000
EF7FB07F905DE910
EF2EF37F92FA6F80
EF27FA6F96F30CC0
EF21EF7F96F30CC0
EF208FDF92FA6F80
EF202FFF905DEA10
EF200AFF92777750
EF2003FF94FFFFB0
ENDCHAR
STARTCHAR uni2120
ENCODING 8480
SWIDTH 734 0
DWIDTH 12 0
BBX 12 6 0 6
BITMAP
0BEC6FB00EF1
4F235FF14EF1
2EA25EC59AF1
03BE6E79E6F1
223F7E3FC4F1
4EE95E0D84F1
ENDCHAR
STARTCHAR trademark
ENCODING 8482
SWIDTH 749 0
DWIDTH 12 0
BBX 12 6 0 6
BITMAP
DFFFAFE00CF4
26F23FE41EF4
05F02FB86AF4
05F02F6DB6F4
05F02F3EE2F4
05F02F2AB1F4
ENDCHAR
STARTCHAR Omega
ENCODING 8486
SWIDTH 786 0
DWIDTH 13 0
BBX 13 12 0 0
BITMAP
0006BEFDA30000
00BFFFFFFF6000
08FFA214DFF200
0EFC00003FF800
1FF700000DFA00
1FF600000CFA00
0EF600000DF800
0AFA00001FF300
02EE20008FA000
005ED207FB1000
8FFFF60DFFFF20
8FFFF60DFFFF20
ENDCHAR
STARTCHAR estimated
ENCODING 8494
SWIDTH 619 0
DWIDTH 10 0
BBX 10 9 0 0
BITMAP
003AAAA300
03C1002D40
0C90000BC0
1FDAAAAEF1
3F90000000
1F90000000
0C90000350
03C2002B10
003AAAA200
ENDCHAR
STARTCHAR oneeighth
ENCODING 8539
SWIDTH 880 0
DWIDTH 14 0
BBX 14 12 0 0
BITMAP
01BF40009F4000
3DFF4002FB0000
299F400AF30000
008F403FA00000
008F40BF200000
008F44F93CED60
008F4CF2AF5CF1
00005F807F9ED0
0000CE102EFF70
0006F800DE4BF3
000DE100DE5BF4
006F70004CFD70
ENDCHAR
STARTCHAR threeeighths
ENCODING 8540
SWIDTH 880 0
DWIDTH 14 0
BBX 14 12 0 0
BITMAP
2AEE70001EC000
2B6CF2009F4000
000AE102FB0000
07FF500AF30000
024AF33FA00000
795AF5BF3AEE90
4CFE94FA6F89F5
00000BF23FBCF2
00004F901CFFA0
0000CE109F68F7
0005F8009F68F8
000DE1001AEE91
ENDCHAR
STARTCHAR fiveeighths
ENCODING 8541
SWIDTH 880 0
DWIDTH 14 0
BBX 14 12 0 0
BITMAP
0EFFF3001EC000
1F9771009F4000
2FFE9002FB0000
0448F70AF30000
0002F93FA00000
485AF6BF3AEE90
3DFD84FA6F89F5
00000BF23FBCF2
00004F901CFFA0
0000CE109F68F7
0005F8009F68F8
000DE1001AEE91
ENDCHAR
STARTCHAR seveneighths
ENCODING 8542
SWIDTH 880 0
DWIDTH 14 0
BBX 14 12 0 0
BITMAP
7FFFFB00BF2000
3778F904F90000
0009F30CE10000
001FB05F800000
008F50DE100000
01ED06F74CFD40
07F71DE1DE5ED0
00007F60AF8FA0
0001ED004FFF40
0008F501ED4CF1
001EC001FC5CF1
009F40005DFD50
ENDCHAR
STARTCHAR partialdiff
ENCODING 8706
SWIDTH 581 0
DWIDTH 9 0
BBX 9 12 0 0
BITMAP
003BEEB300
008FFFFE10
006405FF70
000000DFA0
004CEEEFB0
05FFEEFFA0
1EFB01EF90
5FF402FF50
7FF008FE10
7FF13EF800
2FFEFFB000
05CED81000
ENDCHAR
STARTCHAR Delta
ENCODING 8710
SWIDTH 658 0
DWIDTH 11 0
BBX 11 12 0 0
BITMAP
0004FFC00000
0009FFF20000
000EFCF70000
004FE5FC0000
009F91FF2000
00DF50BF6000
03FE107FB000
08FA002FF100
0DF6000DF600
3FF10008FB00
7FFFFFFFFF10
8FFFFFFFFF10
ENDCHAR
STARTCHAR product
ENCODING 8719
SWIDTH 741 0
DWIDTH 12 0
BBX 10 16 1 -4
BITMAP
BFFFFFFFF8
BFFFFFFFF8
BFC0000EF8
BFC0000EF8
BFC0000EF8
BFC0000EF8
BFC0000EF8
BFC0000EF8
BFC0000EF8
BFC0000EF8
BFC0000EF8
BFC0000EF8
BFC0000EF8
BFC0000EF8
BFC0000EF8
BFC0000EF8
ENDCHAR
STARTCHAR summation
ENCODING 8721
SWIDTH 630 0
DWIDTH 10 0
BBX 10 16 0 -4
BITMAP
8FFFFFFFF8
6FFFFFFFF8
0BFE100000
02EFB00000
005FF60000
000AFE2000
0001DFB000
00006FF500
0000BFD100
0006FF5000
001EFA0000
00AFE10000
04FF600000
1DFC000000
8FFFFFFFFF
AFFFFFFFFF
ENDCHAR
STARTCHAR minus
ENCODING 8722
SWIDTH 570 0
DWIDTH 9 0
BBX 9 2 0 5
BITMAP
5FFFFFFF70
3BBBBBBB50
ENDCHAR
STARTCHAR radical
ENCODING 8730
SWIDTH 548 0
DWIDTH 9 0
BBX 10 14 0 0
BITMAP
00000000EC
00000004F7
00000009F2
0000000EC0
0000005F60
000000AF10
BFE001EB00
7BF505F600
01F90AF100
00BE1FB000
006FAF6000
001FFF1000
000BFA0000
0006F50000
ENDCHAR
STARTCHAR infinity
ENCODING 8734
SWIDTH 707 0
DWIDTH 11 0
BBX 11 5 0 3
BITMAP
03CEB27DD600
0DEAEEFBDF30
1F807FC03F60
0DEAEEFBCF30
03CEA18EE600
ENDCHAR
STARTCHAR integral
ENCODING 8747
SWIDTH 412 0
DWIDTH 7 0
BBX 7 17 0 -4
BITMAP
0019EE70
008FFF90
00CFB120
00EF8000
00EF8000
00EF8000
00EF8000
00EF8000
00EF8000
00EF8000
00EF8000
00EF8000
00EF8000
00EF7000
22FF6000
FFFF2000
DFD50000
ENDCHAR
STARTCHAR approxequal
ENCODING 8776
SWIDTH 570 0
DWIDTH 9 0
BBX 9 6 0 3
BITMAP
09ED710250
4FCEFEBE70
43016CFA10
09ED710250
4FCEFEBE70
43016CFA10
ENDCHAR
STARTCHAR notequal
ENCODING 8800
SWIDTH 570 0
DWIDTH 9 0
BBX 9 10 0 1
BITMAP
0000010000
000009D200
00001EC000
5FFFFFFF70
3AABFEAA50
0007F60000
5FFFFFFF70
3BDFCBBB50
00DE100000
0077000000
ENDCHAR
STARTCHAR lessequal
ENCODING 8804
SWIDTH 570 0
DWIDTH 9 0
BBX 9 10 0 0
BITMAP
0000002860
000029FF70
003AFFB400
2BFE820000
4FFB500000
028EFE9300
00005CFF60
0000003960
4BBBBBBB50
5FFFFFFF70
ENDCHAR
STARTCHAR greaterequal
ENCODING 8805
SWIDTH 570 0
DWIDTH 9 0
BBX 9 10 0 0
BITMAP
4920000000
4FFA300000
03AFFB4000
00017DFC30
00004AFF60
038EFE9300
4FFD610000
4A40000000
3BBBBBBB50
5FFFFFFF70
ENDCHAR
STARTCHAR lozenge
ENCODING 9674
SWIDTH 583 0
DWIDTH 9 0
BBX 9 12 0 0
BITMAP
0002E60000
000AFE1000
004FEF9000
00CF3DF300
06F905FB00
1EE100BF50
1EE100BF50
07F904FB00
00DF3DF300
004FEF9000
000AFE1000
0002E60000
ENDCHAR
STARTCHAR ff
ENCODING 64256
SWIDTH 773 0
DWIDTH 12 0
BBX 13 13 0 0
BITMAP
004CEE902BEEC0
01EFFF80CFFEB0
04FF3001FF6010
05FF0002FF3000
5EFFFF4CFFFF40
8DFFCC7CFFDC30
05FF0002FF3000
05FF0002FF3000
05FF0002FF3000
05FF0002FF3000
05FF0002FF3000
05FF0002FF3000
05FF0002FF3000
ENDCHAR
STARTCHAR uniFB01
ENCODING 64257
SWIDTH 691 0
DWIDTH 11 0
BBX 10 13 0 0
BITMAP
004CEE96EA
01EFFF88FD
04FF300152
05FF000000
5EFFFF18FD
8DFFCC18FD
05FF0008FD
05FF0008FD
05FF0008FD
05FF0008FD
05FF0008FD
05FF0008FD
05FF0008FD
ENDCHAR
STARTCHAR uniFB02
ENCODING 64258
SWIDTH 691 0
DWIDTH 11 0
BBX 10 13 0 0
BITMAP
004CEE98FD
01EFFF88FD
04FF3008FD
05FF0008FD
5EFFFF18FD
8DFFCC18FD
05FF0008FD
05FF0008FD
05FF0008FD
05FF0008FD
05FF0008FD
05FF0008FD
05FF0008FD
ENDCHAR
STARTCHAR uniFB03
ENCODING 64259
SWIDTH 1078 0
DWIDTH 17 0
BBX 17 13 0 0
BITMAP
004CEE902BEEC4EC00
01EFFF80CFFEB6FF10
04FF3001FF60104300
05FF0002FF30000000
5EFFFF4CFFFF46FF00
8DFFCC7CFFDC36FF00
05FF0002FF3006FF00
05FF0002FF3006FF00
05FF0002FF3006FF00
05FF0002FF3006FF00
05FF0002FF3006FF00
05FF0002FF3006FF00
05FF0002FF3006FF00
ENDCHAR
STARTCHAR uniFB04
ENCODING 64260
SWIDTH 1078 0
DWIDTH 17 0
BBX 16 13 0 0
BITMAP
004CEE902BEEC6FF
01EFFF80CFFEB6FF
04FF3001FF6016FF
05FF0002FF3006FF
5EFFFF4CFFFF46FF
8DFFCC7CFFDC36FF
05FF0002FF3006FF
05FF0002FF3006FF
05FF0002FF3006FF
05FF0002FF3006FF
05FF0002FF3006FF
05FF0002FF3006FF
05FF0002FF3006FF
ENDCHAR
ENDFONT
